<svg width="105" height="75" fill="none" xmlns="http://www.w3.org/2000/svg"><path d="M16.23 9.714c0-1.664.36-3.144 1.08-4.44a7.639 7.639 0 013-3.048c1.296-.736 2.76-1.104 4.392-1.104 2 0 3.711.528 5.135 1.584 1.425 1.056 2.377 2.496 2.857 4.32H28.18c-.335-.704-.816-1.24-1.44-1.608-.607-.368-1.303-.552-2.087-.552-1.264 0-2.288.44-3.073 1.32-.784.88-1.175 2.056-1.175 3.528s.392 2.648 1.175 3.528c.785.88 1.809 1.32 3.073 1.32.784 0 1.48-.184 2.087-.552.625-.368 1.105-.904 1.44-1.608h4.512c-.48 1.824-1.431 3.264-2.855 4.32-1.425 1.04-3.137 1.56-5.137 1.56-1.631 0-3.096-.36-4.392-1.08a7.847 7.847 0 01-3-3.048c-.72-1.296-1.08-2.776-1.08-4.44zM48.886 4.77l-8.4 19.752H36.07l3.072-6.816L33.695 4.77h4.584l3.096 8.376 3.072-8.376h4.44zm5.588 1.896c.384-.624.936-1.128 1.656-1.512.72-.384 1.544-.576 2.472-.576 1.104 0 2.104.28 3 .84.896.56 1.6 1.36 2.112 2.4.528 1.04.792 2.248.792 3.624s-.264 2.592-.792 3.648c-.512 1.04-1.216 1.848-2.112 2.424-.896.56-1.896.84-3 .84-.944 0-1.768-.184-2.472-.552-.704-.384-1.256-.888-1.656-1.512v1.872H50.37V.402h4.104v6.264zm5.856 4.776c0-1.024-.288-1.824-.864-2.4-.56-.592-1.256-.888-2.088-.888-.816 0-1.512.296-2.088.888-.56.592-.84 1.4-.84 2.424s.28 1.832.84 2.424c.576.592 1.272.888 2.088.888.816 0 1.512-.296 2.088-.888.576-.608.864-1.424.864-2.448zm18.953-.192c0 .384-.024.784-.072 1.2h-9.288c.064.832.328 1.472.792 1.92.48.432 1.064.648 1.752.648 1.024 0 1.736-.432 2.136-1.296h4.368a5.916 5.916 0 01-1.224 2.376 5.958 5.958 0 01-2.184 1.656c-.88.4-1.864.6-2.952.6-1.312 0-2.48-.28-3.504-.84a5.975 5.975 0 01-2.4-2.4c-.576-1.04-.864-2.256-.864-3.648 0-1.392.28-2.608.84-3.648a5.975 5.975 0 012.4-2.4c1.024-.56 2.2-.84 3.528-.84 1.296 0 2.448.272 3.456.816a5.781 5.781 0 012.352 2.328c.576 1.008.864 2.184.864 3.528zm-4.2-1.08c0-.704-.24-1.264-.72-1.68-.48-.416-1.08-.624-1.8-.624-.688 0-1.272.2-1.752.6-.464.4-.752.968-.864 1.704h5.136zm10.469-3.168a5.3 5.3 0 011.8-1.728 4.576 4.576 0 012.4-.648V8.97h-1.128c-1.024 0-1.792.224-2.304.672-.512.432-.768 1.2-.768 2.304v6.216h-4.104V4.77h4.104v2.232zM7.283 46.33c-1.232 0-2.336-.2-3.312-.6-.976-.4-1.76-.992-2.352-1.776-.576-.784-.88-1.728-.912-2.832h4.368c.064.624.28 1.104.648 1.44.368.32.848.48 1.44.48.608 0 1.088-.136 1.44-.408.352-.288.528-.68.528-1.176 0-.416-.144-.76-.432-1.032a3.203 3.203 0 00-1.032-.672c-.4-.176-.976-.376-1.728-.6-1.088-.336-1.976-.672-2.664-1.008A4.922 4.922 0 011.5 36.658c-.496-.656-.744-1.512-.744-2.568 0-1.568.568-2.792 1.704-3.672 1.136-.896 2.616-1.344 4.44-1.344 1.856 0 3.352.448 4.488 1.344 1.136.88 1.744 2.112 1.824 3.696h-4.44c-.032-.544-.232-.968-.6-1.272-.368-.32-.84-.48-1.416-.48-.496 0-.896.136-1.2.408-.304.256-.456.632-.456 1.128 0 .544.256.968.768 1.272.512.304 1.312.632 2.4.984 1.088.368 1.968.72 2.64 1.056.688.336 1.28.824 1.776 1.464s.744 1.464.744 2.472c0 .96-.248 1.832-.744 2.616-.48.784-1.184 1.408-2.112 1.872-.928.464-2.024.696-3.288.696zm7.854-6.888c0-1.376.256-2.584.768-3.624.528-1.04 1.24-1.84 2.136-2.4.896-.56 1.896-.84 3-.84.944 0 1.768.192 2.472.576.72.384 1.272.888 1.656 1.512V32.77h4.104v13.392h-4.104v-1.896c-.4.624-.96 1.128-1.68 1.512-.704.384-1.528.576-2.472.576-1.088 0-2.08-.28-2.976-.84-.896-.576-1.608-1.384-2.136-2.424-.512-1.056-.768-2.272-.768-3.648zm10.032.024c0-1.024-.288-1.832-.864-2.424a2.73 2.73 0 00-2.064-.888c-.816 0-1.512.296-2.088.888-.56.576-.84 1.376-.84 2.4s.28 1.84.84 2.448c.576.592 1.272.888 2.088.888a2.73 2.73 0 002.064-.888c.576-.592.864-1.4.864-2.424zm24.16-6.84c1.665 0 2.985.504 3.96 1.512.993 1.008 1.489 2.408 1.489 4.2v7.824h-4.08V38.89c0-.864-.232-1.528-.696-1.992-.448-.48-1.072-.72-1.872-.72s-1.432.24-1.896.72c-.448.464-.672 1.128-.672 1.992v7.272h-4.08V38.89c0-.864-.232-1.528-.696-1.992-.448-.48-1.072-.72-1.872-.72s-1.432.24-1.896.72c-.448.464-.672 1.128-.672 1.992v7.272h-4.104V32.77h4.104v1.68c.416-.56.96-1 1.632-1.32.672-.336 1.432-.504 2.28-.504 1.008 0 1.904.216 2.688.648a4.625 4.625 0 011.872 1.848 5.395 5.395 0 011.896-1.8 5.123 5.123 0 012.616-.696zm21.543.144v13.392h-4.104v-1.824c-.416.592-.984 1.072-1.704 1.44-.704.352-1.488.528-2.352.528-1.024 0-1.928-.224-2.712-.672-.784-.464-1.392-1.128-1.824-1.992-.432-.864-.648-1.88-.648-3.048V32.77h4.08v7.272c0 .896.232 1.592.696 2.088.464.496 1.088.744 1.872.744.8 0 1.432-.248 1.896-.744.464-.496.696-1.192.696-2.088V32.77h4.104zm7.052 2.232a5.3 5.3 0 011.8-1.728 4.576 4.576 0 012.4-.648v4.344h-1.128c-1.024 0-1.792.224-2.304.672-.512.432-.768 1.2-.768 2.304v6.216H73.82V32.77h4.104v2.232zm5.346 4.44c0-1.376.256-2.584.768-3.624.528-1.04 1.24-1.84 2.136-2.4.896-.56 1.896-.84 3-.84.944 0 1.768.192 2.472.576.72.384 1.272.888 1.656 1.512V32.77h4.104v13.392h-4.104v-1.896c-.4.624-.96 1.128-1.68 1.512-.704.384-1.528.576-2.472.576-1.088 0-2.08-.28-2.976-.84-.896-.576-1.608-1.384-2.136-2.424-.512-1.056-.768-2.272-.768-3.648zm10.032.024c0-1.024-.288-1.832-.864-2.424a2.73 2.73 0 00-2.064-.888c-.816 0-1.512.296-2.088.888-.56.576-.84 1.376-.84 2.4s.28 1.84.84 2.448c.576.592 1.272.888 2.088.888a2.73 2.73 0 002.064-.888c.576-.592.864-1.4.864-2.424zm9.137-8.088c-.72 0-1.312-.208-1.776-.624a2.116 2.116 0 01-.672-1.584c0-.64.224-1.168.672-1.584.464-.432 1.056-.648 1.776-.648.704 0 1.28.216 1.728.648.464.416.696.944.696 1.584 0 .624-.232 1.152-.696 1.584-.448.416-1.024.624-1.728.624zm2.04 1.392v13.392h-4.104V32.77h4.104zM41.785 63.65l-.672 3.144h2.88v3.696h-3.672l-.792 3.672h-3.84l.792-3.672h-3.984l-.792 3.672h-3.84l.792-3.672h-3.552v-3.696h4.344l.672-3.144h-3.48v-3.696h4.248l.768-3.552h3.84l-.768 3.552h3.984l.768-3.552h3.84l-.768 3.552h2.976v3.696h-3.744zm-3.84 0h-3.984l-.672 3.144h3.984l.672-3.144zm9.031-3.192v-3.816h6.648v17.52h-4.272V60.458h-2.376zm20.64-.744l-6.024 14.448h-4.2l6.096-13.992h-7.464v-3.504h11.592v3.048zm12.843 0l-6.024 14.448h-4.2l6.096-13.992h-7.464v-3.504H80.46v3.048z" fill="#fff"/></svg>