<svg width="107" height="108" fill="none" xmlns="http://www.w3.org/2000/svg"><rect x="53.499" y="1.681" width="74.085" height="74.085" rx="15.5" transform="rotate(45 53.5 1.68)" fill="#0A0A0C" stroke="#1C1C1C"/><mask id="a" style="mask-type:alpha" maskUnits="userSpaceOnUse" x="28" y="29" width="49" height="49"><path fill="#D9D9D9" d="M28.922 29.618h48v48h-48z"/></mask><g mask="url(#a)"><path d="M54.678 36.318c4.167.4 7.709 2.042 10.626 4.924 2.916 2.884 4.574 6.41 4.974 10.576h-12.4a5.535 5.535 0 00-1.274-1.9 5.373 5.373 0 00-1.926-1.2v-12.4zm1.4 1.6v9.8a8.266 8.266 0 011.55 1.174c.467.451.85.96 1.15 1.526h9.9c-.666-3.166-2.141-5.892-4.424-8.176-2.284-2.282-5.01-3.724-8.176-4.324zm-4.8-1.6v12.4c-1.066.367-1.916 1-2.55 1.9-.633.9-.95 1.9-.95 3s.325 2.084.976 2.95a5.298 5.298 0 002.524 1.85v12.5c-4.466-.466-8.2-2.342-11.2-5.626-3-3.282-4.5-7.174-4.5-11.674 0-4.5 1.5-8.408 4.5-11.726 3-3.316 6.733-5.174 11.2-5.574zm-1.4 1.6c-3.767.7-6.858 2.534-9.274 5.5-2.417 2.967-3.626 6.367-3.626 10.2 0 3.834 1.209 7.234 3.626 10.2 2.416 2.967 5.508 4.8 9.274 5.5v-10a9.07 9.07 0 01-2.5-2.474 5.713 5.713 0 01-1-3.276c0-1.166.325-2.25.976-3.25.65-1 1.49-1.833 2.524-2.5v-9.9zm8 17.4h12.4c-.4 4.167-2.058 7.709-4.974 10.626-2.917 2.916-6.46 4.574-10.626 4.974v-12.5a5.065 5.065 0 001.95-1.2 5.712 5.712 0 001.25-1.9zm.9 1.4a11.512 11.512 0 01-1.2 1.474 5.865 5.865 0 01-1.5 1.126v10c3.2-.633 5.933-2.091 8.2-4.374 2.267-2.284 3.733-5.026 4.4-8.226h-9.9z" fill="#E6E6E6"/></g></svg>