<svg width="107" height="108" fill="none" xmlns="http://www.w3.org/2000/svg"><rect x="53.166" y="1.681" width="74.085" height="74.085" rx="15.5" transform="rotate(45 53.166 1.68)" fill="#0A0A0C" stroke="#1C1C1C"/><mask id="a" style="mask-type:alpha" maskUnits="userSpaceOnUse" x="29" y="29" width="49" height="49"><path fill="#D9D9D9" d="M29.956 29.618h48v48h-48z"/></mask><g mask="url(#a)"><path d="M52.45 48.218h16.6c-.867-2.367-2.267-4.476-4.2-6.326-1.934-1.85-4.134-3.074-6.6-3.674l-5.8 10zm-4 4l8.4-14.4c-.367-.067-.85-.117-1.45-.15a26.68 26.68 0 00-1.45-.05c-2.2 0-4.25.416-6.15 1.25-1.9.833-3.584 1.95-5.05 3.35l5.7 10zm-10 5.4h11.5l-8.2-14.3a17.527 17.527 0 00-2.8 4.774c-.667 1.717-1 3.56-1 5.526 0 .7.04 1.374.123 2.024.084.65.21 1.31.377 1.976zm11.3 11.4l5.8-10h-16.7c.866 2.366 2.283 4.475 4.25 6.326 1.966 1.85 4.183 3.074 6.65 3.674zm4.2.6c2.2 0 4.25-.417 6.15-1.25a17.35 17.35 0 005.05-3.35l-5.7-10-8.3 14.3c.366.1.825.174 1.376.224.549.05 1.023.076 1.423.076zm12.2-5.7c1.066-1.367 1.966-2.959 2.7-4.776.733-1.816 1.1-3.658 1.1-5.524 0-.7-.042-1.375-.124-2.024a17.4 17.4 0 00-.376-1.976h-11.5l8.2 14.3zm-12.2 7.1c-2.4 0-4.659-.459-6.775-1.376-2.117-.916-3.959-2.158-5.525-3.724-1.567-1.567-2.81-3.409-3.727-5.526-.916-2.116-1.373-4.374-1.373-6.774 0-2.4.458-4.659 1.373-6.776.918-2.116 2.16-3.958 3.727-5.524 1.566-1.567 3.408-2.809 5.526-3.726 2.115-.916 4.373-1.374 6.773-1.374 2.4 0 4.66.458 6.776 1.374 2.117.917 3.958 2.16 5.524 3.726 1.567 1.566 2.81 3.408 3.727 5.524.915 2.117 1.374 4.376 1.374 6.776 0 2.4-.459 4.658-1.374 6.774-.918 2.117-2.16 3.96-3.727 5.526-1.566 1.566-3.407 2.808-5.523 3.724-2.118.917-4.377 1.376-6.776 1.376z" fill="#E6E6E6"/></g></svg>