<svg width="135" height="136" fill="none" xmlns="http://www.w3.org/2000/svg"><path d="M67.31 52.422c0 9.3-7.54 16.839-16.84 16.839 9.3 0 16.84 7.538 16.84 16.839 0-9.3 7.539-16.84 16.838-16.84-9.3 0-16.838-7.538-16.838-16.838zm-23.523 61.57l1.88 1.004-.72 1.352-3.328-1.776 4.587-8.593 1.446.772-3.865 7.241zm-6.079-7.718c-2.097 2.18-4.691 2.533-6.487.805-1.797-1.727-1.555-4.342.541-6.522 2.088-2.171 4.596-2.55 6.46-.758 1.863 1.792 1.573 4.304-.514 6.475zm-1.21-1.164c1.56-1.623 1.785-3.163.68-4.226-1.114-1.071-2.645-.787-4.206.836-1.598 1.662-1.822 3.203-.708 4.274 1.105 1.062 2.635.778 4.233-.884zm-9.097-10.207c-2.68 1.402-5.252.912-6.407-1.296-1.154-2.208-.095-4.611 2.585-6.013 2.669-1.395 5.168-.958 6.366 1.333 1.198 2.29.125 4.58-2.544 5.976zm-.778-1.487c1.996-1.044 2.698-2.434 1.988-3.792-.717-1.37-2.258-1.586-4.254-.542-2.043 1.068-2.745 2.458-2.028 3.828.71 1.358 2.252 1.574 4.294.506zm-8.696-17.308c1.495-.182 2.668.75 2.846 2.218.178 1.468-.738 2.654-2.233 2.835-1.482.18-2.668-.75-2.847-2.219-.178-1.468.752-2.655 2.234-2.834zm-2.985-5.021l10.547 6.17.196 1.614-10.547-6.17-.196-1.614zm3.14 6.304c-.767.093-1.235.66-1.145 1.4.09.741.678 1.166 1.445 1.073.768-.093 1.236-.66 1.148-1.387-.09-.74-.68-1.18-1.448-1.086zm3.977-8.604c1.482-.18 2.667.737 2.845 2.206.18 1.481-.752 2.655-2.234 2.834-1.481.18-2.666-.737-2.846-2.218-.178-1.468.753-2.642 2.235-2.822zm.156 1.283c-.768.094-1.236.66-1.148 1.388.09.74.68 1.18 1.448 1.086.767-.093 1.235-.66 1.145-1.4-.088-.728-.678-1.167-1.445-1.074zm-1.753-17.62c-1.563-.683-2.085-2.452-1.264-4.333.788-1.807 2.29-2.518 3.924-1.863l-.682 1.563c-.785-.3-1.477.053-1.86.932-.422.965-.23 1.79.516 2.116.635.277 1.138.09 1.634-.58l.918-1.272c.996-1.383 2.103-1.787 3.434-1.206 1.661.725 2.171 2.488 1.313 4.455-.831 1.905-2.388 2.708-4.004 2.047l.682-1.563c.762.318 1.48-.096 1.918-1.097.453-1.038.289-1.895-.456-2.22-.599-.261-1.086-.11-1.565.553l-.936 1.278c-.99 1.37-2.204 1.786-3.572 1.19zm13.204-9.543l-1.022 1.246-7.665-6.288L26 36.62l4.708 3.862-.51-3.727 1.294-1.577.43 3.594 4.625.623-1.183 1.442-3.233-.43.164 1.377 1.37 1.124zM36.23 29.21a.987.987 0 01-1.394-.158c-.337-.43-.255-1.037.186-1.382a.97.97 0 011.365.164.981.981 0 01-.156 1.377zm4.238 6.72l-4.063-5.18 1.28-1.003 4.063 5.18-1.28 1.003zm7.457-4.876l-1.427.75-4.62-8.771 1.428-.752 4.619 8.773zm7.513-3.004l-1.543.467-2.879-9.487 1.543-.468 2.879 9.487zm9.219-1.458c-1.955.13-3.419-1.201-3.554-3.236-.138-2.06 1.11-3.573 3.038-3.701 1.968-.131 3.306 1.102 3.442 3.15l.033.491-4.945.343c.196 1.149.847 1.693 1.924 1.621.89-.059 1.453-.444 1.597-1.08l1.503-.101c-.184 1.454-1.323 2.398-3.038 2.513zm-.414-5.608c-.957.063-1.507.62-1.601 1.615l3.297-.22c-.06-.904-.725-1.46-1.696-1.396zm11.407 6.313c-1.863-.396-2.733-2.01-2.31-4.005.426-2.008 1.903-3.192 3.846-2.78.9.19 1.614.737 1.883 1.462l.865-4.08 1.578.334-2.058 9.698-1.46-.31.109-1.025c-.549.66-1.474.913-2.452.706zm.663-1.386c1.108.235 1.993-.408 2.24-1.568.246-1.16-.3-2.12-1.408-2.355-1.108-.235-1.96.442-2.203 1.59-.244 1.146.263 2.098 1.37 2.333zm20.782 2.127a.987.987 0 01-.23-1.385c.32-.443.927-.53 1.38-.201a.97.97 0 01.216 1.358.981.981 0 01-1.366.228zm-5.296 5.92l3.864-5.33 1.316.955-3.863 5.33-1.317-.954zm6.714 5.756l-1.066-1.227 4.968-4.318.988 1.136-.556.66c.774-.125 1.59.225 2.175.899 1.084 1.247.87 2.564-.418 3.683l-3.057 2.657-1.067-1.227 2.766-2.404c.835-.726.879-1.487.328-2.121-.656-.754-1.581-.762-2.385-.063l-2.676 2.325zm10.443 19.492l-.769-3.42 9.503-2.138.749 3.328c.632 2.808-.869 5.181-3.703 5.819-2.795.629-5.16-.833-5.78-3.59zm7.914-2.04l-.34-1.509-6.435 1.449.36 1.599c.427 1.898 1.91 2.78 3.886 2.335 2.015-.454 2.97-1.912 2.529-3.875zm-7.072 14.95c.144-1.954 1.666-3.218 3.699-3.069 2.06.151 3.384 1.598 3.243 3.525-.145 1.967-1.552 3.12-3.599 2.97l-.491-.037.349-4.944c-1.165.034-1.795.603-1.874 1.68-.065.89.238 1.5.849 1.731l-.11 1.502c-1.415-.384-2.191-1.644-2.066-3.358zm5.612.372c.07-.957-.406-1.58-1.377-1.812l-.242 3.296c.904.067 1.547-.514 1.619-1.484zm-4.757 8.106l-.501 1.463c-.546-.173-1.024.114-1.266.82-.246.718-.09 1.208.364 1.364.315.108.598.021.914-.49l.649-1.032c.636-1.035 1.351-1.396 2.347-1.055 1.223.418 1.6 1.702 1.109 3.14-.479 1.399-1.61 2.068-2.825 1.667l.501-1.463c.534.169.995-.068 1.198-.66.207-.605.05-1.053-.416-1.213-.353-.12-.675.079-.982.565l-.649 1.032c-.598.964-1.258 1.33-2.216 1.002-1.261-.432-1.676-1.771-1.149-3.31.53-1.55 1.699-2.248 2.922-1.83zm.182 14.306a.986.986 0 011.359-.352c.469.28.609.877.322 1.357a.97.97 0 01-1.334.336.98.98 0 01-.347-1.34zm-6.365-4.753l5.65 3.378-.835 1.396-5.65-3.378.835-1.396zm-1.28 8.142c1.382 1.332 1.549 3.232.245 4.585-.684.71-1.518.98-2.294.768l.587.696-1.045 1.084-4.5-4.337c-1.583-1.525-1.656-3.428-.176-4.963 1.313-1.362 2.987-1.544 4.392-.467l-1.128 1.17c-.688-.515-1.505-.396-2.199.324-.777.806-.768 1.814.02 2.572l.786.758c-.155-.723.131-1.576.788-2.257 1.294-1.343 3.152-1.255 4.524.067zm-1.108 1.208c-.797-.768-1.881-.832-2.621-.065-.777.806-.692 1.851.133 2.646.806.777 1.835.824 2.621.008.749-.777.644-1.84-.133-2.59zm-12.024 5.668l1.412-.806 3.264 5.717-1.308.746-.538-.674c-.029.783-.531 1.515-1.307 1.958-1.434.819-2.684.351-3.53-1.13l-2.008-3.518 1.412-.806 1.817 3.182c.548.961 1.287 1.153 2.016.736.868-.495 1.056-1.401.528-2.327l-1.758-3.078z" fill="#fff"/><circle cx="67.305" cy="68.261" r="66.781" stroke="url(#paint0_radial_6_100)"/><defs><radialGradient id="paint0_radial_6_100" cx="0" cy="0" r="1" gradientUnits="userSpaceOnUse" gradientTransform="rotate(90 24.454 42.85) scale(117.145)"><stop stop-color="#AD13FB"/><stop offset=".474" stop-color="#3313FB"/><stop offset="1" stop-color="#AF11FF"/></radialGradient></defs></svg>