<svg width="49" height="49" fill="none" xmlns="http://www.w3.org/2000/svg"><mask id="a" style="mask-type:alpha" maskUnits="userSpaceOnUse" x="0" y="0" width="49" height="49"><path fill="#D9D9D9" d="M.667.159h48v48h-48z"/></mask><g mask="url(#a)"><path d="M10.264 37.56c-.866 0-1.583-.284-2.15-.85-.566-.567-.85-1.284-.85-2.15v-20.8c0-.867.284-1.584.85-2.15.567-.567 1.284-.85 2.15-.85h19.8a10.01 10.01 0 00-.1 1.4h-20.5l15.2 10 7.1-4.7c.167.166.326.34.476.523.15.184.308.36.474.526l-8.05 5.35-16-10.6v21.3c0 .467.15.85.45 1.15.3.3.684.45 1.15.45h28.8c.467 0 .85-.15 1.15-.45.3-.3.45-.683.45-1.15V20.61c.267-.066.509-.133.726-.2.216-.066.441-.15.674-.25v14.4c0 .867-.283 1.584-.85 2.15-.566.567-1.283.85-2.15.85h-28.8zm28.4-20.7c-1.3 0-2.408-.46-3.324-1.377-.917-.915-1.376-2.024-1.376-3.324 0-1.3.459-2.408 1.376-3.326.916-.916 2.024-1.374 3.324-1.374 1.3 0 2.409.458 3.326 1.374.916.918 1.374 2.027 1.374 3.326 0 1.3-.458 2.409-1.374 3.324-.917.918-2.026 1.377-3.326 1.377z" fill="#B419FD"/></g></svg>