<svg width="76" height="21" fill="none" xmlns="http://www.w3.org/2000/svg"><path d="M.201.053h4.143v8.3l7.779-8.3h5.441l-8.257 8.3 8.681 11.853h-5.414L6.354 11.4l-2.01 2.065v6.74H.2V.053zm20.098 0h4.416l8.025 14.069V.053h3.924v20.153h-4.21L24.222 5.89v14.315h-3.924V.053zm20.303.028h14.287v3.54H44.785v4.636h8.846v3.5h-8.846v8.449h-4.183V.08zm31.76-.028v3.569h-6.03v16.584h-4.238V3.622h-6.057V.053h16.324zm-1.026 16.079h4.142v4.074h-4.142v-4.074z" fill="url(#paint0_linear_0_286)"/><defs><linearGradient id="paint0_linear_0_286" x1="-27.519" y1="-5.794" x2="92.707" y2="66.016" gradientUnits="userSpaceOnUse"><stop stop-color="#DF1CFF"/><stop offset="1" stop-color="#EA0070"/></linearGradient></defs></svg>