<svg width="20" height="20" fill="none" xmlns="http://www.w3.org/2000/svg"><mask id="a" style="mask-type:alpha" maskUnits="userSpaceOnUse" x="0" y="0" width="20" height="20"><path fill="#D9D9D9" d="M0 0h20v20H0z"/></mask><g mask="url(#a)"><path d="M10 10c.458 0 .85-.163 1.178-.49.326-.326.489-.718.489-1.177 0-.458-.163-.85-.49-1.177A1.607 1.607 0 0010 6.666c-.458 0-.85.164-1.177.49a1.61 1.61 0 00-.49 1.177c0 .459.164.851.49 1.177.326.327.719.49 1.177.49zm0 8.333c-2.236-1.902-3.906-3.67-5.01-5.302-1.104-1.632-1.657-3.142-1.657-4.53 0-2.084.67-3.744 2.011-4.98C6.684 2.285 8.236 1.667 10 1.667c1.764 0 3.316.618 4.656 1.854 1.34 1.236 2.01 2.896 2.01 4.98 0 1.388-.551 2.898-1.655 4.53-1.105 1.632-2.775 3.4-5.011 5.302z" fill="#E6E6E6" fill-opacity=".51"/></g></svg>