<svg width="107" height="107" fill="none" xmlns="http://www.w3.org/2000/svg"><rect x="53.499" y=".852" width="74.085" height="74.085" rx="15.5" transform="rotate(45 53.5 .852)" fill="#0A0A0C" stroke="#1C1C1C"/><mask id="a" style="mask-type:alpha" maskUnits="userSpaceOnUse" x="29" y="28" width="49" height="49"><path fill="#D9D9D9" d="M29.922 28.844h48v48h-48z"/></mask><g mask="url(#a)"><path d="M64.769 47.594l-5.65-5.6 2.65-2.6c.6-.6 1.316-.9 2.15-.9.833 0 1.533.3 2.1.9l1.35 1.4c.566.567.85 1.267.85 2.1 0 .833-.284 1.533-.85 2.1l-2.6 2.6zm-26.6 20.95v-5.65l9.1-9.1-10.55-10.6 6.55-6.55 10.65 10.6 5.2-5.25 5.65 5.6-5.2 5.25 10.55 10.65-6.55 6.55-10.65-10.6-9.1 9.1h-5.65zm10.1-15.7l4.65-4.65-4.25-4.25-2.35 2.35-1-1 2.35-2.35-4.4-4.4-4.65 4.65 9.65 9.65zm15.25 15.25l4.65-4.65-4.4-4.4-2.35 2.35-1-1 2.35-2.35-4.25-4.25-4.65 4.65 9.65 9.65zm-23.95-.95h3.65l19.55-19.55-3.65-3.65-19.55 19.55v3.65z" fill="#E6E6E6"/></g></svg>