<svg width="107" height="108" fill="none" xmlns="http://www.w3.org/2000/svg"><rect x="53.833" y="1.681" width="74.085" height="74.085" rx="15.5" transform="rotate(45 53.833 1.68)" fill="#0A0A0C" stroke="#1C1C1C"/><mask id="a" style="mask-type:alpha" maskUnits="userSpaceOnUse" x="29" y="29" width="49" height="49"><path fill="#D9D9D9" d="M29.435 29.618h48v48h-48z"/></mask><g mask="url(#a)"><path d="M48.029 69.018v-1.4h4v-4h-13c-.867 0-1.584-.284-2.15-.85-.567-.567-.85-1.284-.85-2.15v-19.4c0-.867.283-1.584.85-2.15.566-.567 1.283-.85 2.15-.85h28.8c.866 0 1.583.283 2.15.85.566.566.85 1.283.85 2.15v19.4c0 .866-.284 1.583-.85 2.15-.567.566-1.284.85-2.15.85h-13v4h4v1.4h-10.8zm-9-6.8h28.8c.4 0 .766-.167 1.1-.5.333-.334.5-.7.5-1.1v-19.4c0-.4-.167-.767-.5-1.1-.334-.334-.7-.5-1.1-.5h-28.8c-.4 0-.767.166-1.1.5-.334.333-.5.7-.5 1.1v19.4c0 .4.166.766.5 1.1.333.333.7.5 1.1.5z" fill="#E6E6E6"/></g></svg>