<svg xmlns="http://www.w3.org/2000/svg" viewBox="0 0 500 500"><path fill="#201f24" d="M0 0h500v500H0z"/><path d="M308.742 441.332c-.162-.601-.321-1.203-.484-1.804 5.944-1.652 11.881-3.326 17.79-5.105a492.327 492.327 0 0018.598-5.915 492.266 492.266 0 00-19.011 4.41c-5.989 1.488-11.949 3.079-17.903 4.694-1.654-5.943-3.329-11.88-5.108-17.789a499.663 499.663 0 00-5.912-18.598 498.33 498.33 0 004.413 19.01c1.487 5.989 3.078 11.949 4.691 17.903-.898.25-1.795.505-2.692.757a591.355 591.355 0 00-3.454-11.868 386.203 386.203 0 00-5.292-16.341 387.257 387.257 0 003.793 16.752c.981 4.007 2.029 7.995 3.092 11.979a762.79 762.79 0 00-13.236 3.828 500.307 500.307 0 00-18.599 5.912 498.33 498.33 0 0019.01-4.413 752.504 752.504 0 0013.322-3.463c.161.601.319 1.202.482 1.802-5.191 1.447-10.376 2.916-15.532 4.487a385.737 385.737 0 00-16.341 5.292 387.257 387.257 0 0016.752-3.793c5.236-1.282 10.444-2.666 15.646-4.072 1.446 5.191 2.914 10.376 4.485 15.533a381.47 381.47 0 005.295 16.34 381.417 381.417 0 00-3.79-16.753c-1.282-5.236-2.667-10.444-4.075-15.645.897-.25 1.792-.505 2.688-.757 1.323 4.719 2.664 9.433 4.077 14.127a492.906 492.906 0 005.915 18.598 492.266 492.266 0 00-4.41-19.011c-1.183-4.762-2.438-9.504-3.711-14.241a570.544 570.544 0 0010.975-3.201 381.47 381.47 0 0016.34-5.295 381.417 381.417 0 00-16.753 3.79c-3.7.907-7.382 1.871-11.061 2.85zm-4.586 1.227c-.166-.595-.336-1.189-.503-1.784.896-.241 1.793-.478 2.688-.721.165.596.335 1.19.501 1.786-.894.24-1.791.477-2.686.719zM189.257 71.311a74.089 74.089 0 005.985-.839c4.833-.951 9.667-2.198 14.5-4.707-4.833-2.509-9.667-3.756-14.5-4.707a74.992 74.992 0 00-5.985-.839c.453-.527.925-1.035 1.37-1.569 2.559-3.107 5.013-6.32 7.115-9.885-3.565 2.102-6.778 4.555-9.885 7.115-.535.445-1.043.917-1.569 1.37a74.089 74.089 0 00-.839-5.985c-.951-4.833-2.198-9.667-4.707-14.5-2.509 4.833-3.756 9.667-4.707 14.5a74.402 74.402 0 00-.838 5.977c-.525-.452-1.032-.923-1.565-1.367-3.106-2.561-6.32-5.013-9.89-7.11 2.097 3.57 4.549 6.784 7.11 9.89.441.529.908 1.032 1.357 1.553a74.524 74.524 0 00-5.967.833c-4.833.948-9.667 2.2-14.5 4.724 4.833 2.524 9.667 3.776 14.5 4.724 1.989.368 3.978.629 5.967.833-.449.521-.916 1.024-1.357 1.553-2.561 3.106-5.013 6.32-7.11 9.89 3.57-2.097 6.784-4.549 9.89-7.11.529-.441 1.032-.908 1.553-1.357.204 1.989.465 3.978.833 5.967.949 4.833 2.2 9.667 4.724 14.5 2.524-4.833 3.775-9.667 4.724-14.5.368-1.992.63-3.983.834-5.975.523.45 1.027.918 1.557 1.36 3.107 2.559 6.32 5.013 9.885 7.115-2.102-3.565-4.555-6.778-7.115-9.885-.445-.535-.917-1.043-1.37-1.569zm274.264 25.204c-3.946-6.304-8.462-12.038-13.151-17.599a263.385 263.385 0 00-10.643-11.763c1.765-.061 3.529-.103 5.294-.222 4.083-.221 8.167-.545 12.25-1.166-4.083-.621-8.167-.945-12.25-1.166-1.826-.124-3.651-.163-5.477-.228a84.402 84.402 0 004.106-5.051c2.444-3.331 4.74-6.809 6.446-10.878-4.069 1.706-7.548 4.002-10.878 6.446a84.32 84.32 0 00-4.999 4.058l-.031-4.051c-.081-3.624-.112-7.248-.25-10.872-.221-7.248-.545-14.496-1.166-21.744-.621 7.248-.945 14.496-1.166 21.744-.138 3.624-.169 7.248-.25 10.872l-.03 3.87a266.326 266.326 0 00-11.713-10.59c-5.562-4.688-11.295-9.205-17.591-13.159 3.953 6.297 8.471 12.029 13.159 17.591a266.095 266.095 0 0010.646 11.772c-1.768.055-3.536.122-5.305.216-4.083.22-8.167.546-12.25 1.17 4.083.625 8.167.951 12.25 1.171 1.822.097 3.644.167 5.467.222a83.842 83.842 0 00-4.103 5.045c-2.446 3.329-4.739 6.81-6.438 10.886 4.076-1.699 7.557-3.992 10.886-6.438a83.68 83.68 0 004.989-4.051l.029 4.037c.084 3.624.11 7.248.25 10.872.22 7.248.546 14.496 1.171 21.744.624-7.248.951-14.496 1.171-21.744.139-3.624.166-7.248.25-10.872l.028-3.859a262.979 262.979 0 0011.703 10.586c5.558 4.69 11.293 9.205 17.596 13.151zM329.504 73.336c-3.479-2.051-7.091-3.706-10.733-5.27-2.527-1.066-5.086-2.037-7.658-2.967a338.957 338.957 0 008.3-3.688c3.968-1.826 7.909-3.716 11.774-5.789-4.185 1.309-8.294 2.8-12.376 4.355-3.004 1.134-5.979 2.335-8.948 3.551a404.705 404.705 0 004.647-15.069c1.721-6.028 3.31-12.101 4.526-18.299-2.784 5.67-5.194 11.466-7.472 17.307a404.588 404.588 0 00-5.421 14.807c-1.626-2.765-3.268-5.522-4.972-8.243-2.308-3.709-4.677-7.382-7.219-10.956 1.82 3.99 3.813 7.88 5.867 11.735a340.735 340.735 0 004.374 7.954c-2.609-.817-5.232-1.593-7.886-2.274-3.846-.962-7.724-1.827-11.736-2.295 3.477 2.056 7.088 3.714 10.731 5.276 2.525 1.065 5.083 2.035 7.654 2.963a338.561 338.561 0 00-8.296 3.684c-3.968 1.826-7.909 3.717-11.773 5.791 4.186-1.307 8.296-2.797 12.377-4.352 2.995-1.131 5.961-2.329 8.921-3.542a400.03 400.03 0 00-4.626 15.056c-1.722 6.028-3.309 12.101-4.52 18.301 2.789-5.668 5.201-11.464 7.478-17.305a401.28 401.28 0 005.43-14.787c1.623 2.757 3.26 5.506 4.96 8.219 2.308 3.708 4.677 7.382 7.216 10.957-1.823-3.989-3.816-7.879-5.87-11.734a341.136 341.136 0 00-4.376-7.959c2.611.816 5.236 1.592 7.892 2.273 3.847.959 7.724 1.828 11.735 2.3zM201.492 319.238c6.917-.221 13.833-.545 20.75-1.166-6.917-.621-13.833-.946-20.75-1.166-3.458-.138-6.917-.169-10.375-.25l-4.84-.039a112.32 112.32 0 004.79-5.545c2.559-3.215 4.991-6.558 7-10.324-3.766 2.009-7.109 4.44-10.324 7a111.704 111.704 0 00-5.543 4.788l-.037-4.838c-.084-3.458-.11-6.917-.25-10.375-.22-6.917-.546-13.833-1.17-20.75-.624 6.917-.951 13.833-1.171 20.75-.14 3.458-.166 6.917-.25 10.375l-.037 4.83a111.504 111.504 0 00-5.537-4.785c-3.214-2.561-6.559-4.991-10.33-6.994 2.003 3.772 4.433 7.116 6.994 10.33a111.051 111.051 0 004.785 5.537l-4.83.037c-3.458.084-6.917.11-10.375.25-6.917.22-13.833.546-20.75 1.171 6.917.624 13.833.951 20.75 1.171 3.458.139 6.917.166 10.375.25l4.83.037a111.504 111.504 0 00-4.785 5.537c-2.561 3.214-4.991 6.559-6.994 10.33 3.771-2.003 7.116-4.433 10.33-6.994a111.136 111.136 0 005.539-4.787l.039 4.832c.081 3.458.112 6.917.25 10.375.221 6.917.545 13.833 1.166 20.75.621-6.917.945-13.833 1.166-20.75.138-3.458.169-6.917.25-10.375l.039-4.84a112.32 112.32 0 005.545 4.79c3.215 2.56 6.558 4.991 10.324 7-2.009-3.766-4.44-7.109-7-10.324a112.32 112.32 0 00-4.79-5.545l4.84-.039c3.46-.085 6.918-.116 10.376-.254zm-11.157 129.384c3.589 2.725 7.246 5.37 11.092 7.788-3.049-3.369-6.287-6.512-9.593-9.574-1.635-1.553-3.339-3.023-5.011-4.532l-2.849-2.452 6.84-1.551c3.239-.79 6.49-1.53 9.717-2.375 6.467-1.636 12.911-3.374 19.292-5.401-6.646.814-13.229 1.917-19.789 3.122-3.286.575-6.55 1.255-9.824 1.886l-5.617 1.176 1.574-1.923c1.385-1.776 2.808-3.52 4.149-5.332 2.725-3.59 5.37-7.246 7.788-11.092-3.369 3.048-6.512 6.287-9.574 9.593-1.553 1.635-3.023 3.339-4.532 5.01l-2.452 2.849-1.551-6.84c-.79-3.24-1.53-6.49-2.375-9.717-1.636-6.467-3.374-12.911-5.401-19.292.814 6.646 1.917 13.229 3.122 19.789.575 3.286 1.255 6.55 1.886 9.824l1.176 5.614a280.761 280.761 0 00-7.252-5.723c-3.589-2.725-7.246-5.369-11.095-7.785 3.046 3.372 6.284 6.516 9.59 9.578 2.574 2.381 5.2 4.7 7.86 6.98l-6.838 1.548c-3.239.792-6.49 1.528-9.717 2.375-6.467 1.635-12.911 3.374-19.291 5.405 6.647-.81 13.23-1.912 19.79-3.118 3.286-.574 6.549-1.258 9.824-1.887l5.611-1.177a281.805 281.805 0 00-5.721 7.249c-2.725 3.589-5.369 7.246-7.785 11.095 3.372-3.046 6.516-6.284 9.578-9.59 2.381-2.574 4.7-5.2 6.98-7.86l1.548 6.837c.792 3.239 1.528 6.49 2.375 9.717 1.635 6.467 3.374 12.911 5.405 19.291-.81-6.647-1.912-13.23-3.118-19.79-.574-3.286-1.258-6.549-1.887-9.824l-1.178-5.615 1.921 1.572c1.776 1.388 3.52 2.811 5.332 4.152zm278.436-261.618c0-1.035-14.138-1.885-32.266-1.989 7.38-7.53 12.677-13.55 12.241-13.986-.436-.436-6.456 4.861-13.986 12.241-.104-18.127-.955-32.266-1.989-32.266-1.034 0-1.885 14.138-1.989 32.266-7.53-7.38-13.55-12.676-13.986-12.241-.436.436 4.861 6.456 12.241 13.986-18.127.104-32.266.955-32.266 1.989s14.138 1.885 32.266 1.989c-7.38 7.53-12.676 13.55-12.241 13.986.436.436 6.456-4.861 13.986-12.241.104 18.127.955 32.266 1.989 32.266 1.035 0 1.886-14.138 1.989-32.266 7.53 7.38 13.55 12.676 13.986 12.241.436-.436-4.861-6.456-12.241-13.986 18.128-.103 32.266-.954 32.266-1.989zm-281.358.316l23.329-9.748-24.603 5.826 13.144-11.381-16.479 8.958-2.062-32.486-2.061 32.486-16.48-8.958 13.144 11.381-24.603-5.826 23.33 9.748-23.33 9.747 24.603-5.827-13.144 11.905 16.48-9.481 2.061 31.856 2.062-31.856 16.479 9.481-13.144-11.905 24.603 5.827zm-119.784 4.465l27.191-4.781-27.191-4.781 5.761-8.219-8.219 5.761-4.781-27.19-4.781 27.19-8.219-5.761 5.761 8.219-27.191 4.781 27.191 4.781-5.761 8.219 8.219-5.761 4.781 27.191 4.781-27.191 8.219 5.761zm246.267 130.138l9.939 2.851-8.861-4.611 20.786-2.091-21.15-2.127 9.044-5.012-9.526 3.005 13.219-16.176-16.46 13.451 2.852-9.939-4.612 8.861-2.09-20.786-2.127 21.15-5.012-9.044 3.005 9.526-16.176-13.219 13.451 16.459-9.939-2.851 8.861 4.612-20.786 2.09 21.15 2.127-9.044 5.012 9.526-3.005-13.219 16.176 16.459-13.451-2.851 9.939 4.611-8.861 2.091 20.786 2.127-21.15 5.012 9.044-3.005-9.526 16.176 13.219zm154.043-3.851c-5.861-1.671-11.723-2.508-17.584-3.134-2.698-.27-5.396-.466-8.095-.608 1.722-7.442 6.989-12.736 7.042-12.789-.053.053-5.347 5.32-12.789 7.042a172.22 172.22 0 00-.608-8.095c-.627-5.861-1.463-11.723-3.134-17.584-1.671 5.861-2.507 11.723-3.134 17.584-.28 2.801-.485 5.602-.627 8.403-3.63-.578-7.477-2.301-11.301-5.869 3.571 3.815 5.297 7.655 5.879 11.28-2.8.141-5.601.345-8.401.625-5.861.624-11.723 1.464-17.584 3.145 5.861 1.681 11.723 2.521 17.584 3.145 2.698.27 5.396.466 8.095.607-1.724 7.434-6.989 12.726-7.042 12.779.053-.053 5.345-5.318 12.779-7.042.141 2.698.337 5.396.607 8.095.624 5.861 1.465 11.723 3.145 17.584 1.681-5.861 2.521-11.723 3.145-17.584.28-2.8.484-5.601.625-8.401 3.625.582 7.465 2.308 11.28 5.879-3.568-3.824-5.291-7.67-5.869-11.301 2.801-.142 5.602-.346 8.403-.627 5.862-.626 11.723-1.463 17.584-3.134zM438.862 428.73c0 .145-.036 25.119-23.612 25.935 23.576.78 23.612 25.772 23.612 25.917 0-.145.036-25.137 23.612-25.917-23.576-.817-23.612-25.79-23.612-25.935zm-34.139-10.561c0 .102-.025 17.675-16.615 18.25 16.59.549 16.615 18.135 16.615 18.237 0-.102.026-17.688 16.615-18.237-16.589-.575-16.615-18.148-16.615-18.25zm21.535-20.655c0 .068-.017 11.711-11.008 12.091 10.991.364 11.008 12.015 11.008 12.083 0-.068.017-11.719 11.008-12.083-10.991-.38-11.008-12.023-11.008-12.091zm42.756 57.142c0 .052-.013 8.958-8.421 9.249 8.408.278 8.421 9.191 8.421 9.243 0-.052.013-8.964 8.421-9.243-8.408-.291-8.421-9.197-8.421-9.249zM59.078 285.519c0 25.97-6.837 34.905-29.933 34.905 23.203 0 29.933 8.936 29.933 34.905 0-25.97 9.744-34.905 29.949-34.905-19.991.001-29.949-8.935-29.949-34.905zm-13.556-20.513c0 11.761-3.097 15.808-13.556 15.808 10.508 0 13.556 4.047 13.556 15.808 0-11.761 4.413-15.808 13.563-15.808-9.053 0-13.563-4.047-13.563-15.808zm32.55 74.516c0 11.761-3.097 15.808-13.556 15.808 10.508 0 13.556 4.047 13.556 15.808 0-11.761 4.413-15.808 13.563-15.808-9.053 0-13.563-4.047-13.563-15.808zm-37.265-2.946c0 7.671-2.02 10.31-8.841 10.31 6.853 0 8.841 2.639 8.841 10.31 0-7.671 2.878-10.31 8.846-10.31-5.904 0-8.846-2.639-8.846-10.31zM76.14 287.08c0 5.064-1.333 6.806-5.837 6.806 4.524 0 5.837 1.742 5.837 6.806 0-5.064 1.9-6.806 5.84-6.806-3.898 0-5.84-1.742-5.84-6.806zm1.42 151.477a981.359 981.359 0 00-9.553-.018c3.45-.457 6.899-.918 10.344-1.406l8.938-1.287c2.975-.465 5.954-.896 8.925-1.392-3 .27-5.991.605-8.987.905l-8.974 1.01c-5.607.644-11.205 1.359-16.806 2.045 1.984-2.822 3.989-5.628 5.937-8.476 2.163-3.157 4.312-6.324 6.372-9.555-2.395 2.991-4.702 6.045-6.994 9.109-1.993 2.66-3.933 5.358-5.889 8.043-.064-5.221-.099-10.442-.206-15.663-.116-5.724-.248-11.447-.489-17.17-.171 5.725-.232 11.451-.277 17.175a953.084 953.084 0 00-.019 9.565c-.457-3.453-.918-6.906-1.409-10.356-.845-5.961-1.707-11.919-2.677-17.864.561 5.997 1.231 11.98 1.917 17.961.641 5.607 1.359 11.204 2.043 16.806-2.822-1.984-5.628-3.989-8.476-5.937-3.157-2.163-6.324-4.312-9.555-6.372 2.991 2.395 6.045 4.702 9.11 6.994 2.66 1.993 5.357 3.933 8.043 5.889-5.221.064-10.442.099-15.663.206-5.724.116-11.447.247-17.17.489 5.725.171 11.45.232 17.175.277 3.189.026 6.377.025 9.565.019-3.453.457-6.906.919-10.356 1.409-5.961.845-11.919 1.707-17.864 2.677 5.997-.561 11.98-1.231 17.961-1.917 5.607-.641 11.204-1.359 16.806-2.043-1.985 2.821-3.988 5.629-5.938 8.475l-3.228 4.748c-1.046 1.604-2.121 3.187-3.142 4.809 1.206-1.489 2.359-3.016 3.541-4.523l3.455-4.585c1.991-2.661 3.932-5.357 5.888-8.044.062 5.221.099 10.442.204 15.662l.193 8.586c.101 2.862.167 5.724.298 8.585.096-2.863.127-5.725.192-8.588l.086-8.587c.025-3.185.024-6.369.018-9.553.457 3.45.918 6.899 1.406 10.344l1.287 8.938c.465 2.975.896 5.954 1.392 8.925-.27-3-.605-5.991-.905-8.987l-1.01-8.974c-.644-5.607-1.359-11.204-2.045-16.805 2.821 1.985 5.629 3.988 8.475 5.938l4.747 3.228c1.604 1.046 3.188 2.121 4.809 3.142-1.489-1.206-3.017-2.359-4.524-3.541l-4.585-3.455c-2.661-1.991-5.357-3.932-8.044-5.888 5.221-.062 10.442-.099 15.663-.204l8.586-.193c2.862-.101 5.723-.167 8.585-.298-2.863-.096-5.725-.127-8.588-.192l-8.588-.086zm259.425-282.439c-29.503 27.576-44.477 15.567-44.477 15.567 9.005 16.51-8.158 36.185-13.745 41.935l-1.673 1.653c29.503-27.576 44.477-15.567 44.477-15.567-9.005-16.51 8.158-36.186 13.745-41.935l1.673-1.653zm-32.842-19.382c-12.546 11.726-18.913 6.62-18.913 6.62 3.829 7.021-3.469 15.387-5.845 17.832l-.712.703c12.546-11.726 18.913-6.62 18.913-6.62-3.829-7.021 3.469-15.387 5.845-17.832l.712-.703zm4.099 75.382c-12.546 11.726-18.913 6.62-18.913 6.62 3.829 7.021-3.469 15.388-5.845 17.832l-.712.703c12.546-11.726 18.913-6.62 18.913-6.62-3.829-7.021 3.469-15.387 5.845-17.832l.712-.703zm22.28-5.234c-8.367 7.821-12.614 4.415-12.614 4.415 2.554 4.682-2.314 10.262-3.898 11.893l-.475.469c8.367-7.82 12.614-4.415 12.614-4.415-2.554-4.682 2.314-10.262 3.898-11.893l.475-.469zm-10.814-56.862c-6.081 5.684-9.168 3.209-9.168 3.209 1.856 3.403-1.681 7.458-2.833 8.643l-.345.341c6.081-5.684 9.168-3.209 9.168-3.209-1.856-3.403 1.681-7.459 2.833-8.644l.345-.34zM63.933 67.716l24.707-1.951-24.871-1.963 22.27-23.685-23.823 22.399-1.826-33.024-1.831 33.117-13.656-12.33 12.204 13.515-24.967 1.971 24.584 1.941-21.983 23.708 23.455-21.748 2.194 32.372 2.203-32.506 13.284 11.72z" fill="#fff"/></svg>