<svg width="107" height="107" fill="none" xmlns="http://www.w3.org/2000/svg"><rect x="53.499" y=".852" width="74.085" height="74.085" rx="15.5" transform="rotate(45 53.5 .852)" fill="#0A0A0C" stroke="#1C1C1C"/><mask id="a" style="mask-type:alpha" maskUnits="userSpaceOnUse" x="29" y="28" width="49" height="49"><path fill="#D9D9D9" d="M29.438 28.844h48v48h-48z"/></mask><g mask="url(#a)"><path d="M57.434 69.544a.678.678 0 01-.5-.2.678.678 0 01-.2-.5.68.68 0 01.7-.7c2 0 3.717-.408 5.15-1.224 1.434-.817 2.15-1.843 2.15-3.076 0-.967-.466-1.833-1.4-2.6-.933-.767-2.25-1.367-3.95-1.8l1.15-1.1c1.834.533 3.226 1.283 4.176 2.25.95.967 1.424 2.05 1.424 3.25 0 1.8-.916 3.2-2.75 4.2-1.833 1-3.816 1.5-5.95 1.5zm-15.95-14.25c-1.6-.533-2.791-1.192-3.574-1.976-.784-.783-1.176-1.607-1.176-2.474 0-1.033.45-1.95 1.35-2.75.9-.8 2.567-1.733 5-2.8 2.2-.967 3.692-1.759 4.474-2.376.784-.616 1.176-1.307 1.176-2.074 0-.9-.474-1.675-1.424-2.326-.95-.65-2.242-.974-3.876-.974-.966 0-1.85.15-2.65.45-.8.3-1.483.733-2.05 1.3a.724.724 0 01-.45.224.796.796 0 01-.5-.124.68.68 0 01-.276-.476.72.72 0 01.176-.524c.467-.633 1.25-1.167 2.35-1.6a9.199 9.199 0 013.4-.65c1.967 0 3.576.45 4.826 1.35 1.25.9 1.874 2.017 1.874 3.35 0 1.067-.45 2.025-1.35 2.876-.9.85-2.616 1.807-5.15 2.874-2.1.9-3.541 1.667-4.324 2.3-.784.633-1.176 1.283-1.176 1.95 0 .633.367 1.241 1.1 1.824.734.584 1.85 1.11 3.35 1.576l-1.1 1.05zm24-9l-4.15-4.15 1.65-1.65c.434-.433.909-.659 1.426-.676.516-.016.991.193 1.424.626l1.35 1.35c.434.433.642.909.626 1.426-.017.516-.242.99-.676 1.424l-1.65 1.65zm-24.5 20.35h2.15l16.8-16.8-2.15-2.15-16.8 16.8v2.15zm-1.4 1.4v-4.15l18.2-18.2 4.15 4.15-18.2 18.2h-4.15z" fill="#E6E6E6"/></g></svg>