<svg width="49" height="49" fill="none" xmlns="http://www.w3.org/2000/svg"><mask id="a" style="mask-type:alpha" maskUnits="userSpaceOnUse" x="0" y="0" width="49" height="49"><path fill="#D9D9D9" d="M.333.159h48v48h-48z"/></mask><g mask="url(#a)"><path d="M5.233 34.66l-1.15-.85 8.4-13.45 6 7 7.9-12.8 3.7 5.6c-.266.066-.508.124-.724.174-.217.05-.442.109-.676.176l-2.25-3.35-7.7 12.55-6.05-7.05-7.45 12zm38.25 9.65l-7.05-6.95a6.637 6.637 0 01-1.85 1 6.31 6.31 0 01-2.1.35c-1.8 0-3.316-.617-4.55-1.85-1.233-1.234-1.85-2.75-1.85-4.55 0-1.8.617-3.317 1.85-4.55 1.234-1.234 2.75-1.85 4.55-1.85 1.8 0 3.317.616 4.55 1.85 1.234 1.233 1.85 2.75 1.85 4.55a6.29 6.29 0 01-.374 2.176 6.398 6.398 0 01-1.076 1.874l7.05 6.95-1 1zm-11-7c1.4 0 2.584-.484 3.55-1.45.967-.967 1.45-2.15 1.45-3.55s-.483-2.584-1.45-3.55c-.966-.967-2.15-1.45-3.55-1.45s-2.583.483-3.55 1.45c-.966.966-1.45 2.15-1.45 3.55s.484 2.583 1.45 3.55c.967.966 2.15 1.45 3.55 1.45zm3.45-16.9a14.35 14.35 0 00-.676-.176 7.839 7.839 0 00-.674-.124l8.85-14.1 1.15.85-8.65 13.55z" fill="#7949FF"/></g></svg>