<?xml version="1.0" encoding="utf-8"?><svg viewBox="0 0 25 25" xmlns="http://www.w3.org/2000/svg" xmlns:xlink="http://www.w3.org/1999/xlink"><style>:root>svg{display:none}:root>svg:target{display:block}</style><svg fill="none" viewBox="0 0 20 20" id="call" xmlns="http://www.w3.org/2000/svg"><mask id="aa" style="mask-type:alpha" maskUnits="userSpaceOnUse" x="0" y="0" width="20" height="20"><path fill="#D9D9D9" d="M0 0h20v20H0z"/></mask><g mask="url(#aa)"><path d="M16.625 17.5c-1.792 0-3.538-.4-5.24-1.198a15.872 15.872 0 0 1-4.52-3.167 15.87 15.87 0 0 1-3.167-4.52C2.9 6.912 2.5 5.166 2.5 3.374c0-.25.083-.458.25-.625a.848.848 0 0 1 .625-.25H6.75a.8.8 0 0 1 .52.188.733.733 0 0 1 .272.479l.541 2.916c.028.195.025.372-.01.531a.856.856 0 0 1-.24.428l-2 2.041a13.84 13.84 0 0 0 2.188 2.813c.875.875 1.84 1.632 2.896 2.27l1.958-1.958a1.17 1.17 0 0 1 .49-.281c.201-.063.399-.08.593-.052l2.875.583a.848.848 0 0 1 .48.281.762.762 0 0 1 .187.511v3.375c0 .25-.083.458-.25.625a.848.848 0 0 1-.625.25z" fill="#E6E6E6" fill-opacity=".51"/></g></svg><svg fill="none" viewBox="0 0 25 25" id="downloading" xmlns="http://www.w3.org/2000/svg"><mask id="ba" style="mask-type:alpha" maskUnits="userSpaceOnUse" x="0" y="0" width="25" height="25"><path fill="#D9D9D9" d="M.125.267h24v24h-24z"/></mask><g mask="url(#ba)"><path d="M11.1 22.217a9.685 9.685 0 0 1-3.537-1.063 10.093 10.093 0 0 1-2.838-2.199 10.195 10.195 0 0 1-1.887-3.063 9.761 9.761 0 0 1-.688-3.65c0-2.583.854-4.82 2.563-6.713 1.708-1.891 3.845-2.979 6.412-3.262v2c-2.017.283-3.683 1.18-5 2.687-1.317 1.509-1.975 3.271-1.975 5.288 0 2.017.658 3.78 1.975 5.287 1.317 1.509 2.975 2.405 4.975 2.688v2zm1-4.95-5.025-5.05L8.5 10.792l2.6 2.6V7.267h2v6.125l2.575-2.575 1.425 1.45-5 5zm1 4.95v-2a7.993 7.993 0 0 0 2.063-.575A8.634 8.634 0 0 0 17 18.567l1.45 1.45a10.765 10.765 0 0 1-2.525 1.488 9.92 9.92 0 0 1-2.825.712zm3.95-16.3a9.232 9.232 0 0 0-1.863-1.075 7.977 7.977 0 0 0-2.062-.575v-2c.983.1 1.925.337 2.825.712.9.375 1.733.871 2.5 1.488l-1.4 1.45zm2.8 12.65-1.4-1.425a7.884 7.884 0 0 0 1.05-1.838c.267-.658.45-1.345.55-2.062h2.05a11.767 11.767 0 0 1-.75 2.837 9.126 9.126 0 0 1-1.5 2.488zm.2-7.325a8.665 8.665 0 0 0-.55-2.063 7.892 7.892 0 0 0-1.05-1.837l1.4-1.425a9.649 9.649 0 0 1 1.525 2.487c.383.909.625 1.855.725 2.838h-2.05z" fill="#194BFD"/></g></svg><svg fill="none" viewBox="0 0 8 12" id="facebook" xmlns="http://www.w3.org/2000/svg"><path d="M4.931 12V6.535h1.844l.274-2.14H4.931V3.033c0-.618.173-1.04 1.059-1.04h1.122V.084A14.893 14.893 0 0 0 5.468 0c-1.63 0-2.749.995-2.749 2.821v1.57H.888v2.14h1.835V12h2.208z" fill="#E6E6E6"/></svg><svg fill="none" viewBox="0 0 12 12" id="in" xmlns="http://www.w3.org/2000/svg"><path fill-rule="evenodd" clip-rule="evenodd" d="M4.457 4.181h2.229v1.11c.32-.638 1.144-1.212 2.38-1.212C11.438 4.08 12 5.35 12 7.682V12H9.6V8.213c0-1.328-.321-2.077-1.138-2.077-1.134 0-1.605.807-1.605 2.076V12h-2.4V4.181zM.342 11.898h2.4V4.079h-2.4v7.819zM3.086 1.53a1.518 1.518 0 0 1-.452 1.081 1.554 1.554 0 0 1-2.183 0A1.529 1.529 0 0 1 0 1.53C0 1.124.162.735.452.448a1.55 1.55 0 0 1 2.182 0c.29.287.452.676.452 1.082z" fill="#E6E6E6"/></svg><svg fill="none" viewBox="0 0 20 20" id="location" xmlns="http://www.w3.org/2000/svg"><mask id="ea" style="mask-type:alpha" maskUnits="userSpaceOnUse" x="0" y="0" width="20" height="20"><path fill="#D9D9D9" d="M0 0h20v20H0z"/></mask><g mask="url(#ea)"><path d="M10 10c.458 0 .85-.163 1.178-.49.326-.326.489-.718.489-1.177 0-.458-.163-.85-.49-1.177A1.607 1.607 0 0 0 10 6.666c-.458 0-.85.164-1.177.49a1.61 1.61 0 0 0-.49 1.177c0 .459.164.851.49 1.177.326.327.719.49 1.177.49zm0 8.333c-2.236-1.902-3.906-3.67-5.01-5.302-1.104-1.632-1.657-3.142-1.657-4.53 0-2.084.67-3.744 2.011-4.98C6.684 2.285 8.236 1.667 10 1.667c1.764 0 3.316.618 4.656 1.854 1.34 1.236 2.01 2.896 2.01 4.98 0 1.388-.551 2.898-1.655 4.53-1.105 1.632-2.775 3.4-5.011 5.302z" fill="#E6E6E6" fill-opacity=".51"/></g></svg><svg fill="none" viewBox="0 0 20 20" id="send" xmlns="http://www.w3.org/2000/svg"><mask id="fa" style="mask-type:alpha" maskUnits="userSpaceOnUse" x="0" y="0" width="20" height="20"><path fill="#D9D9D9" d="M0 0h20v20H0z"/></mask><g mask="url(#fa)"><path d="M2.5 16.667v-5L9.167 10 2.5 8.333v-5L18.333 10 2.5 16.667z" fill="#E6E6E6" fill-opacity=".51"/></g></svg><svg viewBox="0 0 25 25" id="sprite" xmlns="http://www.w3.org/2000/svg"><style>:root&gt;svgdisplay:none}:root&gt;svg:targetdisplay:block}</style><svg fill="none" viewBox="0 0 25 25" id="gdownloading"><mask id="gaa" style="mask-type:alpha" maskUnits="userSpaceOnUse" x="0" y="0" width="25" height="25"><path fill="#D9D9D9" d="M.125.267h24v24h-24z"/></mask><g mask="url(#gaa)"><path d="M11.1 22.217a9.685 9.685 0 0 1-3.537-1.063 10.093 10.093 0 0 1-2.838-2.199 10.195 10.195 0 0 1-1.887-3.063 9.761 9.761 0 0 1-.688-3.65c0-2.583.854-4.82 2.563-6.713 1.708-1.891 3.845-2.979 6.412-3.262v2c-2.017.283-3.683 1.18-5 2.687-1.317 1.509-1.975 3.271-1.975 5.288 0 2.017.658 3.78 1.975 5.287 1.317 1.509 2.975 2.405 4.975 2.688v2zm1-4.95-5.025-5.05L8.5 10.792l2.6 2.6V7.267h2v6.125l2.575-2.575 1.425 1.45-5 5zm1 4.95v-2a7.993 7.993 0 0 0 2.063-.575A8.634 8.634 0 0 0 17 18.567l1.45 1.45a10.765 10.765 0 0 1-2.525 1.488 9.92 9.92 0 0 1-2.825.712zm3.95-16.3a9.232 9.232 0 0 0-1.863-1.075 7.977 7.977 0 0 0-2.062-.575v-2c.983.1 1.925.337 2.825.712.9.375 1.733.871 2.5 1.488l-1.4 1.45zm2.8 12.65-1.4-1.425a7.884 7.884 0 0 0 1.05-1.838c.267-.658.45-1.345.55-2.062h2.05a11.767 11.767 0 0 1-.75 2.837 9.126 9.126 0 0 1-1.5 2.488zm.2-7.325a8.665 8.665 0 0 0-.55-2.063 7.892 7.892 0 0 0-1.05-1.837l1.4-1.425a9.649 9.649 0 0 1 1.525 2.487c.383.909.625 1.855.725 2.838h-2.05z" fill="#194BFD"/></g></svg><svg viewBox="0 0 25 25" id="gsprite"><svg fill="none" viewBox="0 0 25 25" id="gbdownloading"><mask id="gbaa" style="mask-type:alpha" maskUnits="userSpaceOnUse" x="0" y="0" width="25" height="25"><path fill="#D9D9D9" d="M.125.267h24v24h-24z"/></mask><g mask="url(#gbaa)"><path d="M11.1 22.217a9.685 9.685 0 0 1-3.537-1.063 10.093 10.093 0 0 1-2.838-2.199 10.195 10.195 0 0 1-1.887-3.063 9.761 9.761 0 0 1-.688-3.65c0-2.583.854-4.82 2.563-6.713 1.708-1.891 3.845-2.979 6.412-3.262v2c-2.017.283-3.683 1.18-5 2.687-1.317 1.509-1.975 3.271-1.975 5.288 0 2.017.658 3.78 1.975 5.287 1.317 1.509 2.975 2.405 4.975 2.688v2zm1-4.95-5.025-5.05L8.5 10.792l2.6 2.6V7.267h2v6.125l2.575-2.575 1.425 1.45-5 5zm1 4.95v-2a7.993 7.993 0 0 0 2.063-.575A8.634 8.634 0 0 0 17 18.567l1.45 1.45a10.765 10.765 0 0 1-2.525 1.488 9.92 9.92 0 0 1-2.825.712zm3.95-16.3a9.232 9.232 0 0 0-1.863-1.075 7.977 7.977 0 0 0-2.062-.575v-2c.983.1 1.925.337 2.825.712.9.375 1.733.871 2.5 1.488l-1.4 1.45zm2.8 12.65-1.4-1.425a7.884 7.884 0 0 0 1.05-1.838c.267-.658.45-1.345.55-2.062h2.05a11.767 11.767 0 0 1-.75 2.837 9.126 9.126 0 0 1-1.5 2.488zm.2-7.325a8.665 8.665 0 0 0-.55-2.063 7.892 7.892 0 0 0-1.05-1.837l1.4-1.425a9.649 9.649 0 0 1 1.525 2.487c.383.909.625 1.855.725 2.838h-2.05z" fill="#194BFD"/></g></svg><svg viewBox="0 0 25 25" id="gbsprite"><svg fill="none" viewBox="0 0 25 25" id="gbbdownloading"><mask id="gbbaa" style="mask-type:alpha" maskUnits="userSpaceOnUse" x="0" y="0" width="25" height="25"><path fill="#D9D9D9" d="M.125.267h24v24h-24z"/></mask><g mask="url(#gbbaa)"><path d="M11.1 22.217a9.685 9.685 0 0 1-3.537-1.063 10.093 10.093 0 0 1-2.838-2.199 10.195 10.195 0 0 1-1.887-3.063 9.761 9.761 0 0 1-.688-3.65c0-2.583.854-4.82 2.563-6.713 1.708-1.891 3.845-2.979 6.412-3.262v2c-2.017.283-3.683 1.18-5 2.687-1.317 1.509-1.975 3.271-1.975 5.288 0 2.017.658 3.78 1.975 5.287 1.317 1.509 2.975 2.405 4.975 2.688v2zm1-4.95-5.025-5.05L8.5 10.792l2.6 2.6V7.267h2v6.125l2.575-2.575 1.425 1.45-5 5zm1 4.95v-2a7.993 7.993 0 0 0 2.063-.575A8.634 8.634 0 0 0 17 18.567l1.45 1.45a10.765 10.765 0 0 1-2.525 1.488 9.92 9.92 0 0 1-2.825.712zm3.95-16.3a9.232 9.232 0 0 0-1.863-1.075 7.977 7.977 0 0 0-2.062-.575v-2c.983.1 1.925.337 2.825.712.9.375 1.733.871 2.5 1.488l-1.4 1.45zm2.8 12.65-1.4-1.425a7.884 7.884 0 0 0 1.05-1.838c.267-.658.45-1.345.55-2.062h2.05a11.767 11.767 0 0 1-.75 2.837 9.126 9.126 0 0 1-1.5 2.488zm.2-7.325a8.665 8.665 0 0 0-.55-2.063 7.892 7.892 0 0 0-1.05-1.837l1.4-1.425a9.649 9.649 0 0 1 1.525 2.487c.383.909.625 1.855.725 2.838h-2.05z" fill="#194BFD"/></g></svg><svg viewBox="0 0 25 25" id="gbbsprite"><svg fill="none" viewBox="0 0 25 25" id="gbbbdownloading"><mask id="gbbbaa" style="mask-type:alpha" maskUnits="userSpaceOnUse" x="0" y="0" width="25" height="25"><path fill="#D9D9D9" d="M.125.267h24v24h-24z"/></mask><g mask="url(#gbbbaa)"><path d="M11.1 22.217a9.685 9.685 0 0 1-3.537-1.063 10.093 10.093 0 0 1-2.838-2.199 10.195 10.195 0 0 1-1.887-3.063 9.761 9.761 0 0 1-.688-3.65c0-2.583.854-4.82 2.563-6.713 1.708-1.891 3.845-2.979 6.412-3.262v2c-2.017.283-3.683 1.18-5 2.687-1.317 1.509-1.975 3.271-1.975 5.288 0 2.017.658 3.78 1.975 5.287 1.317 1.509 2.975 2.405 4.975 2.688v2zm1-4.95-5.025-5.05L8.5 10.792l2.6 2.6V7.267h2v6.125l2.575-2.575 1.425 1.45-5 5zm1 4.95v-2a7.993 7.993 0 0 0 2.063-.575A8.634 8.634 0 0 0 17 18.567l1.45 1.45a10.765 10.765 0 0 1-2.525 1.488 9.92 9.92 0 0 1-2.825.712zm3.95-16.3a9.232 9.232 0 0 0-1.863-1.075 7.977 7.977 0 0 0-2.062-.575v-2c.983.1 1.925.337 2.825.712.9.375 1.733.871 2.5 1.488l-1.4 1.45zm2.8 12.65-1.4-1.425a7.884 7.884 0 0 0 1.05-1.838c.267-.658.45-1.345.55-2.062h2.05a11.767 11.767 0 0 1-.75 2.837 9.126 9.126 0 0 1-1.5 2.488zm.2-7.325a8.665 8.665 0 0 0-.55-2.063 7.892 7.892 0 0 0-1.05-1.837l1.4-1.425a9.649 9.649 0 0 1 1.525 2.487c.383.909.625 1.855.725 2.838h-2.05z" fill="#194BFD"/></g></svg></svg></svg><svg fill="none" viewBox="0 0 18 12" id="gbyoutube"><path d="M17.273 5.948c0-.04 0-.087-.002-.14-.001-.15-.005-.318-.009-.497a27.76 27.76 0 0 0-.081-1.512c-.055-.667-.137-1.223-.248-1.64a2.576 2.576 0 0 0-1.815-1.82C14.596.2 13.572.114 12.132.06A86.846 86.846 0 0 0 9.981.007L9.27 0h-.54l-.71.007a89.93 89.93 0 0 0-2.151.052c-1.44.055-2.465.142-2.986.28a2.573 2.573 0 0 0-1.816 1.82c-.112.417-.192.973-.247 1.64-.04.484-.066.997-.081 1.512-.006.18-.008.347-.01.497l-.001.14v.104c0 .04 0 .087.002.14.001.15.005.318.009.497.015.515.04 1.028.081 1.512.055.667.137 1.223.247 1.64a2.576 2.576 0 0 0 1.816 1.82c.52.14 1.546.226 2.986.28a89.93 89.93 0 0 0 2.151.052l.71.007h.542l.71-.007a86.46 86.46 0 0 0 2.151-.052c1.44-.056 2.465-.142 2.986-.28a2.57 2.57 0 0 0 1.815-1.82c.113-.417.193-.973.248-1.64.04-.484.066-.997.081-1.512.006-.18.008-.347.01-.497l.001-.14v-.104zm-1.33.096-.001.131c-.002.144-.006.303-.01.475-.012.491-.038.982-.077 1.439-.05.594-.12 1.082-.207 1.409-.114.426-.45.764-.875.877-.388.103-1.365.186-2.693.236a84.465 84.465 0 0 1-2.816.057h-.528l-.698-.005a84.684 84.684 0 0 1-2.118-.052c-1.328-.051-2.307-.133-2.693-.236a1.246 1.246 0 0 1-.875-.877c-.087-.327-.157-.815-.207-1.41a26.757 26.757 0 0 1-.078-1.438c-.005-.172-.007-.332-.009-.475l-.002-.13v-.09c0-.038 0-.08.002-.13.002-.144.006-.303.01-.475.012-.491.038-.982.077-1.439.05-.594.12-1.082.207-1.409.114-.426.45-.764.875-.877.388-.103 1.365-.186 2.693-.236a83.898 83.898 0 0 1 2.816-.058h.528l.698.006c.722.01 1.444.026 2.118.052 1.328.051 2.307.133 2.693.236.425.115.76.45.875.877.087.327.157.815.207 1.41.039.455.063.947.078 1.438.005.172.007.332.009.475l.002.13v.09zm-8.587 2.43 4.285-2.492-4.285-2.457v4.95z" fill="#E6E6E6"/></svg></svg><svg fill="none" viewBox="0 0 18 12" id="gyoutube"><path d="M17.273 5.948c0-.04 0-.087-.002-.14-.001-.15-.005-.318-.009-.497a27.76 27.76 0 0 0-.081-1.512c-.055-.667-.137-1.223-.248-1.64a2.576 2.576 0 0 0-1.815-1.82C14.596.2 13.572.114 12.132.06A86.846 86.846 0 0 0 9.981.007L9.27 0h-.54l-.71.007a89.93 89.93 0 0 0-2.151.052c-1.44.055-2.465.142-2.986.28a2.573 2.573 0 0 0-1.816 1.82c-.112.417-.192.973-.247 1.64-.04.484-.066.997-.081 1.512-.006.18-.008.347-.01.497l-.001.14v.104c0 .04 0 .087.002.14.001.15.005.318.009.497.015.515.04 1.028.081 1.512.055.667.137 1.223.247 1.64a2.576 2.576 0 0 0 1.816 1.82c.52.14 1.546.226 2.986.28a89.93 89.93 0 0 0 2.151.052l.71.007h.542l.71-.007a86.46 86.46 0 0 0 2.151-.052c1.44-.056 2.465-.142 2.986-.28a2.57 2.57 0 0 0 1.815-1.82c.113-.417.193-.973.248-1.64.04-.484.066-.997.081-1.512.006-.18.008-.347.01-.497l.001-.14v-.104zm-1.33.096-.001.131c-.002.144-.006.303-.01.475-.012.491-.038.982-.077 1.439-.05.594-.12 1.082-.207 1.409-.114.426-.45.764-.875.877-.388.103-1.365.186-2.693.236a84.465 84.465 0 0 1-2.816.057h-.528l-.698-.005a84.684 84.684 0 0 1-2.118-.052c-1.328-.051-2.307-.133-2.693-.236a1.246 1.246 0 0 1-.875-.877c-.087-.327-.157-.815-.207-1.41a26.757 26.757 0 0 1-.078-1.438c-.005-.172-.007-.332-.009-.475l-.002-.13v-.09c0-.038 0-.08.002-.13.002-.144.006-.303.01-.475.012-.491.038-.982.077-1.439.05-.594.12-1.082.207-1.409.114-.426.45-.764.875-.877.388-.103 1.365-.186 2.693-.236a83.898 83.898 0 0 1 2.816-.058h.528l.698.006c.722.01 1.444.026 2.118.052 1.328.051 2.307.133 2.693.236.425.115.76.45.875.877.087.327.157.815.207 1.41.039.455.063.947.078 1.438.005.172.007.332.009.475l.002.13v.09zm-8.587 2.43 4.285-2.492-4.285-2.457v4.95z" fill="#E6E6E6"/></svg></svg><svg fill="none" viewBox="0 0 8 12" id="telegram" xmlns="http://www.w3.org/2000/svg"><path d="M7.657 11.333V9.426c-.618.413-1.219.618-1.802.618-.275 0-.583-.087-.927-.256-.206-.14-.327-.292-.363-.464-.101-.207-.164-.654-.164-1.342V4.944h2.77V3.098H4.4V0H2.765c-.137.722-.275 1.235-.413 1.544-.17.379-.445.722-.823 1.03-.35.295-.752.522-1.186.67v1.7h1.289v4.173c0 .48.067.89.206 1.234.102.275.308.55.62.825.238.242.582.447 1.028.618.55.139 1.029.206 1.442.206.48 0 .927-.052 1.339-.154a5.304 5.304 0 0 0 1.39-.513z" fill="#E6E6E6"/></svg><svg fill="none" viewBox="0 0 18 12" id="youtube" xmlns="http://www.w3.org/2000/svg"><path d="M17.273 5.948c0-.04 0-.087-.002-.14-.001-.15-.005-.318-.009-.497a27.76 27.76 0 0 0-.081-1.512c-.055-.667-.137-1.223-.248-1.64a2.576 2.576 0 0 0-1.815-1.82C14.596.2 13.572.114 12.132.06A86.846 86.846 0 0 0 9.981.007L9.27 0h-.54l-.71.007a89.93 89.93 0 0 0-2.151.052c-1.44.055-2.465.142-2.986.28a2.573 2.573 0 0 0-1.816 1.82c-.112.417-.192.973-.247 1.64-.04.484-.066.997-.081 1.512-.006.18-.008.347-.01.497l-.001.14v.104c0 .04 0 .087.002.14.001.15.005.318.009.497.015.515.04 1.028.081 1.512.055.667.137 1.223.247 1.64a2.576 2.576 0 0 0 1.816 1.82c.52.14 1.546.226 2.986.28a89.93 89.93 0 0 0 2.151.052l.71.007h.542l.71-.007a86.46 86.46 0 0 0 2.151-.052c1.44-.056 2.465-.142 2.986-.28a2.57 2.57 0 0 0 1.815-1.82c.113-.417.193-.973.248-1.64.04-.484.066-.997.081-1.512.006-.18.008-.347.01-.497l.001-.14v-.104zm-1.33.096-.001.131c-.002.144-.006.303-.01.475-.012.491-.038.982-.077 1.439-.05.594-.12 1.082-.207 1.409-.114.426-.45.764-.875.877-.388.103-1.365.186-2.693.236a84.465 84.465 0 0 1-2.816.057h-.528l-.698-.005a84.684 84.684 0 0 1-2.118-.052c-1.328-.051-2.307-.133-2.693-.236a1.246 1.246 0 0 1-.875-.877c-.087-.327-.157-.815-.207-1.41a26.757 26.757 0 0 1-.078-1.438c-.005-.172-.007-.332-.009-.475l-.002-.13v-.09c0-.038 0-.08.002-.13.002-.144.006-.303.01-.475.012-.491.038-.982.077-1.439.05-.594.12-1.082.207-1.409.114-.426.45-.764.875-.877.388-.103 1.365-.186 2.693-.236a83.898 83.898 0 0 1 2.816-.058h.528l.698.006c.722.01 1.444.026 2.118.052 1.328.051 2.307.133 2.693.236.425.115.76.45.875.877.087.327.157.815.207 1.41.039.455.063.947.078 1.438.005.172.007.332.009.475l.002.13v.09zm-8.587 2.43 4.285-2.492-4.285-2.457v4.95z" fill="#E6E6E6"/></svg></svg>