<?xml version="1.0" encoding="utf-8"?><svg viewBox="0 0 59 60" xmlns="http://www.w3.org/2000/svg" xmlns:xlink="http://www.w3.org/1999/xlink"><style>:root>svg{display:none}:root>svg:target{display:block}</style><svg fill="none" viewBox="0 0 32 16" id="Arrow" xmlns="http://www.w3.org/2000/svg"><path d="M31.41 8.394a1 1 0 0 0 0-1.414L25.046.616a1 1 0 1 0-1.414 1.414l5.657 5.657-5.657 5.657a1 1 0 1 0 1.414 1.414l6.364-6.364zM.375 8.687h30.328v-2H.375v2z" fill="#FDFDFD"/></svg><svg fill="none" viewBox="0 0 59 60" id="Subtract" xmlns="http://www.w3.org/2000/svg"><path fill-rule="evenodd" clip-rule="evenodd" d="M29.423 59.322a29.398 29.398 0 0 1-4.48-.387L.85 34.843a29.398 29.398 0 0 1-.386-4.48l28.96 28.96zM9.027 50.758a29.13 29.13 0 0 1-6.852-10.797l17.65 17.65a29.13 29.13 0 0 1-10.798-6.853zm24.003 8.377a29.325 29.325 0 0 0 3.495-.613L1.264 23.262a29.318 29.318 0 0 0-.613 3.494l32.379 32.38zm9.318-2.677a29.03 29.03 0 0 1-2.894 1.2L2.128 20.331c.346-.98.746-1.947 1.2-2.894l39.02 39.021zm2.464-1.33a29.109 29.109 0 0 0 2.45-1.657L6.315 12.523a29.119 29.119 0 0 0-1.656 2.451l40.154 40.154zm5.572-4.37c-.342.342-.69.674-1.045.996L8.032 10.447a29.738 29.738 0 0 1 2.045-2.045l41.307 41.306c-.323.357-.656.707-1 1.05zm2.717-3.126a29.106 29.106 0 0 0 1.652-2.445L14.599 5.033a29.13 29.13 0 0 0-2.445 1.652l40.947 40.947zm4.182-7.8c-.346.98-.746 1.946-1.2 2.892L17.063 3.702a29.057 29.057 0 0 1 2.892-1.199l37.329 37.33zm.864-2.93c.275-1.153.48-2.32.614-3.493L26.377 1.025c-1.173.134-2.34.339-3.494.614l35.264 35.264zm.412-11.596c.245 1.488.375 2.992.39 4.497L29.982.838c1.505.014 3.009.143 4.497.388l24.08 24.08zm-1.327-5.122a29.13 29.13 0 0 0-6.848-10.782 29.13 29.13 0 0 0-10.783-6.848l17.63 17.63z" fill="#212122"/></svg><svg fill="none" viewBox="0 0 53 53" id="Subtract_pfuolet" xmlns="http://www.w3.org/2000/svg"><path fill-rule="evenodd" clip-rule="evenodd" d="M52.846 26.824a26.077 26.077 0 0 1-.343 3.98L31.124 52.182c-1.318.216-2.648.33-3.98.343l25.7-25.701zm-7.6 18.102a25.847 25.847 0 0 1-9.58 6.08l15.661-15.66a25.849 25.849 0 0 1-6.08 9.58zm7.433-21.302a26.018 26.018 0 0 0-.543-3.093L20.852 51.816c1.021.243 2.054.424 3.093.542L52.68 23.624zm-2.375-8.266c.404.842.759 1.7 1.066 2.573L18.252 51.049a25.79 25.79 0 0 1-2.573-1.066l34.625-34.625zm-1.18-2.186a25.838 25.838 0 0 0-1.467-2.17L11.324 47.337c.703.53 1.427 1.018 2.17 1.467l35.63-35.63zM45.246 8.23c.305.305.6.615.886.931L9.481 45.813a26.405 26.405 0 0 1-1.817-1.817L44.317 7.343c.315.286.625.582.93.886zm-2.773-2.41a25.682 25.682 0 0 0-2.172-1.467l-35.63 35.63c.45.742.939 1.467 1.468 2.171L42.474 5.82zm-6.927-3.713c.871.308 1.729.662 2.57 1.065L3.491 37.795a25.797 25.797 0 0 1-1.065-2.568l33.12-33.12zm-2.6-.766a26.017 26.017 0 0 0-3.094-.543L1.118 29.532c.118 1.04.3 2.073.543 3.095L32.947 1.34zM22.673.973a26.085 26.085 0 0 1 3.98-.343L.952 26.333c.013-1.332.127-2.663.343-3.981L22.673.973zm-4.541 1.175A25.848 25.848 0 0 0 8.55 8.23a25.849 25.849 0 0 0-6.08 9.582L18.131 2.148z" fill="#AD13FB"/></svg><svg fill="none" viewBox="0 0 47 47" id="blue" xmlns="http://www.w3.org/2000/svg"><path d="M10.097.142C17.485 12.938 13.1 29.299.305 36.687c12.795-7.388 29.157-3.005 36.545 9.792-7.388-12.797-3.004-29.158 9.792-36.545C33.846 17.32 17.485 12.938 10.097.142z" fill="url(#ba)"/><defs><linearGradient id="ba" x1="39.005" y1="-25.793" x2="77.962" y2="52.883" gradientUnits="userSpaceOnUse"><stop stop-color="#194BFD"/><stop offset="1" stop-color="#AD13FB"/></linearGradient></defs></svg><svg fill="none" viewBox="0 0 20 20" id="call" xmlns="http://www.w3.org/2000/svg"><mask id="ca" style="mask-type:alpha" maskUnits="userSpaceOnUse" x="0" y="0" width="20" height="20"><path fill="#D9D9D9" d="M0 0h20v20H0z"/></mask><g mask="url(#ca)"><path d="M16.625 17.5c-1.792 0-3.538-.4-5.24-1.198a15.872 15.872 0 0 1-4.52-3.167 15.87 15.87 0 0 1-3.167-4.52C2.9 6.912 2.5 5.166 2.5 3.374c0-.25.083-.458.25-.625a.848.848 0 0 1 .625-.25H6.75a.8.8 0 0 1 .52.188.733.733 0 0 1 .272.479l.541 2.916c.028.195.025.372-.01.531a.856.856 0 0 1-.24.428l-2 2.041a13.84 13.84 0 0 0 2.188 2.813c.875.875 1.84 1.632 2.896 2.27l1.958-1.958a1.17 1.17 0 0 1 .49-.281c.201-.063.399-.08.593-.052l2.875.583a.848.848 0 0 1 .48.281.762.762 0 0 1 .187.511v3.375c0 .25-.083.458-.25.625a.848.848 0 0 1-.625.25z" fill="#E6E6E6" fill-opacity=".51"/></g></svg><svg fill="none" viewBox="0 0 25 25" id="downloading" xmlns="http://www.w3.org/2000/svg"><mask id="da" style="mask-type:alpha" maskUnits="userSpaceOnUse" x="0" y="0" width="25" height="25"><path fill="#D9D9D9" d="M.125.267h24v24h-24z"/></mask><g mask="url(#da)"><path d="M11.1 22.217a9.685 9.685 0 0 1-3.537-1.063 10.093 10.093 0 0 1-2.838-2.199 10.195 10.195 0 0 1-1.887-3.063 9.761 9.761 0 0 1-.688-3.65c0-2.583.854-4.82 2.563-6.713 1.708-1.891 3.845-2.979 6.412-3.262v2c-2.017.283-3.683 1.18-5 2.687-1.317 1.509-1.975 3.271-1.975 5.288 0 2.017.658 3.78 1.975 5.287 1.317 1.509 2.975 2.405 4.975 2.688v2zm1-4.95-5.025-5.05L8.5 10.792l2.6 2.6V7.267h2v6.125l2.575-2.575 1.425 1.45-5 5zm1 4.95v-2a7.993 7.993 0 0 0 2.063-.575A8.634 8.634 0 0 0 17 18.567l1.45 1.45a10.765 10.765 0 0 1-2.525 1.488 9.92 9.92 0 0 1-2.825.712zm3.95-16.3a9.232 9.232 0 0 0-1.863-1.075 7.977 7.977 0 0 0-2.062-.575v-2c.983.1 1.925.337 2.825.712.9.375 1.733.871 2.5 1.488l-1.4 1.45zm2.8 12.65-1.4-1.425a7.884 7.884 0 0 0 1.05-1.838c.267-.658.45-1.345.55-2.062h2.05a11.767 11.767 0 0 1-.75 2.837 9.126 9.126 0 0 1-1.5 2.488zm.2-7.325a8.665 8.665 0 0 0-.55-2.063 7.892 7.892 0 0 0-1.05-1.837l1.4-1.425a9.649 9.649 0 0 1 1.525 2.487c.383.909.625 1.855.725 2.838h-2.05z" fill="#194BFD"/></g></svg><svg fill="none" viewBox="0 0 8 12" id="facebook" xmlns="http://www.w3.org/2000/svg"><path d="M4.931 12V6.535h1.844l.274-2.14H4.931V3.033c0-.618.173-1.04 1.059-1.04h1.122V.084A14.893 14.893 0 0 0 5.468 0c-1.63 0-2.749.995-2.749 2.821v1.57H.888v2.14h1.835V12h2.208z" fill="#E6E6E6"/></svg><svg fill="none" viewBox="0 0 12 12" id="in" xmlns="http://www.w3.org/2000/svg"><path fill-rule="evenodd" clip-rule="evenodd" d="M4.457 4.181h2.229v1.11c.32-.638 1.144-1.212 2.38-1.212C11.438 4.08 12 5.35 12 7.682V12H9.6V8.213c0-1.328-.321-2.077-1.138-2.077-1.134 0-1.605.807-1.605 2.076V12h-2.4V4.181zM.342 11.898h2.4V4.079h-2.4v7.819zM3.086 1.53a1.518 1.518 0 0 1-.452 1.081 1.554 1.554 0 0 1-2.183 0A1.529 1.529 0 0 1 0 1.53C0 1.124.162.735.452.448a1.55 1.55 0 0 1 2.182 0c.29.287.452.676.452 1.082z" fill="#E6E6E6"/></svg><svg fill="currentColor" class="gbi gbi-list" viewBox="0 0 16 16" id="list" xmlns="http://www.w3.org/2000/svg"><path fill-rule="evenodd" d="M2.5 12a.5.5 0 0 1 .5-.5h10a.5.5 0 0 1 0 1H3a.5.5 0 0 1-.5-.5m0-4a.5.5 0 0 1 .5-.5h10a.5.5 0 0 1 0 1H3a.5.5 0 0 1-.5-.5m0-4a.5.5 0 0 1 .5-.5h10a.5.5 0 0 1 0 1H3a.5.5 0 0 1-.5-.5"/></svg><svg fill="none" viewBox="0 0 20 20" id="location" xmlns="http://www.w3.org/2000/svg"><mask id="ha" style="mask-type:alpha" maskUnits="userSpaceOnUse" x="0" y="0" width="20" height="20"><path fill="#D9D9D9" d="M0 0h20v20H0z"/></mask><g mask="url(#ha)"><path d="M10 10c.458 0 .85-.163 1.178-.49.326-.326.489-.718.489-1.177 0-.458-.163-.85-.49-1.177A1.607 1.607 0 0 0 10 6.666c-.458 0-.85.164-1.177.49a1.61 1.61 0 0 0-.49 1.177c0 .459.164.851.49 1.177.326.327.719.49 1.177.49zm0 8.333c-2.236-1.902-3.906-3.67-5.01-5.302-1.104-1.632-1.657-3.142-1.657-4.53 0-2.084.67-3.744 2.011-4.98C6.684 2.285 8.236 1.667 10 1.667c1.764 0 3.316.618 4.656 1.854 1.34 1.236 2.01 2.896 2.01 4.98 0 1.388-.551 2.898-1.655 4.53-1.105 1.632-2.775 3.4-5.011 5.302z" fill="#E6E6E6" fill-opacity=".51"/></g></svg><svg fill="none" viewBox="0 0 53 53" id="purple" xmlns="http://www.w3.org/2000/svg"><path fill-rule="evenodd" clip-rule="evenodd" d="M52.846 26.824a26.077 26.077 0 0 1-.343 3.98L31.124 52.182c-1.318.216-2.648.33-3.98.343l25.7-25.701zm-7.6 18.102a25.847 25.847 0 0 1-9.58 6.08l15.661-15.66a25.849 25.849 0 0 1-6.08 9.58zm7.433-21.302a26.018 26.018 0 0 0-.543-3.093L20.852 51.816c1.021.243 2.054.424 3.093.542L52.68 23.624zm-2.375-8.266c.404.842.759 1.7 1.066 2.573L18.252 51.049a25.79 25.79 0 0 1-2.573-1.066l34.625-34.625zm-1.18-2.186a25.838 25.838 0 0 0-1.467-2.17L11.324 47.337c.703.53 1.427 1.018 2.17 1.467l35.63-35.63zM45.246 8.23c.305.305.6.615.886.931L9.481 45.813a26.405 26.405 0 0 1-1.817-1.817L44.317 7.343c.315.286.625.582.93.886zm-2.773-2.41a25.682 25.682 0 0 0-2.172-1.467l-35.63 35.63c.45.742.939 1.467 1.468 2.171L42.474 5.82zm-6.927-3.713c.871.308 1.729.662 2.57 1.065L3.491 37.795a25.797 25.797 0 0 1-1.065-2.568l33.12-33.12zm-2.6-.766a26.017 26.017 0 0 0-3.094-.543L1.118 29.532c.118 1.04.3 2.073.543 3.095L32.947 1.34zM22.673.973a26.085 26.085 0 0 1 3.98-.343L.952 26.333c.013-1.332.127-2.663.343-3.981L22.673.973zm-4.541 1.175A25.848 25.848 0 0 0 8.55 8.23a25.849 25.849 0 0 0-6.08 9.582L18.131 2.148z" fill="#AD13FB"/></svg><svg fill="none" viewBox="0 0 20 20" id="send" xmlns="http://www.w3.org/2000/svg"><mask id="ja" style="mask-type:alpha" maskUnits="userSpaceOnUse" x="0" y="0" width="20" height="20"><path fill="#D9D9D9" d="M0 0h20v20H0z"/></mask><g mask="url(#ja)"><path d="M2.5 16.667v-5L9.167 10 2.5 8.333v-5L18.333 10 2.5 16.667z" fill="#E6E6E6" fill-opacity=".51"/></g></svg><svg viewBox="0 0 59 60" id="sprite" xmlns="http://www.w3.org/2000/svg"><style>:root&gt;svgdisplay:none}:root&gt;svg:targetdisplay:block}</style><svg fill="none" viewBox="0 0 32 16" id="kArrow"><path d="M31.41 8.394a1 1 0 0 0 0-1.414L25.046.616a1 1 0 1 0-1.414 1.414l5.657 5.657-5.657 5.657a1 1 0 1 0 1.414 1.414l6.364-6.364zM.375 8.687h30.328v-2H.375v2z" fill="#FDFDFD"/></svg><svg fill="none" viewBox="0 0 59 60" id="kSubtract"><path fill-rule="evenodd" clip-rule="evenodd" d="M29.423 59.322a29.398 29.398 0 0 1-4.48-.387L.85 34.843a29.398 29.398 0 0 1-.386-4.48l28.96 28.96zM9.027 50.758a29.13 29.13 0 0 1-6.852-10.797l17.65 17.65a29.13 29.13 0 0 1-10.798-6.853zm24.003 8.377a29.325 29.325 0 0 0 3.495-.613L1.264 23.262a29.318 29.318 0 0 0-.613 3.494l32.379 32.38zm9.318-2.677a29.03 29.03 0 0 1-2.894 1.2L2.128 20.331c.346-.98.746-1.947 1.2-2.894l39.02 39.021zm2.464-1.33a29.109 29.109 0 0 0 2.45-1.657L6.315 12.523a29.119 29.119 0 0 0-1.656 2.451l40.154 40.154zm5.572-4.37c-.342.342-.69.674-1.045.996L8.032 10.447a29.738 29.738 0 0 1 2.045-2.045l41.307 41.306c-.323.357-.656.707-1 1.05zm2.717-3.126a29.106 29.106 0 0 0 1.652-2.445L14.599 5.033a29.13 29.13 0 0 0-2.445 1.652l40.947 40.947zm4.182-7.8c-.346.98-.746 1.946-1.2 2.892L17.063 3.702a29.057 29.057 0 0 1 2.892-1.199l37.329 37.33zm.864-2.93c.275-1.153.48-2.32.614-3.493L26.377 1.025c-1.173.134-2.34.339-3.494.614l35.264 35.264zm.412-11.596c.245 1.488.375 2.992.39 4.497L29.982.838c1.505.014 3.009.143 4.497.388l24.08 24.08zm-1.327-5.122a29.13 29.13 0 0 0-6.848-10.782 29.13 29.13 0 0 0-10.783-6.848l17.63 17.63z" fill="#212122"/></svg><svg fill="none" viewBox="0 0 53 53" id="kSubtract_pfuolet"><path fill-rule="evenodd" clip-rule="evenodd" d="M52.846 26.824a26.077 26.077 0 0 1-.343 3.98L31.124 52.182c-1.318.216-2.648.33-3.98.343l25.7-25.701zm-7.6 18.102a25.847 25.847 0 0 1-9.58 6.08l15.661-15.66a25.849 25.849 0 0 1-6.08 9.58zm7.433-21.302a26.018 26.018 0 0 0-.543-3.093L20.852 51.816c1.021.243 2.054.424 3.093.542L52.68 23.624zm-2.375-8.266c.404.842.759 1.7 1.066 2.573L18.252 51.049a25.79 25.79 0 0 1-2.573-1.066l34.625-34.625zm-1.18-2.186a25.838 25.838 0 0 0-1.467-2.17L11.324 47.337c.703.53 1.427 1.018 2.17 1.467l35.63-35.63zM45.246 8.23c.305.305.6.615.886.931L9.481 45.813a26.405 26.405 0 0 1-1.817-1.817L44.317 7.343c.315.286.625.582.93.886zm-2.773-2.41a25.682 25.682 0 0 0-2.172-1.467l-35.63 35.63c.45.742.939 1.467 1.468 2.171L42.474 5.82zm-6.927-3.713c.871.308 1.729.662 2.57 1.065L3.491 37.795a25.797 25.797 0 0 1-1.065-2.568l33.12-33.12zm-2.6-.766a26.017 26.017 0 0 0-3.094-.543L1.118 29.532c.118 1.04.3 2.073.543 3.095L32.947 1.34zM22.673.973a26.085 26.085 0 0 1 3.98-.343L.952 26.333c.013-1.332.127-2.663.343-3.981L22.673.973zm-4.541 1.175A25.848 25.848 0 0 0 8.55 8.23a25.849 25.849 0 0 0-6.08 9.582L18.131 2.148z" fill="#AD13FB"/></svg><svg fill="none" viewBox="0 0 47 47" id="kblue"><path d="M10.097.142C17.485 12.938 13.1 29.299.305 36.687c12.795-7.388 29.157-3.005 36.545 9.792-7.388-12.797-3.004-29.158 9.792-36.545C33.846 17.32 17.485 12.938 10.097.142z" fill="url(#kba)"/><defs><linearGradient id="kba" x1="39.005" y1="-25.793" x2="77.962" y2="52.883" gradientUnits="userSpaceOnUse"><stop stop-color="#194BFD"/><stop offset="1" stop-color="#AD13FB"/></linearGradient></defs></svg><svg fill="none" viewBox="0 0 20 20" id="kcall"><mask id="kca" style="mask-type:alpha" maskUnits="userSpaceOnUse" x="0" y="0" width="20" height="20"><path fill="#D9D9D9" d="M0 0h20v20H0z"/></mask><g mask="url(#kca)"><path d="M16.625 17.5c-1.792 0-3.538-.4-5.24-1.198a15.872 15.872 0 0 1-4.52-3.167 15.87 15.87 0 0 1-3.167-4.52C2.9 6.912 2.5 5.166 2.5 3.374c0-.25.083-.458.25-.625a.848.848 0 0 1 .625-.25H6.75a.8.8 0 0 1 .52.188.733.733 0 0 1 .272.479l.541 2.916c.028.195.025.372-.01.531a.856.856 0 0 1-.24.428l-2 2.041a13.84 13.84 0 0 0 2.188 2.813c.875.875 1.84 1.632 2.896 2.27l1.958-1.958a1.17 1.17 0 0 1 .49-.281c.201-.063.399-.08.593-.052l2.875.583a.848.848 0 0 1 .48.281.762.762 0 0 1 .187.511v3.375c0 .25-.083.458-.25.625a.848.848 0 0 1-.625.25z" fill="#E6E6E6" fill-opacity=".51"/></g></svg><svg fill="none" viewBox="0 0 25 25" id="kdownloading"><mask id="kda" style="mask-type:alpha" maskUnits="userSpaceOnUse" x="0" y="0" width="25" height="25"><path fill="#D9D9D9" d="M.125.267h24v24h-24z"/></mask><g mask="url(#kda)"><path d="M11.1 22.217a9.685 9.685 0 0 1-3.537-1.063 10.093 10.093 0 0 1-2.838-2.199 10.195 10.195 0 0 1-1.887-3.063 9.761 9.761 0 0 1-.688-3.65c0-2.583.854-4.82 2.563-6.713 1.708-1.891 3.845-2.979 6.412-3.262v2c-2.017.283-3.683 1.18-5 2.687-1.317 1.509-1.975 3.271-1.975 5.288 0 2.017.658 3.78 1.975 5.287 1.317 1.509 2.975 2.405 4.975 2.688v2zm1-4.95-5.025-5.05L8.5 10.792l2.6 2.6V7.267h2v6.125l2.575-2.575 1.425 1.45-5 5zm1 4.95v-2a7.993 7.993 0 0 0 2.063-.575A8.634 8.634 0 0 0 17 18.567l1.45 1.45a10.765 10.765 0 0 1-2.525 1.488 9.92 9.92 0 0 1-2.825.712zm3.95-16.3a9.232 9.232 0 0 0-1.863-1.075 7.977 7.977 0 0 0-2.062-.575v-2c.983.1 1.925.337 2.825.712.9.375 1.733.871 2.5 1.488l-1.4 1.45zm2.8 12.65-1.4-1.425a7.884 7.884 0 0 0 1.05-1.838c.267-.658.45-1.345.55-2.062h2.05a11.767 11.767 0 0 1-.75 2.837 9.126 9.126 0 0 1-1.5 2.488zm.2-7.325a8.665 8.665 0 0 0-.55-2.063 7.892 7.892 0 0 0-1.05-1.837l1.4-1.425a9.649 9.649 0 0 1 1.525 2.487c.383.909.625 1.855.725 2.838h-2.05z" fill="#194BFD"/></g></svg><svg fill="none" viewBox="0 0 8 12" id="kfacebook"><path d="M4.931 12V6.535h1.844l.274-2.14H4.931V3.033c0-.618.173-1.04 1.059-1.04h1.122V.084A14.893 14.893 0 0 0 5.468 0c-1.63 0-2.749.995-2.749 2.821v1.57H.888v2.14h1.835V12h2.208z" fill="#E6E6E6"/></svg><svg fill="none" viewBox="0 0 12 12" id="kin"><path fill-rule="evenodd" clip-rule="evenodd" d="M4.457 4.181h2.229v1.11c.32-.638 1.144-1.212 2.38-1.212C11.438 4.08 12 5.35 12 7.682V12H9.6V8.213c0-1.328-.321-2.077-1.138-2.077-1.134 0-1.605.807-1.605 2.076V12h-2.4V4.181zM.342 11.898h2.4V4.079h-2.4v7.819zM3.086 1.53a1.518 1.518 0 0 1-.452 1.081 1.554 1.554 0 0 1-2.183 0A1.529 1.529 0 0 1 0 1.53C0 1.124.162.735.452.448a1.55 1.55 0 0 1 2.182 0c.29.287.452.676.452 1.082z" fill="#E6E6E6"/></svg><svg fill="currentColor" class="kgbi kgbi-list" viewBox="0 0 16 16" id="klist"><path fill-rule="evenodd" d="M2.5 12a.5.5 0 0 1 .5-.5h10a.5.5 0 0 1 0 1H3a.5.5 0 0 1-.5-.5m0-4a.5.5 0 0 1 .5-.5h10a.5.5 0 0 1 0 1H3a.5.5 0 0 1-.5-.5m0-4a.5.5 0 0 1 .5-.5h10a.5.5 0 0 1 0 1H3a.5.5 0 0 1-.5-.5"/></svg><svg fill="none" viewBox="0 0 20 20" id="klocation"><mask id="kha" style="mask-type:alpha" maskUnits="userSpaceOnUse" x="0" y="0" width="20" height="20"><path fill="#D9D9D9" d="M0 0h20v20H0z"/></mask><g mask="url(#kha)"><path d="M10 10c.458 0 .85-.163 1.178-.49.326-.326.489-.718.489-1.177 0-.458-.163-.85-.49-1.177A1.607 1.607 0 0 0 10 6.666c-.458 0-.85.164-1.177.49a1.61 1.61 0 0 0-.49 1.177c0 .459.164.851.49 1.177.326.327.719.49 1.177.49zm0 8.333c-2.236-1.902-3.906-3.67-5.01-5.302-1.104-1.632-1.657-3.142-1.657-4.53 0-2.084.67-3.744 2.011-4.98C6.684 2.285 8.236 1.667 10 1.667c1.764 0 3.316.618 4.656 1.854 1.34 1.236 2.01 2.896 2.01 4.98 0 1.388-.551 2.898-1.655 4.53-1.105 1.632-2.775 3.4-5.011 5.302z" fill="#E6E6E6" fill-opacity=".51"/></g></svg><svg fill="none" viewBox="0 0 53 53" id="kpurple"><path fill-rule="evenodd" clip-rule="evenodd" d="M52.846 26.824a26.077 26.077 0 0 1-.343 3.98L31.124 52.182c-1.318.216-2.648.33-3.98.343l25.7-25.701zm-7.6 18.102a25.847 25.847 0 0 1-9.58 6.08l15.661-15.66a25.849 25.849 0 0 1-6.08 9.58zm7.433-21.302a26.018 26.018 0 0 0-.543-3.093L20.852 51.816c1.021.243 2.054.424 3.093.542L52.68 23.624zm-2.375-8.266c.404.842.759 1.7 1.066 2.573L18.252 51.049a25.79 25.79 0 0 1-2.573-1.066l34.625-34.625zm-1.18-2.186a25.838 25.838 0 0 0-1.467-2.17L11.324 47.337c.703.53 1.427 1.018 2.17 1.467l35.63-35.63zM45.246 8.23c.305.305.6.615.886.931L9.481 45.813a26.405 26.405 0 0 1-1.817-1.817L44.317 7.343c.315.286.625.582.93.886zm-2.773-2.41a25.682 25.682 0 0 0-2.172-1.467l-35.63 35.63c.45.742.939 1.467 1.468 2.171L42.474 5.82zm-6.927-3.713c.871.308 1.729.662 2.57 1.065L3.491 37.795a25.797 25.797 0 0 1-1.065-2.568l33.12-33.12zm-2.6-.766a26.017 26.017 0 0 0-3.094-.543L1.118 29.532c.118 1.04.3 2.073.543 3.095L32.947 1.34zM22.673.973a26.085 26.085 0 0 1 3.98-.343L.952 26.333c.013-1.332.127-2.663.343-3.981L22.673.973zm-4.541 1.175A25.848 25.848 0 0 0 8.55 8.23a25.849 25.849 0 0 0-6.08 9.582L18.131 2.148z" fill="#AD13FB"/></svg><svg fill="none" viewBox="0 0 20 20" id="ksend"><mask id="kja" style="mask-type:alpha" maskUnits="userSpaceOnUse" x="0" y="0" width="20" height="20"><path fill="#D9D9D9" d="M0 0h20v20H0z"/></mask><g mask="url(#kja)"><path d="M2.5 16.667v-5L9.167 10 2.5 8.333v-5L18.333 10 2.5 16.667z" fill="#E6E6E6" fill-opacity=".51"/></g></svg><svg viewBox="0 0 59 60" id="ksprite"><svg fill="none" viewBox="0 0 32 16" id="kkArrow"><path d="M31.41 8.394a1 1 0 0 0 0-1.414L25.046.616a1 1 0 1 0-1.414 1.414l5.657 5.657-5.657 5.657a1 1 0 1 0 1.414 1.414l6.364-6.364zM.375 8.687h30.328v-2H.375v2z" fill="#FDFDFD"/></svg><svg fill="none" viewBox="0 0 59 60" id="kkSubtract"><path fill-rule="evenodd" clip-rule="evenodd" d="M29.423 59.322a29.398 29.398 0 0 1-4.48-.387L.85 34.843a29.398 29.398 0 0 1-.386-4.48l28.96 28.96zM9.027 50.758a29.13 29.13 0 0 1-6.852-10.797l17.65 17.65a29.13 29.13 0 0 1-10.798-6.853zm24.003 8.377a29.325 29.325 0 0 0 3.495-.613L1.264 23.262a29.318 29.318 0 0 0-.613 3.494l32.379 32.38zm9.318-2.677a29.03 29.03 0 0 1-2.894 1.2L2.128 20.331c.346-.98.746-1.947 1.2-2.894l39.02 39.021zm2.464-1.33a29.109 29.109 0 0 0 2.45-1.657L6.315 12.523a29.119 29.119 0 0 0-1.656 2.451l40.154 40.154zm5.572-4.37c-.342.342-.69.674-1.045.996L8.032 10.447a29.738 29.738 0 0 1 2.045-2.045l41.307 41.306c-.323.357-.656.707-1 1.05zm2.717-3.126a29.106 29.106 0 0 0 1.652-2.445L14.599 5.033a29.13 29.13 0 0 0-2.445 1.652l40.947 40.947zm4.182-7.8c-.346.98-.746 1.946-1.2 2.892L17.063 3.702a29.057 29.057 0 0 1 2.892-1.199l37.329 37.33zm.864-2.93c.275-1.153.48-2.32.614-3.493L26.377 1.025c-1.173.134-2.34.339-3.494.614l35.264 35.264zm.412-11.596c.245 1.488.375 2.992.39 4.497L29.982.838c1.505.014 3.009.143 4.497.388l24.08 24.08zm-1.327-5.122a29.13 29.13 0 0 0-6.848-10.782 29.13 29.13 0 0 0-10.783-6.848l17.63 17.63z" fill="#212122"/></svg><svg fill="none" viewBox="0 0 53 53" id="kkSubtract_pfuolet"><path fill-rule="evenodd" clip-rule="evenodd" d="M52.846 26.824a26.077 26.077 0 0 1-.343 3.98L31.124 52.182c-1.318.216-2.648.33-3.98.343l25.7-25.701zm-7.6 18.102a25.847 25.847 0 0 1-9.58 6.08l15.661-15.66a25.849 25.849 0 0 1-6.08 9.58zm7.433-21.302a26.018 26.018 0 0 0-.543-3.093L20.852 51.816c1.021.243 2.054.424 3.093.542L52.68 23.624zm-2.375-8.266c.404.842.759 1.7 1.066 2.573L18.252 51.049a25.79 25.79 0 0 1-2.573-1.066l34.625-34.625zm-1.18-2.186a25.838 25.838 0 0 0-1.467-2.17L11.324 47.337c.703.53 1.427 1.018 2.17 1.467l35.63-35.63zM45.246 8.23c.305.305.6.615.886.931L9.481 45.813a26.405 26.405 0 0 1-1.817-1.817L44.317 7.343c.315.286.625.582.93.886zm-2.773-2.41a25.682 25.682 0 0 0-2.172-1.467l-35.63 35.63c.45.742.939 1.467 1.468 2.171L42.474 5.82zm-6.927-3.713c.871.308 1.729.662 2.57 1.065L3.491 37.795a25.797 25.797 0 0 1-1.065-2.568l33.12-33.12zm-2.6-.766a26.017 26.017 0 0 0-3.094-.543L1.118 29.532c.118 1.04.3 2.073.543 3.095L32.947 1.34zM22.673.973a26.085 26.085 0 0 1 3.98-.343L.952 26.333c.013-1.332.127-2.663.343-3.981L22.673.973zm-4.541 1.175A25.848 25.848 0 0 0 8.55 8.23a25.849 25.849 0 0 0-6.08 9.582L18.131 2.148z" fill="#AD13FB"/></svg><svg fill="none" viewBox="0 0 20 20" id="kkcall"><mask id="kkba" style="mask-type:alpha" maskUnits="userSpaceOnUse" x="0" y="0" width="20" height="20"><path fill="#D9D9D9" d="M0 0h20v20H0z"/></mask><g mask="url(#kkba)"><path d="M16.625 17.5c-1.792 0-3.538-.4-5.24-1.198a15.872 15.872 0 0 1-4.52-3.167 15.87 15.87 0 0 1-3.167-4.52C2.9 6.912 2.5 5.166 2.5 3.374c0-.25.083-.458.25-.625a.848.848 0 0 1 .625-.25H6.75a.8.8 0 0 1 .52.188.733.733 0 0 1 .272.479l.541 2.916c.028.195.025.372-.01.531a.856.856 0 0 1-.24.428l-2 2.041a13.84 13.84 0 0 0 2.188 2.813c.875.875 1.84 1.632 2.896 2.27l1.958-1.958a1.17 1.17 0 0 1 .49-.281c.201-.063.399-.08.593-.052l2.875.583a.848.848 0 0 1 .48.281.762.762 0 0 1 .187.511v3.375c0 .25-.083.458-.25.625a.848.848 0 0 1-.625.25z" fill="#E6E6E6" fill-opacity=".51"/></g></svg><svg fill="none" viewBox="0 0 25 25" id="kkdownloading"><mask id="kkca" style="mask-type:alpha" maskUnits="userSpaceOnUse" x="0" y="0" width="25" height="25"><path fill="#D9D9D9" d="M.125.267h24v24h-24z"/></mask><g mask="url(#kkca)"><path d="M11.1 22.217a9.685 9.685 0 0 1-3.537-1.063 10.093 10.093 0 0 1-2.838-2.199 10.195 10.195 0 0 1-1.887-3.063 9.761 9.761 0 0 1-.688-3.65c0-2.583.854-4.82 2.563-6.713 1.708-1.891 3.845-2.979 6.412-3.262v2c-2.017.283-3.683 1.18-5 2.687-1.317 1.509-1.975 3.271-1.975 5.288 0 2.017.658 3.78 1.975 5.287 1.317 1.509 2.975 2.405 4.975 2.688v2zm1-4.95-5.025-5.05L8.5 10.792l2.6 2.6V7.267h2v6.125l2.575-2.575 1.425 1.45-5 5zm1 4.95v-2a7.993 7.993 0 0 0 2.063-.575A8.634 8.634 0 0 0 17 18.567l1.45 1.45a10.765 10.765 0 0 1-2.525 1.488 9.92 9.92 0 0 1-2.825.712zm3.95-16.3a9.232 9.232 0 0 0-1.863-1.075 7.977 7.977 0 0 0-2.062-.575v-2c.983.1 1.925.337 2.825.712.9.375 1.733.871 2.5 1.488l-1.4 1.45zm2.8 12.65-1.4-1.425a7.884 7.884 0 0 0 1.05-1.838c.267-.658.45-1.345.55-2.062h2.05a11.767 11.767 0 0 1-.75 2.837 9.126 9.126 0 0 1-1.5 2.488zm.2-7.325a8.665 8.665 0 0 0-.55-2.063 7.892 7.892 0 0 0-1.05-1.837l1.4-1.425a9.649 9.649 0 0 1 1.525 2.487c.383.909.625 1.855.725 2.838h-2.05z" fill="#194BFD"/></g></svg><svg fill="none" viewBox="0 0 8 12" id="kkfacebook"><path d="M4.931 12V6.535h1.844l.274-2.14H4.931V3.033c0-.618.173-1.04 1.059-1.04h1.122V.084A14.893 14.893 0 0 0 5.468 0c-1.63 0-2.749.995-2.749 2.821v1.57H.888v2.14h1.835V12h2.208z" fill="#E6E6E6"/></svg><svg fill="none" viewBox="0 0 12 12" id="kkin"><path fill-rule="evenodd" clip-rule="evenodd" d="M4.457 4.181h2.229v1.11c.32-.638 1.144-1.212 2.38-1.212C11.438 4.08 12 5.35 12 7.682V12H9.6V8.213c0-1.328-.321-2.077-1.138-2.077-1.134 0-1.605.807-1.605 2.076V12h-2.4V4.181zM.342 11.898h2.4V4.079h-2.4v7.819zM3.086 1.53a1.518 1.518 0 0 1-.452 1.081 1.554 1.554 0 0 1-2.183 0A1.529 1.529 0 0 1 0 1.53C0 1.124.162.735.452.448a1.55 1.55 0 0 1 2.182 0c.29.287.452.676.452 1.082z" fill="#E6E6E6"/></svg><svg fill="currentColor" class="kkfbi kkfbi-list" viewBox="0 0 16 16" id="kklist"><path fill-rule="evenodd" d="M2.5 12a.5.5 0 0 1 .5-.5h10a.5.5 0 0 1 0 1H3a.5.5 0 0 1-.5-.5m0-4a.5.5 0 0 1 .5-.5h10a.5.5 0 0 1 0 1H3a.5.5 0 0 1-.5-.5m0-4a.5.5 0 0 1 .5-.5h10a.5.5 0 0 1 0 1H3a.5.5 0 0 1-.5-.5"/></svg><svg fill="none" viewBox="0 0 20 20" id="kklocation"><mask id="kkga" style="mask-type:alpha" maskUnits="userSpaceOnUse" x="0" y="0" width="20" height="20"><path fill="#D9D9D9" d="M0 0h20v20H0z"/></mask><g mask="url(#kkga)"><path d="M10 10c.458 0 .85-.163 1.178-.49.326-.326.489-.718.489-1.177 0-.458-.163-.85-.49-1.177A1.607 1.607 0 0 0 10 6.666c-.458 0-.85.164-1.177.49a1.61 1.61 0 0 0-.49 1.177c0 .459.164.851.49 1.177.326.327.719.49 1.177.49zm0 8.333c-2.236-1.902-3.906-3.67-5.01-5.302-1.104-1.632-1.657-3.142-1.657-4.53 0-2.084.67-3.744 2.011-4.98C6.684 2.285 8.236 1.667 10 1.667c1.764 0 3.316.618 4.656 1.854 1.34 1.236 2.01 2.896 2.01 4.98 0 1.388-.551 2.898-1.655 4.53-1.105 1.632-2.775 3.4-5.011 5.302z" fill="#E6E6E6" fill-opacity=".51"/></g></svg><svg fill="none" viewBox="0 0 53 53" id="kkpurple"><path fill-rule="evenodd" clip-rule="evenodd" d="M52.846 26.824a26.077 26.077 0 0 1-.343 3.98L31.124 52.182c-1.318.216-2.648.33-3.98.343l25.7-25.701zm-7.6 18.102a25.847 25.847 0 0 1-9.58 6.08l15.661-15.66a25.849 25.849 0 0 1-6.08 9.58zm7.433-21.302a26.018 26.018 0 0 0-.543-3.093L20.852 51.816c1.021.243 2.054.424 3.093.542L52.68 23.624zm-2.375-8.266c.404.842.759 1.7 1.066 2.573L18.252 51.049a25.79 25.79 0 0 1-2.573-1.066l34.625-34.625zm-1.18-2.186a25.838 25.838 0 0 0-1.467-2.17L11.324 47.337c.703.53 1.427 1.018 2.17 1.467l35.63-35.63zM45.246 8.23c.305.305.6.615.886.931L9.481 45.813a26.405 26.405 0 0 1-1.817-1.817L44.317 7.343c.315.286.625.582.93.886zm-2.773-2.41a25.682 25.682 0 0 0-2.172-1.467l-35.63 35.63c.45.742.939 1.467 1.468 2.171L42.474 5.82zm-6.927-3.713c.871.308 1.729.662 2.57 1.065L3.491 37.795a25.797 25.797 0 0 1-1.065-2.568l33.12-33.12zm-2.6-.766a26.017 26.017 0 0 0-3.094-.543L1.118 29.532c.118 1.04.3 2.073.543 3.095L32.947 1.34zM22.673.973a26.085 26.085 0 0 1 3.98-.343L.952 26.333c.013-1.332.127-2.663.343-3.981L22.673.973zm-4.541 1.175A25.848 25.848 0 0 0 8.55 8.23a25.849 25.849 0 0 0-6.08 9.582L18.131 2.148z" fill="#AD13FB"/></svg><svg fill="none" viewBox="0 0 20 20" id="kksend"><mask id="kkia" style="mask-type:alpha" maskUnits="userSpaceOnUse" x="0" y="0" width="20" height="20"><path fill="#D9D9D9" d="M0 0h20v20H0z"/></mask><g mask="url(#kkia)"><path d="M2.5 16.667v-5L9.167 10 2.5 8.333v-5L18.333 10 2.5 16.667z" fill="#E6E6E6" fill-opacity=".51"/></g></svg><svg viewBox="0 0 59 60" id="kksprite"><svg fill="none" viewBox="0 0 32 16" id="kkjArrow"><path d="M31.41 8.394a1 1 0 0 0 0-1.414L25.046.616a1 1 0 1 0-1.414 1.414l5.657 5.657-5.657 5.657a1 1 0 1 0 1.414 1.414l6.364-6.364zM.375 8.687h30.328v-2H.375v2z" fill="#FDFDFD"/></svg><svg fill="none" viewBox="0 0 59 60" id="kkjSubtract"><path fill-rule="evenodd" clip-rule="evenodd" d="M29.423 59.322a29.398 29.398 0 0 1-4.48-.387L.85 34.843a29.398 29.398 0 0 1-.386-4.48l28.96 28.96zM9.027 50.758a29.13 29.13 0 0 1-6.852-10.797l17.65 17.65a29.13 29.13 0 0 1-10.798-6.853zm24.003 8.377a29.325 29.325 0 0 0 3.495-.613L1.264 23.262a29.318 29.318 0 0 0-.613 3.494l32.379 32.38zm9.318-2.677a29.03 29.03 0 0 1-2.894 1.2L2.128 20.331c.346-.98.746-1.947 1.2-2.894l39.02 39.021zm2.464-1.33a29.109 29.109 0 0 0 2.45-1.657L6.315 12.523a29.119 29.119 0 0 0-1.656 2.451l40.154 40.154zm5.572-4.37c-.342.342-.69.674-1.045.996L8.032 10.447a29.738 29.738 0 0 1 2.045-2.045l41.307 41.306c-.323.357-.656.707-1 1.05zm2.717-3.126a29.106 29.106 0 0 0 1.652-2.445L14.599 5.033a29.13 29.13 0 0 0-2.445 1.652l40.947 40.947zm4.182-7.8c-.346.98-.746 1.946-1.2 2.892L17.063 3.702a29.057 29.057 0 0 1 2.892-1.199l37.329 37.33zm.864-2.93c.275-1.153.48-2.32.614-3.493L26.377 1.025c-1.173.134-2.34.339-3.494.614l35.264 35.264zm.412-11.596c.245 1.488.375 2.992.39 4.497L29.982.838c1.505.014 3.009.143 4.497.388l24.08 24.08zm-1.327-5.122a29.13 29.13 0 0 0-6.848-10.782 29.13 29.13 0 0 0-10.783-6.848l17.63 17.63z" fill="#212122"/></svg><svg fill="none" viewBox="0 0 53 53" id="kkjSubtract_pfuolet"><path fill-rule="evenodd" clip-rule="evenodd" d="M52.846 26.824a26.077 26.077 0 0 1-.343 3.98L31.124 52.182c-1.318.216-2.648.33-3.98.343l25.7-25.701zm-7.6 18.102a25.847 25.847 0 0 1-9.58 6.08l15.661-15.66a25.849 25.849 0 0 1-6.08 9.58zm7.433-21.302a26.018 26.018 0 0 0-.543-3.093L20.852 51.816c1.021.243 2.054.424 3.093.542L52.68 23.624zm-2.375-8.266c.404.842.759 1.7 1.066 2.573L18.252 51.049a25.79 25.79 0 0 1-2.573-1.066l34.625-34.625zm-1.18-2.186a25.838 25.838 0 0 0-1.467-2.17L11.324 47.337c.703.53 1.427 1.018 2.17 1.467l35.63-35.63zM45.246 8.23c.305.305.6.615.886.931L9.481 45.813a26.405 26.405 0 0 1-1.817-1.817L44.317 7.343c.315.286.625.582.93.886zm-2.773-2.41a25.682 25.682 0 0 0-2.172-1.467l-35.63 35.63c.45.742.939 1.467 1.468 2.171L42.474 5.82zm-6.927-3.713c.871.308 1.729.662 2.57 1.065L3.491 37.795a25.797 25.797 0 0 1-1.065-2.568l33.12-33.12zm-2.6-.766a26.017 26.017 0 0 0-3.094-.543L1.118 29.532c.118 1.04.3 2.073.543 3.095L32.947 1.34zM22.673.973a26.085 26.085 0 0 1 3.98-.343L.952 26.333c.013-1.332.127-2.663.343-3.981L22.673.973zm-4.541 1.175A25.848 25.848 0 0 0 8.55 8.23a25.849 25.849 0 0 0-6.08 9.582L18.131 2.148z" fill="#AD13FB"/></svg><svg fill="none" viewBox="0 0 20 20" id="kkjcall"><mask id="kkjba" style="mask-type:alpha" maskUnits="userSpaceOnUse" x="0" y="0" width="20" height="20"><path fill="#D9D9D9" d="M0 0h20v20H0z"/></mask><g mask="url(#kkjba)"><path d="M16.625 17.5c-1.792 0-3.538-.4-5.24-1.198a15.872 15.872 0 0 1-4.52-3.167 15.87 15.87 0 0 1-3.167-4.52C2.9 6.912 2.5 5.166 2.5 3.374c0-.25.083-.458.25-.625a.848.848 0 0 1 .625-.25H6.75a.8.8 0 0 1 .52.188.733.733 0 0 1 .272.479l.541 2.916c.028.195.025.372-.01.531a.856.856 0 0 1-.24.428l-2 2.041a13.84 13.84 0 0 0 2.188 2.813c.875.875 1.84 1.632 2.896 2.27l1.958-1.958a1.17 1.17 0 0 1 .49-.281c.201-.063.399-.08.593-.052l2.875.583a.848.848 0 0 1 .48.281.762.762 0 0 1 .187.511v3.375c0 .25-.083.458-.25.625a.848.848 0 0 1-.625.25z" fill="#E6E6E6" fill-opacity=".51"/></g></svg><svg fill="none" viewBox="0 0 25 25" id="kkjdownloading"><mask id="kkjca" style="mask-type:alpha" maskUnits="userSpaceOnUse" x="0" y="0" width="25" height="25"><path fill="#D9D9D9" d="M.125.267h24v24h-24z"/></mask><g mask="url(#kkjca)"><path d="M11.1 22.217a9.685 9.685 0 0 1-3.537-1.063 10.093 10.093 0 0 1-2.838-2.199 10.195 10.195 0 0 1-1.887-3.063 9.761 9.761 0 0 1-.688-3.65c0-2.583.854-4.82 2.563-6.713 1.708-1.891 3.845-2.979 6.412-3.262v2c-2.017.283-3.683 1.18-5 2.687-1.317 1.509-1.975 3.271-1.975 5.288 0 2.017.658 3.78 1.975 5.287 1.317 1.509 2.975 2.405 4.975 2.688v2zm1-4.95-5.025-5.05L8.5 10.792l2.6 2.6V7.267h2v6.125l2.575-2.575 1.425 1.45-5 5zm1 4.95v-2a7.993 7.993 0 0 0 2.063-.575A8.634 8.634 0 0 0 17 18.567l1.45 1.45a10.765 10.765 0 0 1-2.525 1.488 9.92 9.92 0 0 1-2.825.712zm3.95-16.3a9.232 9.232 0 0 0-1.863-1.075 7.977 7.977 0 0 0-2.062-.575v-2c.983.1 1.925.337 2.825.712.9.375 1.733.871 2.5 1.488l-1.4 1.45zm2.8 12.65-1.4-1.425a7.884 7.884 0 0 0 1.05-1.838c.267-.658.45-1.345.55-2.062h2.05a11.767 11.767 0 0 1-.75 2.837 9.126 9.126 0 0 1-1.5 2.488zm.2-7.325a8.665 8.665 0 0 0-.55-2.063 7.892 7.892 0 0 0-1.05-1.837l1.4-1.425a9.649 9.649 0 0 1 1.525 2.487c.383.909.625 1.855.725 2.838h-2.05z" fill="#194BFD"/></g></svg><svg fill="none" viewBox="0 0 8 12" id="kkjfacebook"><path d="M4.931 12V6.535h1.844l.274-2.14H4.931V3.033c0-.618.173-1.04 1.059-1.04h1.122V.084A14.893 14.893 0 0 0 5.468 0c-1.63 0-2.749.995-2.749 2.821v1.57H.888v2.14h1.835V12h2.208z" fill="#E6E6E6"/></svg><svg fill="none" viewBox="0 0 12 12" id="kkjin"><path fill-rule="evenodd" clip-rule="evenodd" d="M4.457 4.181h2.229v1.11c.32-.638 1.144-1.212 2.38-1.212C11.438 4.08 12 5.35 12 7.682V12H9.6V8.213c0-1.328-.321-2.077-1.138-2.077-1.134 0-1.605.807-1.605 2.076V12h-2.4V4.181zM.342 11.898h2.4V4.079h-2.4v7.819zM3.086 1.53a1.518 1.518 0 0 1-.452 1.081 1.554 1.554 0 0 1-2.183 0A1.529 1.529 0 0 1 0 1.53C0 1.124.162.735.452.448a1.55 1.55 0 0 1 2.182 0c.29.287.452.676.452 1.082z" fill="#E6E6E6"/></svg><svg fill="currentColor" class="kkjfbi kkjfbi-list" viewBox="0 0 16 16" id="kkjlist"><path fill-rule="evenodd" d="M2.5 12a.5.5 0 0 1 .5-.5h10a.5.5 0 0 1 0 1H3a.5.5 0 0 1-.5-.5m0-4a.5.5 0 0 1 .5-.5h10a.5.5 0 0 1 0 1H3a.5.5 0 0 1-.5-.5m0-4a.5.5 0 0 1 .5-.5h10a.5.5 0 0 1 0 1H3a.5.5 0 0 1-.5-.5"/></svg><svg fill="none" viewBox="0 0 20 20" id="kkjlocation"><mask id="kkjga" style="mask-type:alpha" maskUnits="userSpaceOnUse" x="0" y="0" width="20" height="20"><path fill="#D9D9D9" d="M0 0h20v20H0z"/></mask><g mask="url(#kkjga)"><path d="M10 10c.458 0 .85-.163 1.178-.49.326-.326.489-.718.489-1.177 0-.458-.163-.85-.49-1.177A1.607 1.607 0 0 0 10 6.666c-.458 0-.85.164-1.177.49a1.61 1.61 0 0 0-.49 1.177c0 .459.164.851.49 1.177.326.327.719.49 1.177.49zm0 8.333c-2.236-1.902-3.906-3.67-5.01-5.302-1.104-1.632-1.657-3.142-1.657-4.53 0-2.084.67-3.744 2.011-4.98C6.684 2.285 8.236 1.667 10 1.667c1.764 0 3.316.618 4.656 1.854 1.34 1.236 2.01 2.896 2.01 4.98 0 1.388-.551 2.898-1.655 4.53-1.105 1.632-2.775 3.4-5.011 5.302z" fill="#E6E6E6" fill-opacity=".51"/></g></svg><svg fill="none" viewBox="0 0 53 53" id="kkjpurple"><path fill-rule="evenodd" clip-rule="evenodd" d="M52.846 26.824a26.077 26.077 0 0 1-.343 3.98L31.124 52.182c-1.318.216-2.648.33-3.98.343l25.7-25.701zm-7.6 18.102a25.847 25.847 0 0 1-9.58 6.08l15.661-15.66a25.849 25.849 0 0 1-6.08 9.58zm7.433-21.302a26.018 26.018 0 0 0-.543-3.093L20.852 51.816c1.021.243 2.054.424 3.093.542L52.68 23.624zm-2.375-8.266c.404.842.759 1.7 1.066 2.573L18.252 51.049a25.79 25.79 0 0 1-2.573-1.066l34.625-34.625zm-1.18-2.186a25.838 25.838 0 0 0-1.467-2.17L11.324 47.337c.703.53 1.427 1.018 2.17 1.467l35.63-35.63zM45.246 8.23c.305.305.6.615.886.931L9.481 45.813a26.405 26.405 0 0 1-1.817-1.817L44.317 7.343c.315.286.625.582.93.886zm-2.773-2.41a25.682 25.682 0 0 0-2.172-1.467l-35.63 35.63c.45.742.939 1.467 1.468 2.171L42.474 5.82zm-6.927-3.713c.871.308 1.729.662 2.57 1.065L3.491 37.795a25.797 25.797 0 0 1-1.065-2.568l33.12-33.12zm-2.6-.766a26.017 26.017 0 0 0-3.094-.543L1.118 29.532c.118 1.04.3 2.073.543 3.095L32.947 1.34zM22.673.973a26.085 26.085 0 0 1 3.98-.343L.952 26.333c.013-1.332.127-2.663.343-3.981L22.673.973zm-4.541 1.175A25.848 25.848 0 0 0 8.55 8.23a25.849 25.849 0 0 0-6.08 9.582L18.131 2.148z" fill="#AD13FB"/></svg><svg fill="none" viewBox="0 0 20 20" id="kkjsend"><mask id="kkjia" style="mask-type:alpha" maskUnits="userSpaceOnUse" x="0" y="0" width="20" height="20"><path fill="#D9D9D9" d="M0 0h20v20H0z"/></mask><g mask="url(#kkjia)"><path d="M2.5 16.667v-5L9.167 10 2.5 8.333v-5L18.333 10 2.5 16.667z" fill="#E6E6E6" fill-opacity=".51"/></g></svg><svg viewBox="0 0 59 60" id="kkjsprite"><svg fill="none" viewBox="0 0 32 16" id="kkjjArrow"><path d="M31.41 8.394a1 1 0 0 0 0-1.414L25.046.616a1 1 0 1 0-1.414 1.414l5.657 5.657-5.657 5.657a1 1 0 1 0 1.414 1.414l6.364-6.364zM.375 8.687h30.328v-2H.375v2z" fill="#FDFDFD"/></svg><svg fill="none" viewBox="0 0 59 60" id="kkjjSubtract"><path fill-rule="evenodd" clip-rule="evenodd" d="M29.423 59.322a29.398 29.398 0 0 1-4.48-.387L.85 34.843a29.398 29.398 0 0 1-.386-4.48l28.96 28.96zM9.027 50.758a29.13 29.13 0 0 1-6.852-10.797l17.65 17.65a29.13 29.13 0 0 1-10.798-6.853zm24.003 8.377a29.325 29.325 0 0 0 3.495-.613L1.264 23.262a29.318 29.318 0 0 0-.613 3.494l32.379 32.38zm9.318-2.677a29.03 29.03 0 0 1-2.894 1.2L2.128 20.331c.346-.98.746-1.947 1.2-2.894l39.02 39.021zm2.464-1.33a29.109 29.109 0 0 0 2.45-1.657L6.315 12.523a29.119 29.119 0 0 0-1.656 2.451l40.154 40.154zm5.572-4.37c-.342.342-.69.674-1.045.996L8.032 10.447a29.738 29.738 0 0 1 2.045-2.045l41.307 41.306c-.323.357-.656.707-1 1.05zm2.717-3.126a29.106 29.106 0 0 0 1.652-2.445L14.599 5.033a29.13 29.13 0 0 0-2.445 1.652l40.947 40.947zm4.182-7.8c-.346.98-.746 1.946-1.2 2.892L17.063 3.702a29.057 29.057 0 0 1 2.892-1.199l37.329 37.33zm.864-2.93c.275-1.153.48-2.32.614-3.493L26.377 1.025c-1.173.134-2.34.339-3.494.614l35.264 35.264zm.412-11.596c.245 1.488.375 2.992.39 4.497L29.982.838c1.505.014 3.009.143 4.497.388l24.08 24.08zm-1.327-5.122a29.13 29.13 0 0 0-6.848-10.782 29.13 29.13 0 0 0-10.783-6.848l17.63 17.63z" fill="#212122"/></svg><svg fill="none" viewBox="0 0 53 53" id="kkjjSubtract_pfuolet"><path fill-rule="evenodd" clip-rule="evenodd" d="M52.846 26.824a26.077 26.077 0 0 1-.343 3.98L31.124 52.182c-1.318.216-2.648.33-3.98.343l25.7-25.701zm-7.6 18.102a25.847 25.847 0 0 1-9.58 6.08l15.661-15.66a25.849 25.849 0 0 1-6.08 9.58zm7.433-21.302a26.018 26.018 0 0 0-.543-3.093L20.852 51.816c1.021.243 2.054.424 3.093.542L52.68 23.624zm-2.375-8.266c.404.842.759 1.7 1.066 2.573L18.252 51.049a25.79 25.79 0 0 1-2.573-1.066l34.625-34.625zm-1.18-2.186a25.838 25.838 0 0 0-1.467-2.17L11.324 47.337c.703.53 1.427 1.018 2.17 1.467l35.63-35.63zM45.246 8.23c.305.305.6.615.886.931L9.481 45.813a26.405 26.405 0 0 1-1.817-1.817L44.317 7.343c.315.286.625.582.93.886zm-2.773-2.41a25.682 25.682 0 0 0-2.172-1.467l-35.63 35.63c.45.742.939 1.467 1.468 2.171L42.474 5.82zm-6.927-3.713c.871.308 1.729.662 2.57 1.065L3.491 37.795a25.797 25.797 0 0 1-1.065-2.568l33.12-33.12zm-2.6-.766a26.017 26.017 0 0 0-3.094-.543L1.118 29.532c.118 1.04.3 2.073.543 3.095L32.947 1.34zM22.673.973a26.085 26.085 0 0 1 3.98-.343L.952 26.333c.013-1.332.127-2.663.343-3.981L22.673.973zm-4.541 1.175A25.848 25.848 0 0 0 8.55 8.23a25.849 25.849 0 0 0-6.08 9.582L18.131 2.148z" fill="#AD13FB"/></svg><svg fill="none" viewBox="0 0 20 20" id="kkjjcall"><mask id="kkjjba" style="mask-type:alpha" maskUnits="userSpaceOnUse" x="0" y="0" width="20" height="20"><path fill="#D9D9D9" d="M0 0h20v20H0z"/></mask><g mask="url(#kkjjba)"><path d="M16.625 17.5c-1.792 0-3.538-.4-5.24-1.198a15.872 15.872 0 0 1-4.52-3.167 15.87 15.87 0 0 1-3.167-4.52C2.9 6.912 2.5 5.166 2.5 3.374c0-.25.083-.458.25-.625a.848.848 0 0 1 .625-.25H6.75a.8.8 0 0 1 .52.188.733.733 0 0 1 .272.479l.541 2.916c.028.195.025.372-.01.531a.856.856 0 0 1-.24.428l-2 2.041a13.84 13.84 0 0 0 2.188 2.813c.875.875 1.84 1.632 2.896 2.27l1.958-1.958a1.17 1.17 0 0 1 .49-.281c.201-.063.399-.08.593-.052l2.875.583a.848.848 0 0 1 .48.281.762.762 0 0 1 .187.511v3.375c0 .25-.083.458-.25.625a.848.848 0 0 1-.625.25z" fill="#E6E6E6" fill-opacity=".51"/></g></svg><svg fill="none" viewBox="0 0 25 25" id="kkjjdownloading"><mask id="kkjjca" style="mask-type:alpha" maskUnits="userSpaceOnUse" x="0" y="0" width="25" height="25"><path fill="#D9D9D9" d="M.125.267h24v24h-24z"/></mask><g mask="url(#kkjjca)"><path d="M11.1 22.217a9.685 9.685 0 0 1-3.537-1.063 10.093 10.093 0 0 1-2.838-2.199 10.195 10.195 0 0 1-1.887-3.063 9.761 9.761 0 0 1-.688-3.65c0-2.583.854-4.82 2.563-6.713 1.708-1.891 3.845-2.979 6.412-3.262v2c-2.017.283-3.683 1.18-5 2.687-1.317 1.509-1.975 3.271-1.975 5.288 0 2.017.658 3.78 1.975 5.287 1.317 1.509 2.975 2.405 4.975 2.688v2zm1-4.95-5.025-5.05L8.5 10.792l2.6 2.6V7.267h2v6.125l2.575-2.575 1.425 1.45-5 5zm1 4.95v-2a7.993 7.993 0 0 0 2.063-.575A8.634 8.634 0 0 0 17 18.567l1.45 1.45a10.765 10.765 0 0 1-2.525 1.488 9.92 9.92 0 0 1-2.825.712zm3.95-16.3a9.232 9.232 0 0 0-1.863-1.075 7.977 7.977 0 0 0-2.062-.575v-2c.983.1 1.925.337 2.825.712.9.375 1.733.871 2.5 1.488l-1.4 1.45zm2.8 12.65-1.4-1.425a7.884 7.884 0 0 0 1.05-1.838c.267-.658.45-1.345.55-2.062h2.05a11.767 11.767 0 0 1-.75 2.837 9.126 9.126 0 0 1-1.5 2.488zm.2-7.325a8.665 8.665 0 0 0-.55-2.063 7.892 7.892 0 0 0-1.05-1.837l1.4-1.425a9.649 9.649 0 0 1 1.525 2.487c.383.909.625 1.855.725 2.838h-2.05z" fill="#194BFD"/></g></svg><svg fill="none" viewBox="0 0 8 12" id="kkjjfacebook"><path d="M4.931 12V6.535h1.844l.274-2.14H4.931V3.033c0-.618.173-1.04 1.059-1.04h1.122V.084A14.893 14.893 0 0 0 5.468 0c-1.63 0-2.749.995-2.749 2.821v1.57H.888v2.14h1.835V12h2.208z" fill="#E6E6E6"/></svg><svg fill="none" viewBox="0 0 12 12" id="kkjjin"><path fill-rule="evenodd" clip-rule="evenodd" d="M4.457 4.181h2.229v1.11c.32-.638 1.144-1.212 2.38-1.212C11.438 4.08 12 5.35 12 7.682V12H9.6V8.213c0-1.328-.321-2.077-1.138-2.077-1.134 0-1.605.807-1.605 2.076V12h-2.4V4.181zM.342 11.898h2.4V4.079h-2.4v7.819zM3.086 1.53a1.518 1.518 0 0 1-.452 1.081 1.554 1.554 0 0 1-2.183 0A1.529 1.529 0 0 1 0 1.53C0 1.124.162.735.452.448a1.55 1.55 0 0 1 2.182 0c.29.287.452.676.452 1.082z" fill="#E6E6E6"/></svg><svg fill="currentColor" class="kkjjfbi kkjjfbi-list" viewBox="0 0 16 16" id="kkjjlist"><path fill-rule="evenodd" d="M2.5 12a.5.5 0 0 1 .5-.5h10a.5.5 0 0 1 0 1H3a.5.5 0 0 1-.5-.5m0-4a.5.5 0 0 1 .5-.5h10a.5.5 0 0 1 0 1H3a.5.5 0 0 1-.5-.5m0-4a.5.5 0 0 1 .5-.5h10a.5.5 0 0 1 0 1H3a.5.5 0 0 1-.5-.5"/></svg><svg fill="none" viewBox="0 0 20 20" id="kkjjlocation"><mask id="kkjjga" style="mask-type:alpha" maskUnits="userSpaceOnUse" x="0" y="0" width="20" height="20"><path fill="#D9D9D9" d="M0 0h20v20H0z"/></mask><g mask="url(#kkjjga)"><path d="M10 10c.458 0 .85-.163 1.178-.49.326-.326.489-.718.489-1.177 0-.458-.163-.85-.49-1.177A1.607 1.607 0 0 0 10 6.666c-.458 0-.85.164-1.177.49a1.61 1.61 0 0 0-.49 1.177c0 .459.164.851.49 1.177.326.327.719.49 1.177.49zm0 8.333c-2.236-1.902-3.906-3.67-5.01-5.302-1.104-1.632-1.657-3.142-1.657-4.53 0-2.084.67-3.744 2.011-4.98C6.684 2.285 8.236 1.667 10 1.667c1.764 0 3.316.618 4.656 1.854 1.34 1.236 2.01 2.896 2.01 4.98 0 1.388-.551 2.898-1.655 4.53-1.105 1.632-2.775 3.4-5.011 5.302z" fill="#E6E6E6" fill-opacity=".51"/></g></svg><svg fill="none" viewBox="0 0 20 20" id="kkjjsend"><mask id="kkjjha" style="mask-type:alpha" maskUnits="userSpaceOnUse" x="0" y="0" width="20" height="20"><path fill="#D9D9D9" d="M0 0h20v20H0z"/></mask><g mask="url(#kkjjha)"><path d="M2.5 16.667v-5L9.167 10 2.5 8.333v-5L18.333 10 2.5 16.667z" fill="#E6E6E6" fill-opacity=".51"/></g></svg><svg viewBox="0 0 59 60" id="kkjjsprite"><svg fill="none" viewBox="0 0 32 16" id="kkjjiArrow"><path d="M31.41 8.394a1 1 0 0 0 0-1.414L25.046.616a1 1 0 1 0-1.414 1.414l5.657 5.657-5.657 5.657a1 1 0 1 0 1.414 1.414l6.364-6.364zM.375 8.687h30.328v-2H.375v2z" fill="#FDFDFD"/></svg><svg fill="none" viewBox="0 0 59 60" id="kkjjiSubtract"><path fill-rule="evenodd" clip-rule="evenodd" d="M29.423 59.322a29.398 29.398 0 0 1-4.48-.387L.85 34.843a29.398 29.398 0 0 1-.386-4.48l28.96 28.96zM9.027 50.758a29.13 29.13 0 0 1-6.852-10.797l17.65 17.65a29.13 29.13 0 0 1-10.798-6.853zm24.003 8.377a29.325 29.325 0 0 0 3.495-.613L1.264 23.262a29.318 29.318 0 0 0-.613 3.494l32.379 32.38zm9.318-2.677a29.03 29.03 0 0 1-2.894 1.2L2.128 20.331c.346-.98.746-1.947 1.2-2.894l39.02 39.021zm2.464-1.33a29.109 29.109 0 0 0 2.45-1.657L6.315 12.523a29.119 29.119 0 0 0-1.656 2.451l40.154 40.154zm5.572-4.37c-.342.342-.69.674-1.045.996L8.032 10.447a29.738 29.738 0 0 1 2.045-2.045l41.307 41.306c-.323.357-.656.707-1 1.05zm2.717-3.126a29.106 29.106 0 0 0 1.652-2.445L14.599 5.033a29.13 29.13 0 0 0-2.445 1.652l40.947 40.947zm4.182-7.8c-.346.98-.746 1.946-1.2 2.892L17.063 3.702a29.057 29.057 0 0 1 2.892-1.199l37.329 37.33zm.864-2.93c.275-1.153.48-2.32.614-3.493L26.377 1.025c-1.173.134-2.34.339-3.494.614l35.264 35.264zm.412-11.596c.245 1.488.375 2.992.39 4.497L29.982.838c1.505.014 3.009.143 4.497.388l24.08 24.08zm-1.327-5.122a29.13 29.13 0 0 0-6.848-10.782 29.13 29.13 0 0 0-10.783-6.848l17.63 17.63z" fill="#212122"/></svg><svg fill="none" viewBox="0 0 53 53" id="kkjjiSubtract_pfuolet"><path fill-rule="evenodd" clip-rule="evenodd" d="M52.846 26.824a26.077 26.077 0 0 1-.343 3.98L31.124 52.182c-1.318.216-2.648.33-3.98.343l25.7-25.701zm-7.6 18.102a25.847 25.847 0 0 1-9.58 6.08l15.661-15.66a25.849 25.849 0 0 1-6.08 9.58zm7.433-21.302a26.018 26.018 0 0 0-.543-3.093L20.852 51.816c1.021.243 2.054.424 3.093.542L52.68 23.624zm-2.375-8.266c.404.842.759 1.7 1.066 2.573L18.252 51.049a25.79 25.79 0 0 1-2.573-1.066l34.625-34.625zm-1.18-2.186a25.838 25.838 0 0 0-1.467-2.17L11.324 47.337c.703.53 1.427 1.018 2.17 1.467l35.63-35.63zM45.246 8.23c.305.305.6.615.886.931L9.481 45.813a26.405 26.405 0 0 1-1.817-1.817L44.317 7.343c.315.286.625.582.93.886zm-2.773-2.41a25.682 25.682 0 0 0-2.172-1.467l-35.63 35.63c.45.742.939 1.467 1.468 2.171L42.474 5.82zm-6.927-3.713c.871.308 1.729.662 2.57 1.065L3.491 37.795a25.797 25.797 0 0 1-1.065-2.568l33.12-33.12zm-2.6-.766a26.017 26.017 0 0 0-3.094-.543L1.118 29.532c.118 1.04.3 2.073.543 3.095L32.947 1.34zM22.673.973a26.085 26.085 0 0 1 3.98-.343L.952 26.333c.013-1.332.127-2.663.343-3.981L22.673.973zm-4.541 1.175A25.848 25.848 0 0 0 8.55 8.23a25.849 25.849 0 0 0-6.08 9.582L18.131 2.148z" fill="#AD13FB"/></svg><svg fill="none" viewBox="0 0 20 20" id="kkjjicall"><mask id="kkjjiba" style="mask-type:alpha" maskUnits="userSpaceOnUse" x="0" y="0" width="20" height="20"><path fill="#D9D9D9" d="M0 0h20v20H0z"/></mask><g mask="url(#kkjjiba)"><path d="M16.625 17.5c-1.792 0-3.538-.4-5.24-1.198a15.872 15.872 0 0 1-4.52-3.167 15.87 15.87 0 0 1-3.167-4.52C2.9 6.912 2.5 5.166 2.5 3.374c0-.25.083-.458.25-.625a.848.848 0 0 1 .625-.25H6.75a.8.8 0 0 1 .52.188.733.733 0 0 1 .272.479l.541 2.916c.028.195.025.372-.01.531a.856.856 0 0 1-.24.428l-2 2.041a13.84 13.84 0 0 0 2.188 2.813c.875.875 1.84 1.632 2.896 2.27l1.958-1.958a1.17 1.17 0 0 1 .49-.281c.201-.063.399-.08.593-.052l2.875.583a.848.848 0 0 1 .48.281.762.762 0 0 1 .187.511v3.375c0 .25-.083.458-.25.625a.848.848 0 0 1-.625.25z" fill="#E6E6E6" fill-opacity=".51"/></g></svg><svg fill="none" viewBox="0 0 25 25" id="kkjjidownloading"><mask id="kkjjica" style="mask-type:alpha" maskUnits="userSpaceOnUse" x="0" y="0" width="25" height="25"><path fill="#D9D9D9" d="M.125.267h24v24h-24z"/></mask><g mask="url(#kkjjica)"><path d="M11.1 22.217a9.685 9.685 0 0 1-3.537-1.063 10.093 10.093 0 0 1-2.838-2.199 10.195 10.195 0 0 1-1.887-3.063 9.761 9.761 0 0 1-.688-3.65c0-2.583.854-4.82 2.563-6.713 1.708-1.891 3.845-2.979 6.412-3.262v2c-2.017.283-3.683 1.18-5 2.687-1.317 1.509-1.975 3.271-1.975 5.288 0 2.017.658 3.78 1.975 5.287 1.317 1.509 2.975 2.405 4.975 2.688v2zm1-4.95-5.025-5.05L8.5 10.792l2.6 2.6V7.267h2v6.125l2.575-2.575 1.425 1.45-5 5zm1 4.95v-2a7.993 7.993 0 0 0 2.063-.575A8.634 8.634 0 0 0 17 18.567l1.45 1.45a10.765 10.765 0 0 1-2.525 1.488 9.92 9.92 0 0 1-2.825.712zm3.95-16.3a9.232 9.232 0 0 0-1.863-1.075 7.977 7.977 0 0 0-2.062-.575v-2c.983.1 1.925.337 2.825.712.9.375 1.733.871 2.5 1.488l-1.4 1.45zm2.8 12.65-1.4-1.425a7.884 7.884 0 0 0 1.05-1.838c.267-.658.45-1.345.55-2.062h2.05a11.767 11.767 0 0 1-.75 2.837 9.126 9.126 0 0 1-1.5 2.488zm.2-7.325a8.665 8.665 0 0 0-.55-2.063 7.892 7.892 0 0 0-1.05-1.837l1.4-1.425a9.649 9.649 0 0 1 1.525 2.487c.383.909.625 1.855.725 2.838h-2.05z" fill="#194BFD"/></g></svg><svg fill="none" viewBox="0 0 8 12" id="kkjjifacebook"><path d="M4.931 12V6.535h1.844l.274-2.14H4.931V3.033c0-.618.173-1.04 1.059-1.04h1.122V.084A14.893 14.893 0 0 0 5.468 0c-1.63 0-2.749.995-2.749 2.821v1.57H.888v2.14h1.835V12h2.208z" fill="#E6E6E6"/></svg><svg fill="none" viewBox="0 0 12 12" id="kkjjiin"><path fill-rule="evenodd" clip-rule="evenodd" d="M4.457 4.181h2.229v1.11c.32-.638 1.144-1.212 2.38-1.212C11.438 4.08 12 5.35 12 7.682V12H9.6V8.213c0-1.328-.321-2.077-1.138-2.077-1.134 0-1.605.807-1.605 2.076V12h-2.4V4.181zM.342 11.898h2.4V4.079h-2.4v7.819zM3.086 1.53a1.518 1.518 0 0 1-.452 1.081 1.554 1.554 0 0 1-2.183 0A1.529 1.529 0 0 1 0 1.53C0 1.124.162.735.452.448a1.55 1.55 0 0 1 2.182 0c.29.287.452.676.452 1.082z" fill="#E6E6E6"/></svg><svg fill="currentColor" class="kkjjifbi kkjjifbi-list" viewBox="0 0 16 16" id="kkjjilist"><path fill-rule="evenodd" d="M2.5 12a.5.5 0 0 1 .5-.5h10a.5.5 0 0 1 0 1H3a.5.5 0 0 1-.5-.5m0-4a.5.5 0 0 1 .5-.5h10a.5.5 0 0 1 0 1H3a.5.5 0 0 1-.5-.5m0-4a.5.5 0 0 1 .5-.5h10a.5.5 0 0 1 0 1H3a.5.5 0 0 1-.5-.5"/></svg><svg fill="none" viewBox="0 0 20 20" id="kkjjilocation"><mask id="kkjjiga" style="mask-type:alpha" maskUnits="userSpaceOnUse" x="0" y="0" width="20" height="20"><path fill="#D9D9D9" d="M0 0h20v20H0z"/></mask><g mask="url(#kkjjiga)"><path d="M10 10c.458 0 .85-.163 1.178-.49.326-.326.489-.718.489-1.177 0-.458-.163-.85-.49-1.177A1.607 1.607 0 0 0 10 6.666c-.458 0-.85.164-1.177.49a1.61 1.61 0 0 0-.49 1.177c0 .459.164.851.49 1.177.326.327.719.49 1.177.49zm0 8.333c-2.236-1.902-3.906-3.67-5.01-5.302-1.104-1.632-1.657-3.142-1.657-4.53 0-2.084.67-3.744 2.011-4.98C6.684 2.285 8.236 1.667 10 1.667c1.764 0 3.316.618 4.656 1.854 1.34 1.236 2.01 2.896 2.01 4.98 0 1.388-.551 2.898-1.655 4.53-1.105 1.632-2.775 3.4-5.011 5.302z" fill="#E6E6E6" fill-opacity=".51"/></g></svg><svg fill="none" viewBox="0 0 20 20" id="kkjjisend"><mask id="kkjjiha" style="mask-type:alpha" maskUnits="userSpaceOnUse" x="0" y="0" width="20" height="20"><path fill="#D9D9D9" d="M0 0h20v20H0z"/></mask><g mask="url(#kkjjiha)"><path d="M2.5 16.667v-5L9.167 10 2.5 8.333v-5L18.333 10 2.5 16.667z" fill="#E6E6E6" fill-opacity=".51"/></g></svg><svg viewBox="0 0 25 25" id="kkjjisprite"><svg fill="none" viewBox="0 0 20 20" id="kkjjiicall"><mask id="kkjjiiaa" style="mask-type:alpha" maskUnits="userSpaceOnUse" x="0" y="0" width="20" height="20"><path fill="#D9D9D9" d="M0 0h20v20H0z"/></mask><g mask="url(#kkjjiiaa)"><path d="M16.625 17.5c-1.792 0-3.538-.4-5.24-1.198a15.872 15.872 0 0 1-4.52-3.167 15.87 15.87 0 0 1-3.167-4.52C2.9 6.912 2.5 5.166 2.5 3.374c0-.25.083-.458.25-.625a.848.848 0 0 1 .625-.25H6.75a.8.8 0 0 1 .52.188.733.733 0 0 1 .272.479l.541 2.916c.028.195.025.372-.01.531a.856.856 0 0 1-.24.428l-2 2.041a13.84 13.84 0 0 0 2.188 2.813c.875.875 1.84 1.632 2.896 2.27l1.958-1.958a1.17 1.17 0 0 1 .49-.281c.201-.063.399-.08.593-.052l2.875.583a.848.848 0 0 1 .48.281.762.762 0 0 1 .187.511v3.375c0 .25-.083.458-.25.625a.848.848 0 0 1-.625.25z" fill="#E6E6E6" fill-opacity=".51"/></g></svg><svg fill="none" viewBox="0 0 25 25" id="kkjjiidownloading"><mask id="kkjjiiba" style="mask-type:alpha" maskUnits="userSpaceOnUse" x="0" y="0" width="25" height="25"><path fill="#D9D9D9" d="M.125.267h24v24h-24z"/></mask><g mask="url(#kkjjiiba)"><path d="M11.1 22.217a9.685 9.685 0 0 1-3.537-1.063 10.093 10.093 0 0 1-2.838-2.199 10.195 10.195 0 0 1-1.887-3.063 9.761 9.761 0 0 1-.688-3.65c0-2.583.854-4.82 2.563-6.713 1.708-1.891 3.845-2.979 6.412-3.262v2c-2.017.283-3.683 1.18-5 2.687-1.317 1.509-1.975 3.271-1.975 5.288 0 2.017.658 3.78 1.975 5.287 1.317 1.509 2.975 2.405 4.975 2.688v2zm1-4.95-5.025-5.05L8.5 10.792l2.6 2.6V7.267h2v6.125l2.575-2.575 1.425 1.45-5 5zm1 4.95v-2a7.993 7.993 0 0 0 2.063-.575A8.634 8.634 0 0 0 17 18.567l1.45 1.45a10.765 10.765 0 0 1-2.525 1.488 9.92 9.92 0 0 1-2.825.712zm3.95-16.3a9.232 9.232 0 0 0-1.863-1.075 7.977 7.977 0 0 0-2.062-.575v-2c.983.1 1.925.337 2.825.712.9.375 1.733.871 2.5 1.488l-1.4 1.45zm2.8 12.65-1.4-1.425a7.884 7.884 0 0 0 1.05-1.838c.267-.658.45-1.345.55-2.062h2.05a11.767 11.767 0 0 1-.75 2.837 9.126 9.126 0 0 1-1.5 2.488zm.2-7.325a8.665 8.665 0 0 0-.55-2.063 7.892 7.892 0 0 0-1.05-1.837l1.4-1.425a9.649 9.649 0 0 1 1.525 2.487c.383.909.625 1.855.725 2.838h-2.05z" fill="#194BFD"/></g></svg><svg fill="none" viewBox="0 0 8 12" id="kkjjiifacebook"><path d="M4.931 12V6.535h1.844l.274-2.14H4.931V3.033c0-.618.173-1.04 1.059-1.04h1.122V.084A14.893 14.893 0 0 0 5.468 0c-1.63 0-2.749.995-2.749 2.821v1.57H.888v2.14h1.835V12h2.208z" fill="#E6E6E6"/></svg><svg fill="none" viewBox="0 0 12 12" id="kkjjiiin"><path fill-rule="evenodd" clip-rule="evenodd" d="M4.457 4.181h2.229v1.11c.32-.638 1.144-1.212 2.38-1.212C11.438 4.08 12 5.35 12 7.682V12H9.6V8.213c0-1.328-.321-2.077-1.138-2.077-1.134 0-1.605.807-1.605 2.076V12h-2.4V4.181zM.342 11.898h2.4V4.079h-2.4v7.819zM3.086 1.53a1.518 1.518 0 0 1-.452 1.081 1.554 1.554 0 0 1-2.183 0A1.529 1.529 0 0 1 0 1.53C0 1.124.162.735.452.448a1.55 1.55 0 0 1 2.182 0c.29.287.452.676.452 1.082z" fill="#E6E6E6"/></svg><svg fill="currentColor" class="kkjjiiebi kkjjiiebi-list" viewBox="0 0 16 16" id="kkjjiilist"><path fill-rule="evenodd" d="M2.5 12a.5.5 0 0 1 .5-.5h10a.5.5 0 0 1 0 1H3a.5.5 0 0 1-.5-.5m0-4a.5.5 0 0 1 .5-.5h10a.5.5 0 0 1 0 1H3a.5.5 0 0 1-.5-.5m0-4a.5.5 0 0 1 .5-.5h10a.5.5 0 0 1 0 1H3a.5.5 0 0 1-.5-.5"/></svg><svg fill="none" viewBox="0 0 20 20" id="kkjjiilocation"><mask id="kkjjiifa" style="mask-type:alpha" maskUnits="userSpaceOnUse" x="0" y="0" width="20" height="20"><path fill="#D9D9D9" d="M0 0h20v20H0z"/></mask><g mask="url(#kkjjiifa)"><path d="M10 10c.458 0 .85-.163 1.178-.49.326-.326.489-.718.489-1.177 0-.458-.163-.85-.49-1.177A1.607 1.607 0 0 0 10 6.666c-.458 0-.85.164-1.177.49a1.61 1.61 0 0 0-.49 1.177c0 .459.164.851.49 1.177.326.327.719.49 1.177.49zm0 8.333c-2.236-1.902-3.906-3.67-5.01-5.302-1.104-1.632-1.657-3.142-1.657-4.53 0-2.084.67-3.744 2.011-4.98C6.684 2.285 8.236 1.667 10 1.667c1.764 0 3.316.618 4.656 1.854 1.34 1.236 2.01 2.896 2.01 4.98 0 1.388-.551 2.898-1.655 4.53-1.105 1.632-2.775 3.4-5.011 5.302z" fill="#E6E6E6" fill-opacity=".51"/></g></svg><svg fill="none" viewBox="0 0 20 20" id="kkjjiisend"><mask id="kkjjiiga" style="mask-type:alpha" maskUnits="userSpaceOnUse" x="0" y="0" width="20" height="20"><path fill="#D9D9D9" d="M0 0h20v20H0z"/></mask><g mask="url(#kkjjiiga)"><path d="M2.5 16.667v-5L9.167 10 2.5 8.333v-5L18.333 10 2.5 16.667z" fill="#E6E6E6" fill-opacity=".51"/></g></svg><svg viewBox="0 0 25 25" id="kkjjiisprite"><svg fill="none" viewBox="0 0 20 20" id="kkjjiihcall"><mask id="kkjjiihaa" style="mask-type:alpha" maskUnits="userSpaceOnUse" x="0" y="0" width="20" height="20"><path fill="#D9D9D9" d="M0 0h20v20H0z"/></mask><g mask="url(#kkjjiihaa)"><path d="M16.625 17.5c-1.792 0-3.538-.4-5.24-1.198a15.872 15.872 0 0 1-4.52-3.167 15.87 15.87 0 0 1-3.167-4.52C2.9 6.912 2.5 5.166 2.5 3.374c0-.25.083-.458.25-.625a.848.848 0 0 1 .625-.25H6.75a.8.8 0 0 1 .52.188.733.733 0 0 1 .272.479l.541 2.916c.028.195.025.372-.01.531a.856.856 0 0 1-.24.428l-2 2.041a13.84 13.84 0 0 0 2.188 2.813c.875.875 1.84 1.632 2.896 2.27l1.958-1.958a1.17 1.17 0 0 1 .49-.281c.201-.063.399-.08.593-.052l2.875.583a.848.848 0 0 1 .48.281.762.762 0 0 1 .187.511v3.375c0 .25-.083.458-.25.625a.848.848 0 0 1-.625.25z" fill="#E6E6E6" fill-opacity=".51"/></g></svg><svg fill="none" viewBox="0 0 25 25" id="kkjjiihdownloading"><mask id="kkjjiihba" style="mask-type:alpha" maskUnits="userSpaceOnUse" x="0" y="0" width="25" height="25"><path fill="#D9D9D9" d="M.125.267h24v24h-24z"/></mask><g mask="url(#kkjjiihba)"><path d="M11.1 22.217a9.685 9.685 0 0 1-3.537-1.063 10.093 10.093 0 0 1-2.838-2.199 10.195 10.195 0 0 1-1.887-3.063 9.761 9.761 0 0 1-.688-3.65c0-2.583.854-4.82 2.563-6.713 1.708-1.891 3.845-2.979 6.412-3.262v2c-2.017.283-3.683 1.18-5 2.687-1.317 1.509-1.975 3.271-1.975 5.288 0 2.017.658 3.78 1.975 5.287 1.317 1.509 2.975 2.405 4.975 2.688v2zm1-4.95-5.025-5.05L8.5 10.792l2.6 2.6V7.267h2v6.125l2.575-2.575 1.425 1.45-5 5zm1 4.95v-2a7.993 7.993 0 0 0 2.063-.575A8.634 8.634 0 0 0 17 18.567l1.45 1.45a10.765 10.765 0 0 1-2.525 1.488 9.92 9.92 0 0 1-2.825.712zm3.95-16.3a9.232 9.232 0 0 0-1.863-1.075 7.977 7.977 0 0 0-2.062-.575v-2c.983.1 1.925.337 2.825.712.9.375 1.733.871 2.5 1.488l-1.4 1.45zm2.8 12.65-1.4-1.425a7.884 7.884 0 0 0 1.05-1.838c.267-.658.45-1.345.55-2.062h2.05a11.767 11.767 0 0 1-.75 2.837 9.126 9.126 0 0 1-1.5 2.488zm.2-7.325a8.665 8.665 0 0 0-.55-2.063 7.892 7.892 0 0 0-1.05-1.837l1.4-1.425a9.649 9.649 0 0 1 1.525 2.487c.383.909.625 1.855.725 2.838h-2.05z" fill="#194BFD"/></g></svg><svg fill="none" viewBox="0 0 8 12" id="kkjjiihfacebook"><path d="M4.931 12V6.535h1.844l.274-2.14H4.931V3.033c0-.618.173-1.04 1.059-1.04h1.122V.084A14.893 14.893 0 0 0 5.468 0c-1.63 0-2.749.995-2.749 2.821v1.57H.888v2.14h1.835V12h2.208z" fill="#E6E6E6"/></svg><svg fill="none" viewBox="0 0 12 12" id="kkjjiihin"><path fill-rule="evenodd" clip-rule="evenodd" d="M4.457 4.181h2.229v1.11c.32-.638 1.144-1.212 2.38-1.212C11.438 4.08 12 5.35 12 7.682V12H9.6V8.213c0-1.328-.321-2.077-1.138-2.077-1.134 0-1.605.807-1.605 2.076V12h-2.4V4.181zM.342 11.898h2.4V4.079h-2.4v7.819zM3.086 1.53a1.518 1.518 0 0 1-.452 1.081 1.554 1.554 0 0 1-2.183 0A1.529 1.529 0 0 1 0 1.53C0 1.124.162.735.452.448a1.55 1.55 0 0 1 2.182 0c.29.287.452.676.452 1.082z" fill="#E6E6E6"/></svg><svg fill="none" viewBox="0 0 20 20" id="kkjjiihlocation"><mask id="kkjjiihea" style="mask-type:alpha" maskUnits="userSpaceOnUse" x="0" y="0" width="20" height="20"><path fill="#D9D9D9" d="M0 0h20v20H0z"/></mask><g mask="url(#kkjjiihea)"><path d="M10 10c.458 0 .85-.163 1.178-.49.326-.326.489-.718.489-1.177 0-.458-.163-.85-.49-1.177A1.607 1.607 0 0 0 10 6.666c-.458 0-.85.164-1.177.49a1.61 1.61 0 0 0-.49 1.177c0 .459.164.851.49 1.177.326.327.719.49 1.177.49zm0 8.333c-2.236-1.902-3.906-3.67-5.01-5.302-1.104-1.632-1.657-3.142-1.657-4.53 0-2.084.67-3.744 2.011-4.98C6.684 2.285 8.236 1.667 10 1.667c1.764 0 3.316.618 4.656 1.854 1.34 1.236 2.01 2.896 2.01 4.98 0 1.388-.551 2.898-1.655 4.53-1.105 1.632-2.775 3.4-5.011 5.302z" fill="#E6E6E6" fill-opacity=".51"/></g></svg><svg fill="none" viewBox="0 0 20 20" id="kkjjiihsend"><mask id="kkjjiihfa" style="mask-type:alpha" maskUnits="userSpaceOnUse" x="0" y="0" width="20" height="20"><path fill="#D9D9D9" d="M0 0h20v20H0z"/></mask><g mask="url(#kkjjiihfa)"><path d="M2.5 16.667v-5L9.167 10 2.5 8.333v-5L18.333 10 2.5 16.667z" fill="#E6E6E6" fill-opacity=".51"/></g></svg><svg viewBox="0 0 25 25" id="kkjjiihsprite"><svg fill="none" viewBox="0 0 25 25" id="kkjjiihgdownloading"><mask id="kkjjiihgaa" style="mask-type:alpha" maskUnits="userSpaceOnUse" x="0" y="0" width="25" height="25"><path fill="#D9D9D9" d="M.125.267h24v24h-24z"/></mask><g mask="url(#kkjjiihgaa)"><path d="M11.1 22.217a9.685 9.685 0 0 1-3.537-1.063 10.093 10.093 0 0 1-2.838-2.199 10.195 10.195 0 0 1-1.887-3.063 9.761 9.761 0 0 1-.688-3.65c0-2.583.854-4.82 2.563-6.713 1.708-1.891 3.845-2.979 6.412-3.262v2c-2.017.283-3.683 1.18-5 2.687-1.317 1.509-1.975 3.271-1.975 5.288 0 2.017.658 3.78 1.975 5.287 1.317 1.509 2.975 2.405 4.975 2.688v2zm1-4.95-5.025-5.05L8.5 10.792l2.6 2.6V7.267h2v6.125l2.575-2.575 1.425 1.45-5 5zm1 4.95v-2a7.993 7.993 0 0 0 2.063-.575A8.634 8.634 0 0 0 17 18.567l1.45 1.45a10.765 10.765 0 0 1-2.525 1.488 9.92 9.92 0 0 1-2.825.712zm3.95-16.3a9.232 9.232 0 0 0-1.863-1.075 7.977 7.977 0 0 0-2.062-.575v-2c.983.1 1.925.337 2.825.712.9.375 1.733.871 2.5 1.488l-1.4 1.45zm2.8 12.65-1.4-1.425a7.884 7.884 0 0 0 1.05-1.838c.267-.658.45-1.345.55-2.062h2.05a11.767 11.767 0 0 1-.75 2.837 9.126 9.126 0 0 1-1.5 2.488zm.2-7.325a8.665 8.665 0 0 0-.55-2.063 7.892 7.892 0 0 0-1.05-1.837l1.4-1.425a9.649 9.649 0 0 1 1.525 2.487c.383.909.625 1.855.725 2.838h-2.05z" fill="#194BFD"/></g></svg><svg viewBox="0 0 25 25" id="kkjjiihgsprite"><svg fill="none" viewBox="0 0 25 25" id="kkjjiihgbdownloading"><mask id="kkjjiihgbaa" style="mask-type:alpha" maskUnits="userSpaceOnUse" x="0" y="0" width="25" height="25"><path fill="#D9D9D9" d="M.125.267h24v24h-24z"/></mask><g mask="url(#kkjjiihgbaa)"><path d="M11.1 22.217a9.685 9.685 0 0 1-3.537-1.063 10.093 10.093 0 0 1-2.838-2.199 10.195 10.195 0 0 1-1.887-3.063 9.761 9.761 0 0 1-.688-3.65c0-2.583.854-4.82 2.563-6.713 1.708-1.891 3.845-2.979 6.412-3.262v2c-2.017.283-3.683 1.18-5 2.687-1.317 1.509-1.975 3.271-1.975 5.288 0 2.017.658 3.78 1.975 5.287 1.317 1.509 2.975 2.405 4.975 2.688v2zm1-4.95-5.025-5.05L8.5 10.792l2.6 2.6V7.267h2v6.125l2.575-2.575 1.425 1.45-5 5zm1 4.95v-2a7.993 7.993 0 0 0 2.063-.575A8.634 8.634 0 0 0 17 18.567l1.45 1.45a10.765 10.765 0 0 1-2.525 1.488 9.92 9.92 0 0 1-2.825.712zm3.95-16.3a9.232 9.232 0 0 0-1.863-1.075 7.977 7.977 0 0 0-2.062-.575v-2c.983.1 1.925.337 2.825.712.9.375 1.733.871 2.5 1.488l-1.4 1.45zm2.8 12.65-1.4-1.425a7.884 7.884 0 0 0 1.05-1.838c.267-.658.45-1.345.55-2.062h2.05a11.767 11.767 0 0 1-.75 2.837 9.126 9.126 0 0 1-1.5 2.488zm.2-7.325a8.665 8.665 0 0 0-.55-2.063 7.892 7.892 0 0 0-1.05-1.837l1.4-1.425a9.649 9.649 0 0 1 1.525 2.487c.383.909.625 1.855.725 2.838h-2.05z" fill="#194BFD"/></g></svg><svg viewBox="0 0 25 25" id="kkjjiihgbsprite"><svg fill="none" viewBox="0 0 25 25" id="kkjjiihgbbdownloading"><mask id="kkjjiihgbbaa" style="mask-type:alpha" maskUnits="userSpaceOnUse" x="0" y="0" width="25" height="25"><path fill="#D9D9D9" d="M.125.267h24v24h-24z"/></mask><g mask="url(#kkjjiihgbbaa)"><path d="M11.1 22.217a9.685 9.685 0 0 1-3.537-1.063 10.093 10.093 0 0 1-2.838-2.199 10.195 10.195 0 0 1-1.887-3.063 9.761 9.761 0 0 1-.688-3.65c0-2.583.854-4.82 2.563-6.713 1.708-1.891 3.845-2.979 6.412-3.262v2c-2.017.283-3.683 1.18-5 2.687-1.317 1.509-1.975 3.271-1.975 5.288 0 2.017.658 3.78 1.975 5.287 1.317 1.509 2.975 2.405 4.975 2.688v2zm1-4.95-5.025-5.05L8.5 10.792l2.6 2.6V7.267h2v6.125l2.575-2.575 1.425 1.45-5 5zm1 4.95v-2a7.993 7.993 0 0 0 2.063-.575A8.634 8.634 0 0 0 17 18.567l1.45 1.45a10.765 10.765 0 0 1-2.525 1.488 9.92 9.92 0 0 1-2.825.712zm3.95-16.3a9.232 9.232 0 0 0-1.863-1.075 7.977 7.977 0 0 0-2.062-.575v-2c.983.1 1.925.337 2.825.712.9.375 1.733.871 2.5 1.488l-1.4 1.45zm2.8 12.65-1.4-1.425a7.884 7.884 0 0 0 1.05-1.838c.267-.658.45-1.345.55-2.062h2.05a11.767 11.767 0 0 1-.75 2.837 9.126 9.126 0 0 1-1.5 2.488zm.2-7.325a8.665 8.665 0 0 0-.55-2.063 7.892 7.892 0 0 0-1.05-1.837l1.4-1.425a9.649 9.649 0 0 1 1.525 2.487c.383.909.625 1.855.725 2.838h-2.05z" fill="#194BFD"/></g></svg><svg viewBox="0 0 25 25" id="kkjjiihgbbsprite"><svg fill="none" viewBox="0 0 25 25" id="kkjjiihgbbbdownloading"><mask id="kkjjiihgbbbaa" style="mask-type:alpha" maskUnits="userSpaceOnUse" x="0" y="0" width="25" height="25"><path fill="#D9D9D9" d="M.125.267h24v24h-24z"/></mask><g mask="url(#kkjjiihgbbbaa)"><path d="M11.1 22.217a9.685 9.685 0 0 1-3.537-1.063 10.093 10.093 0 0 1-2.838-2.199 10.195 10.195 0 0 1-1.887-3.063 9.761 9.761 0 0 1-.688-3.65c0-2.583.854-4.82 2.563-6.713 1.708-1.891 3.845-2.979 6.412-3.262v2c-2.017.283-3.683 1.18-5 2.687-1.317 1.509-1.975 3.271-1.975 5.288 0 2.017.658 3.78 1.975 5.287 1.317 1.509 2.975 2.405 4.975 2.688v2zm1-4.95-5.025-5.05L8.5 10.792l2.6 2.6V7.267h2v6.125l2.575-2.575 1.425 1.45-5 5zm1 4.95v-2a7.993 7.993 0 0 0 2.063-.575A8.634 8.634 0 0 0 17 18.567l1.45 1.45a10.765 10.765 0 0 1-2.525 1.488 9.92 9.92 0 0 1-2.825.712zm3.95-16.3a9.232 9.232 0 0 0-1.863-1.075 7.977 7.977 0 0 0-2.062-.575v-2c.983.1 1.925.337 2.825.712.9.375 1.733.871 2.5 1.488l-1.4 1.45zm2.8 12.65-1.4-1.425a7.884 7.884 0 0 0 1.05-1.838c.267-.658.45-1.345.55-2.062h2.05a11.767 11.767 0 0 1-.75 2.837 9.126 9.126 0 0 1-1.5 2.488zm.2-7.325a8.665 8.665 0 0 0-.55-2.063 7.892 7.892 0 0 0-1.05-1.837l1.4-1.425a9.649 9.649 0 0 1 1.525 2.487c.383.909.625 1.855.725 2.838h-2.05z" fill="#194BFD"/></g></svg></svg></svg><svg fill="none" viewBox="0 0 18 12" id="kkjjiihgbyoutube"><path d="M17.273 5.948c0-.04 0-.087-.002-.14-.001-.15-.005-.318-.009-.497a27.76 27.76 0 0 0-.081-1.512c-.055-.667-.137-1.223-.248-1.64a2.576 2.576 0 0 0-1.815-1.82C14.596.2 13.572.114 12.132.06A86.846 86.846 0 0 0 9.981.007L9.27 0h-.54l-.71.007a89.93 89.93 0 0 0-2.151.052c-1.44.055-2.465.142-2.986.28a2.573 2.573 0 0 0-1.816 1.82c-.112.417-.192.973-.247 1.64-.04.484-.066.997-.081 1.512-.006.18-.008.347-.01.497l-.001.14v.104c0 .04 0 .087.002.14.001.15.005.318.009.497.015.515.04 1.028.081 1.512.055.667.137 1.223.247 1.64a2.576 2.576 0 0 0 1.816 1.82c.52.14 1.546.226 2.986.28a89.93 89.93 0 0 0 2.151.052l.71.007h.542l.71-.007a86.46 86.46 0 0 0 2.151-.052c1.44-.056 2.465-.142 2.986-.28a2.57 2.57 0 0 0 1.815-1.82c.113-.417.193-.973.248-1.64.04-.484.066-.997.081-1.512.006-.18.008-.347.01-.497l.001-.14v-.104zm-1.33.096-.001.131c-.002.144-.006.303-.01.475-.012.491-.038.982-.077 1.439-.05.594-.12 1.082-.207 1.409-.114.426-.45.764-.875.877-.388.103-1.365.186-2.693.236a84.465 84.465 0 0 1-2.816.057h-.528l-.698-.005a84.684 84.684 0 0 1-2.118-.052c-1.328-.051-2.307-.133-2.693-.236a1.246 1.246 0 0 1-.875-.877c-.087-.327-.157-.815-.207-1.41a26.757 26.757 0 0 1-.078-1.438c-.005-.172-.007-.332-.009-.475l-.002-.13v-.09c0-.038 0-.08.002-.13.002-.144.006-.303.01-.475.012-.491.038-.982.077-1.439.05-.594.12-1.082.207-1.409.114-.426.45-.764.875-.877.388-.103 1.365-.186 2.693-.236a83.898 83.898 0 0 1 2.816-.058h.528l.698.006c.722.01 1.444.026 2.118.052 1.328.051 2.307.133 2.693.236.425.115.76.45.875.877.087.327.157.815.207 1.41.039.455.063.947.078 1.438.005.172.007.332.009.475l.002.13v.09zm-8.587 2.43 4.285-2.492-4.285-2.457v4.95z" fill="#E6E6E6"/></svg></svg><svg fill="none" viewBox="0 0 18 12" id="kkjjiihgyoutube"><path d="M17.273 5.948c0-.04 0-.087-.002-.14-.001-.15-.005-.318-.009-.497a27.76 27.76 0 0 0-.081-1.512c-.055-.667-.137-1.223-.248-1.64a2.576 2.576 0 0 0-1.815-1.82C14.596.2 13.572.114 12.132.06A86.846 86.846 0 0 0 9.981.007L9.27 0h-.54l-.71.007a89.93 89.93 0 0 0-2.151.052c-1.44.055-2.465.142-2.986.28a2.573 2.573 0 0 0-1.816 1.82c-.112.417-.192.973-.247 1.64-.04.484-.066.997-.081 1.512-.006.18-.008.347-.01.497l-.001.14v.104c0 .04 0 .087.002.14.001.15.005.318.009.497.015.515.04 1.028.081 1.512.055.667.137 1.223.247 1.64a2.576 2.576 0 0 0 1.816 1.82c.52.14 1.546.226 2.986.28a89.93 89.93 0 0 0 2.151.052l.71.007h.542l.71-.007a86.46 86.46 0 0 0 2.151-.052c1.44-.056 2.465-.142 2.986-.28a2.57 2.57 0 0 0 1.815-1.82c.113-.417.193-.973.248-1.64.04-.484.066-.997.081-1.512.006-.18.008-.347.01-.497l.001-.14v-.104zm-1.33.096-.001.131c-.002.144-.006.303-.01.475-.012.491-.038.982-.077 1.439-.05.594-.12 1.082-.207 1.409-.114.426-.45.764-.875.877-.388.103-1.365.186-2.693.236a84.465 84.465 0 0 1-2.816.057h-.528l-.698-.005a84.684 84.684 0 0 1-2.118-.052c-1.328-.051-2.307-.133-2.693-.236a1.246 1.246 0 0 1-.875-.877c-.087-.327-.157-.815-.207-1.41a26.757 26.757 0 0 1-.078-1.438c-.005-.172-.007-.332-.009-.475l-.002-.13v-.09c0-.038 0-.08.002-.13.002-.144.006-.303.01-.475.012-.491.038-.982.077-1.439.05-.594.12-1.082.207-1.409.114-.426.45-.764.875-.877.388-.103 1.365-.186 2.693-.236a83.898 83.898 0 0 1 2.816-.058h.528l.698.006c.722.01 1.444.026 2.118.052 1.328.051 2.307.133 2.693.236.425.115.76.45.875.877.087.327.157.815.207 1.41.039.455.063.947.078 1.438.005.172.007.332.009.475l.002.13v.09zm-8.587 2.43 4.285-2.492-4.285-2.457v4.95z" fill="#E6E6E6"/></svg></svg><svg fill="none" viewBox="0 0 8 12" id="kkjjiihtelegram"><path d="M7.657 11.333V9.426c-.618.413-1.219.618-1.802.618-.275 0-.583-.087-.927-.256-.206-.14-.327-.292-.363-.464-.101-.207-.164-.654-.164-1.342V4.944h2.77V3.098H4.4V0H2.765c-.137.722-.275 1.235-.413 1.544-.17.379-.445.722-.823 1.03-.35.295-.752.522-1.186.67v1.7h1.289v4.173c0 .48.067.89.206 1.234.102.275.308.55.62.825.238.242.582.447 1.028.618.55.139 1.029.206 1.442.206.48 0 .927-.052 1.339-.154a5.304 5.304 0 0 0 1.39-.513z" fill="#E6E6E6"/></svg><svg fill="none" viewBox="0 0 18 12" id="kkjjiihyoutube"><path d="M17.273 5.948c0-.04 0-.087-.002-.14-.001-.15-.005-.318-.009-.497a27.76 27.76 0 0 0-.081-1.512c-.055-.667-.137-1.223-.248-1.64a2.576 2.576 0 0 0-1.815-1.82C14.596.2 13.572.114 12.132.06A86.846 86.846 0 0 0 9.981.007L9.27 0h-.54l-.71.007a89.93 89.93 0 0 0-2.151.052c-1.44.055-2.465.142-2.986.28a2.573 2.573 0 0 0-1.816 1.82c-.112.417-.192.973-.247 1.64-.04.484-.066.997-.081 1.512-.006.18-.008.347-.01.497l-.001.14v.104c0 .04 0 .087.002.14.001.15.005.318.009.497.015.515.04 1.028.081 1.512.055.667.137 1.223.247 1.64a2.576 2.576 0 0 0 1.816 1.82c.52.14 1.546.226 2.986.28a89.93 89.93 0 0 0 2.151.052l.71.007h.542l.71-.007a86.46 86.46 0 0 0 2.151-.052c1.44-.056 2.465-.142 2.986-.28a2.57 2.57 0 0 0 1.815-1.82c.113-.417.193-.973.248-1.64.04-.484.066-.997.081-1.512.006-.18.008-.347.01-.497l.001-.14v-.104zm-1.33.096-.001.131c-.002.144-.006.303-.01.475-.012.491-.038.982-.077 1.439-.05.594-.12 1.082-.207 1.409-.114.426-.45.764-.875.877-.388.103-1.365.186-2.693.236a84.465 84.465 0 0 1-2.816.057h-.528l-.698-.005a84.684 84.684 0 0 1-2.118-.052c-1.328-.051-2.307-.133-2.693-.236a1.246 1.246 0 0 1-.875-.877c-.087-.327-.157-.815-.207-1.41a26.757 26.757 0 0 1-.078-1.438c-.005-.172-.007-.332-.009-.475l-.002-.13v-.09c0-.038 0-.08.002-.13.002-.144.006-.303.01-.475.012-.491.038-.982.077-1.439.05-.594.12-1.082.207-1.409.114-.426.45-.764.875-.877.388-.103 1.365-.186 2.693-.236a83.898 83.898 0 0 1 2.816-.058h.528l.698.006c.722.01 1.444.026 2.118.052 1.328.051 2.307.133 2.693.236.425.115.76.45.875.877.087.327.157.815.207 1.41.039.455.063.947.078 1.438.005.172.007.332.009.475l.002.13v.09zm-8.587 2.43 4.285-2.492-4.285-2.457v4.95z" fill="#E6E6E6"/></svg></svg><svg fill="none" viewBox="0 0 8 12" id="kkjjiitelegram"><path d="M7.657 11.333V9.426c-.618.413-1.219.618-1.802.618-.275 0-.583-.087-.927-.256-.206-.14-.327-.292-.363-.464-.101-.207-.164-.654-.164-1.342V4.944h2.77V3.098H4.4V0H2.765c-.137.722-.275 1.235-.413 1.544-.17.379-.445.722-.823 1.03-.35.295-.752.522-1.186.67v1.7h1.289v4.173c0 .48.067.89.206 1.234.102.275.308.55.62.825.238.242.582.447 1.028.618.55.139 1.029.206 1.442.206.48 0 .927-.052 1.339-.154a5.304 5.304 0 0 0 1.39-.513z" fill="#E6E6E6"/></svg><svg fill="none" viewBox="0 0 18 12" id="kkjjiiyoutube"><path d="M17.273 5.948c0-.04 0-.087-.002-.14-.001-.15-.005-.318-.009-.497a27.76 27.76 0 0 0-.081-1.512c-.055-.667-.137-1.223-.248-1.64a2.576 2.576 0 0 0-1.815-1.82C14.596.2 13.572.114 12.132.06A86.846 86.846 0 0 0 9.981.007L9.27 0h-.54l-.71.007a89.93 89.93 0 0 0-2.151.052c-1.44.055-2.465.142-2.986.28a2.573 2.573 0 0 0-1.816 1.82c-.112.417-.192.973-.247 1.64-.04.484-.066.997-.081 1.512-.006.18-.008.347-.01.497l-.001.14v.104c0 .04 0 .087.002.14.001.15.005.318.009.497.015.515.04 1.028.081 1.512.055.667.137 1.223.247 1.64a2.576 2.576 0 0 0 1.816 1.82c.52.14 1.546.226 2.986.28a89.93 89.93 0 0 0 2.151.052l.71.007h.542l.71-.007a86.46 86.46 0 0 0 2.151-.052c1.44-.056 2.465-.142 2.986-.28a2.57 2.57 0 0 0 1.815-1.82c.113-.417.193-.973.248-1.64.04-.484.066-.997.081-1.512.006-.18.008-.347.01-.497l.001-.14v-.104zm-1.33.096-.001.131c-.002.144-.006.303-.01.475-.012.491-.038.982-.077 1.439-.05.594-.12 1.082-.207 1.409-.114.426-.45.764-.875.877-.388.103-1.365.186-2.693.236a84.465 84.465 0 0 1-2.816.057h-.528l-.698-.005a84.684 84.684 0 0 1-2.118-.052c-1.328-.051-2.307-.133-2.693-.236a1.246 1.246 0 0 1-.875-.877c-.087-.327-.157-.815-.207-1.41a26.757 26.757 0 0 1-.078-1.438c-.005-.172-.007-.332-.009-.475l-.002-.13v-.09c0-.038 0-.08.002-.13.002-.144.006-.303.01-.475.012-.491.038-.982.077-1.439.05-.594.12-1.082.207-1.409.114-.426.45-.764.875-.877.388-.103 1.365-.186 2.693-.236a83.898 83.898 0 0 1 2.816-.058h.528l.698.006c.722.01 1.444.026 2.118.052 1.328.051 2.307.133 2.693.236.425.115.76.45.875.877.087.327.157.815.207 1.41.039.455.063.947.078 1.438.005.172.007.332.009.475l.002.13v.09zm-8.587 2.43 4.285-2.492-4.285-2.457v4.95z" fill="#E6E6E6"/></svg></svg><svg fill="none" viewBox="0 0 47 47" id="kkjjistar"><path d="M10.097.142C17.485 12.938 13.1 29.299.305 36.687c12.795-7.388 29.157-3.005 36.545 9.792-7.388-12.797-3.004-29.158 9.792-36.545C33.846 17.32 17.485 12.938 10.097.142z" fill="url(#kkjjija)"/><defs><linearGradient id="kkjjija" x1="39.005" y1="-25.793" x2="77.962" y2="52.883" gradientUnits="userSpaceOnUse"><stop stop-color="#194BFD"/><stop offset="1" stop-color="#AD13FB"/></linearGradient></defs></svg><svg fill="none" viewBox="0 0 8 12" id="kkjjitelegram"><path d="M7.657 11.333V9.426c-.618.413-1.219.618-1.802.618-.275 0-.583-.087-.927-.256-.206-.14-.327-.292-.363-.464-.101-.207-.164-.654-.164-1.342V4.944h2.77V3.098H4.4V0H2.765c-.137.722-.275 1.235-.413 1.544-.17.379-.445.722-.823 1.03-.35.295-.752.522-1.186.67v1.7h1.289v4.173c0 .48.067.89.206 1.234.102.275.308.55.62.825.238.242.582.447 1.028.618.55.139 1.029.206 1.442.206.48 0 .927-.052 1.339-.154a5.304 5.304 0 0 0 1.39-.513z" fill="#E6E6E6"/></svg><svg fill="none" viewBox="0 0 18 12" id="kkjjiyoutube"><path d="M17.273 5.948c0-.04 0-.087-.002-.14-.001-.15-.005-.318-.009-.497a27.76 27.76 0 0 0-.081-1.512c-.055-.667-.137-1.223-.248-1.64a2.576 2.576 0 0 0-1.815-1.82C14.596.2 13.572.114 12.132.06A86.846 86.846 0 0 0 9.981.007L9.27 0h-.54l-.71.007a89.93 89.93 0 0 0-2.151.052c-1.44.055-2.465.142-2.986.28a2.573 2.573 0 0 0-1.816 1.82c-.112.417-.192.973-.247 1.64-.04.484-.066.997-.081 1.512-.006.18-.008.347-.01.497l-.001.14v.104c0 .04 0 .087.002.14.001.15.005.318.009.497.015.515.04 1.028.081 1.512.055.667.137 1.223.247 1.64a2.576 2.576 0 0 0 1.816 1.82c.52.14 1.546.226 2.986.28a89.93 89.93 0 0 0 2.151.052l.71.007h.542l.71-.007a86.46 86.46 0 0 0 2.151-.052c1.44-.056 2.465-.142 2.986-.28a2.57 2.57 0 0 0 1.815-1.82c.113-.417.193-.973.248-1.64.04-.484.066-.997.081-1.512.006-.18.008-.347.01-.497l.001-.14v-.104zm-1.33.096-.001.131c-.002.144-.006.303-.01.475-.012.491-.038.982-.077 1.439-.05.594-.12 1.082-.207 1.409-.114.426-.45.764-.875.877-.388.103-1.365.186-2.693.236a84.465 84.465 0 0 1-2.816.057h-.528l-.698-.005a84.684 84.684 0 0 1-2.118-.052c-1.328-.051-2.307-.133-2.693-.236a1.246 1.246 0 0 1-.875-.877c-.087-.327-.157-.815-.207-1.41a26.757 26.757 0 0 1-.078-1.438c-.005-.172-.007-.332-.009-.475l-.002-.13v-.09c0-.038 0-.08.002-.13.002-.144.006-.303.01-.475.012-.491.038-.982.077-1.439.05-.594.12-1.082.207-1.409.114-.426.45-.764.875-.877.388-.103 1.365-.186 2.693-.236a83.898 83.898 0 0 1 2.816-.058h.528l.698.006c.722.01 1.444.026 2.118.052 1.328.051 2.307.133 2.693.236.425.115.76.45.875.877.087.327.157.815.207 1.41.039.455.063.947.078 1.438.005.172.007.332.009.475l.002.13v.09zm-8.587 2.43 4.285-2.492-4.285-2.457v4.95z" fill="#E6E6E6"/></svg></svg><svg fill="none" viewBox="0 0 47 47" id="kkjjstar"><path d="M10.097.142C17.485 12.938 13.1 29.299.305 36.687c12.795-7.388 29.157-3.005 36.545 9.792-7.388-12.797-3.004-29.158 9.792-36.545C33.846 17.32 17.485 12.938 10.097.142z" fill="url(#kkjjja)"/><defs><linearGradient id="kkjjja" x1="39.005" y1="-25.793" x2="77.962" y2="52.883" gradientUnits="userSpaceOnUse"><stop stop-color="#194BFD"/><stop offset="1" stop-color="#AD13FB"/></linearGradient></defs></svg><svg fill="none" viewBox="0 0 8 12" id="kkjjtelegram"><path d="M7.657 11.333V9.426c-.618.413-1.219.618-1.802.618-.275 0-.583-.087-.927-.256-.206-.14-.327-.292-.363-.464-.101-.207-.164-.654-.164-1.342V4.944h2.77V3.098H4.4V0H2.765c-.137.722-.275 1.235-.413 1.544-.17.379-.445.722-.823 1.03-.35.295-.752.522-1.186.67v1.7h1.289v4.173c0 .48.067.89.206 1.234.102.275.308.55.62.825.238.242.582.447 1.028.618.55.139 1.029.206 1.442.206.48 0 .927-.052 1.339-.154a5.304 5.304 0 0 0 1.39-.513z" fill="#E6E6E6"/></svg><svg fill="none" viewBox="0 0 18 12" id="kkjjyoutube"><path d="M17.273 5.948c0-.04 0-.087-.002-.14-.001-.15-.005-.318-.009-.497a27.76 27.76 0 0 0-.081-1.512c-.055-.667-.137-1.223-.248-1.64a2.576 2.576 0 0 0-1.815-1.82C14.596.2 13.572.114 12.132.06A86.846 86.846 0 0 0 9.981.007L9.27 0h-.54l-.71.007a89.93 89.93 0 0 0-2.151.052c-1.44.055-2.465.142-2.986.28a2.573 2.573 0 0 0-1.816 1.82c-.112.417-.192.973-.247 1.64-.04.484-.066.997-.081 1.512-.006.18-.008.347-.01.497l-.001.14v.104c0 .04 0 .087.002.14.001.15.005.318.009.497.015.515.04 1.028.081 1.512.055.667.137 1.223.247 1.64a2.576 2.576 0 0 0 1.816 1.82c.52.14 1.546.226 2.986.28a89.93 89.93 0 0 0 2.151.052l.71.007h.542l.71-.007a86.46 86.46 0 0 0 2.151-.052c1.44-.056 2.465-.142 2.986-.28a2.57 2.57 0 0 0 1.815-1.82c.113-.417.193-.973.248-1.64.04-.484.066-.997.081-1.512.006-.18.008-.347.01-.497l.001-.14v-.104zm-1.33.096-.001.131c-.002.144-.006.303-.01.475-.012.491-.038.982-.077 1.439-.05.594-.12 1.082-.207 1.409-.114.426-.45.764-.875.877-.388.103-1.365.186-2.693.236a84.465 84.465 0 0 1-2.816.057h-.528l-.698-.005a84.684 84.684 0 0 1-2.118-.052c-1.328-.051-2.307-.133-2.693-.236a1.246 1.246 0 0 1-.875-.877c-.087-.327-.157-.815-.207-1.41a26.757 26.757 0 0 1-.078-1.438c-.005-.172-.007-.332-.009-.475l-.002-.13v-.09c0-.038 0-.08.002-.13.002-.144.006-.303.01-.475.012-.491.038-.982.077-1.439.05-.594.12-1.082.207-1.409.114-.426.45-.764.875-.877.388-.103 1.365-.186 2.693-.236a83.898 83.898 0 0 1 2.816-.058h.528l.698.006c.722.01 1.444.026 2.118.052 1.328.051 2.307.133 2.693.236.425.115.76.45.875.877.087.327.157.815.207 1.41.039.455.063.947.078 1.438.005.172.007.332.009.475l.002.13v.09zm-8.587 2.43 4.285-2.492-4.285-2.457v4.95z" fill="#E6E6E6"/></svg></svg><svg fill="none" viewBox="0 0 47 47" id="kkjstar"><path d="M10.097.142C17.485 12.938 13.1 29.299.305 36.687c12.795-7.388 29.157-3.005 36.545 9.792-7.388-12.797-3.004-29.158 9.792-36.545C33.846 17.32 17.485 12.938 10.097.142z" fill="url(#kkjka)"/><defs><linearGradient id="kkjka" x1="39.005" y1="-25.793" x2="77.962" y2="52.883" gradientUnits="userSpaceOnUse"><stop stop-color="#194BFD"/><stop offset="1" stop-color="#AD13FB"/></linearGradient></defs></svg><svg fill="none" viewBox="0 0 8 12" id="kkjtelegram"><path d="M7.657 11.333V9.426c-.618.413-1.219.618-1.802.618-.275 0-.583-.087-.927-.256-.206-.14-.327-.292-.363-.464-.101-.207-.164-.654-.164-1.342V4.944h2.77V3.098H4.4V0H2.765c-.137.722-.275 1.235-.413 1.544-.17.379-.445.722-.823 1.03-.35.295-.752.522-1.186.67v1.7h1.289v4.173c0 .48.067.89.206 1.234.102.275.308.55.62.825.238.242.582.447 1.028.618.55.139 1.029.206 1.442.206.48 0 .927-.052 1.339-.154a5.304 5.304 0 0 0 1.39-.513z" fill="#E6E6E6"/></svg><svg fill="none" viewBox="0 0 18 12" id="kkjyoutube"><path d="M17.273 5.948c0-.04 0-.087-.002-.14-.001-.15-.005-.318-.009-.497a27.76 27.76 0 0 0-.081-1.512c-.055-.667-.137-1.223-.248-1.64a2.576 2.576 0 0 0-1.815-1.82C14.596.2 13.572.114 12.132.06A86.846 86.846 0 0 0 9.981.007L9.27 0h-.54l-.71.007a89.93 89.93 0 0 0-2.151.052c-1.44.055-2.465.142-2.986.28a2.573 2.573 0 0 0-1.816 1.82c-.112.417-.192.973-.247 1.64-.04.484-.066.997-.081 1.512-.006.18-.008.347-.01.497l-.001.14v.104c0 .04 0 .087.002.14.001.15.005.318.009.497.015.515.04 1.028.081 1.512.055.667.137 1.223.247 1.64a2.576 2.576 0 0 0 1.816 1.82c.52.14 1.546.226 2.986.28a89.93 89.93 0 0 0 2.151.052l.71.007h.542l.71-.007a86.46 86.46 0 0 0 2.151-.052c1.44-.056 2.465-.142 2.986-.28a2.57 2.57 0 0 0 1.815-1.82c.113-.417.193-.973.248-1.64.04-.484.066-.997.081-1.512.006-.18.008-.347.01-.497l.001-.14v-.104zm-1.33.096-.001.131c-.002.144-.006.303-.01.475-.012.491-.038.982-.077 1.439-.05.594-.12 1.082-.207 1.409-.114.426-.45.764-.875.877-.388.103-1.365.186-2.693.236a84.465 84.465 0 0 1-2.816.057h-.528l-.698-.005a84.684 84.684 0 0 1-2.118-.052c-1.328-.051-2.307-.133-2.693-.236a1.246 1.246 0 0 1-.875-.877c-.087-.327-.157-.815-.207-1.41a26.757 26.757 0 0 1-.078-1.438c-.005-.172-.007-.332-.009-.475l-.002-.13v-.09c0-.038 0-.08.002-.13.002-.144.006-.303.01-.475.012-.491.038-.982.077-1.439.05-.594.12-1.082.207-1.409.114-.426.45-.764.875-.877.388-.103 1.365-.186 2.693-.236a83.898 83.898 0 0 1 2.816-.058h.528l.698.006c.722.01 1.444.026 2.118.052 1.328.051 2.307.133 2.693.236.425.115.76.45.875.877.087.327.157.815.207 1.41.039.455.063.947.078 1.438.005.172.007.332.009.475l.002.13v.09zm-8.587 2.43 4.285-2.492-4.285-2.457v4.95z" fill="#E6E6E6"/></svg></svg><svg fill="none" viewBox="0 0 47 47" id="kkstar"><path d="M10.097.142C17.485 12.938 13.1 29.299.305 36.687c12.795-7.388 29.157-3.005 36.545 9.792-7.388-12.797-3.004-29.158 9.792-36.545C33.846 17.32 17.485 12.938 10.097.142z" fill="url(#kkka)"/><defs><linearGradient id="kkka" x1="39.005" y1="-25.793" x2="77.962" y2="52.883" gradientUnits="userSpaceOnUse"><stop stop-color="#194BFD"/><stop offset="1" stop-color="#AD13FB"/></linearGradient></defs></svg><svg fill="none" viewBox="0 0 8 12" id="kktelegram"><path d="M7.657 11.333V9.426c-.618.413-1.219.618-1.802.618-.275 0-.583-.087-.927-.256-.206-.14-.327-.292-.363-.464-.101-.207-.164-.654-.164-1.342V4.944h2.77V3.098H4.4V0H2.765c-.137.722-.275 1.235-.413 1.544-.17.379-.445.722-.823 1.03-.35.295-.752.522-1.186.67v1.7h1.289v4.173c0 .48.067.89.206 1.234.102.275.308.55.62.825.238.242.582.447 1.028.618.55.139 1.029.206 1.442.206.48 0 .927-.052 1.339-.154a5.304 5.304 0 0 0 1.39-.513z" fill="#E6E6E6"/></svg><svg fill="none" viewBox="0 0 18 12" id="kkyoutube"><path d="M17.273 5.948c0-.04 0-.087-.002-.14-.001-.15-.005-.318-.009-.497a27.76 27.76 0 0 0-.081-1.512c-.055-.667-.137-1.223-.248-1.64a2.576 2.576 0 0 0-1.815-1.82C14.596.2 13.572.114 12.132.06A86.846 86.846 0 0 0 9.981.007L9.27 0h-.54l-.71.007a89.93 89.93 0 0 0-2.151.052c-1.44.055-2.465.142-2.986.28a2.573 2.573 0 0 0-1.816 1.82c-.112.417-.192.973-.247 1.64-.04.484-.066.997-.081 1.512-.006.18-.008.347-.01.497l-.001.14v.104c0 .04 0 .087.002.14.001.15.005.318.009.497.015.515.04 1.028.081 1.512.055.667.137 1.223.247 1.64a2.576 2.576 0 0 0 1.816 1.82c.52.14 1.546.226 2.986.28a89.93 89.93 0 0 0 2.151.052l.71.007h.542l.71-.007a86.46 86.46 0 0 0 2.151-.052c1.44-.056 2.465-.142 2.986-.28a2.57 2.57 0 0 0 1.815-1.82c.113-.417.193-.973.248-1.64.04-.484.066-.997.081-1.512.006-.18.008-.347.01-.497l.001-.14v-.104zm-1.33.096-.001.131c-.002.144-.006.303-.01.475-.012.491-.038.982-.077 1.439-.05.594-.12 1.082-.207 1.409-.114.426-.45.764-.875.877-.388.103-1.365.186-2.693.236a84.465 84.465 0 0 1-2.816.057h-.528l-.698-.005a84.684 84.684 0 0 1-2.118-.052c-1.328-.051-2.307-.133-2.693-.236a1.246 1.246 0 0 1-.875-.877c-.087-.327-.157-.815-.207-1.41a26.757 26.757 0 0 1-.078-1.438c-.005-.172-.007-.332-.009-.475l-.002-.13v-.09c0-.038 0-.08.002-.13.002-.144.006-.303.01-.475.012-.491.038-.982.077-1.439.05-.594.12-1.082.207-1.409.114-.426.45-.764.875-.877.388-.103 1.365-.186 2.693-.236a83.898 83.898 0 0 1 2.816-.058h.528l.698.006c.722.01 1.444.026 2.118.052 1.328.051 2.307.133 2.693.236.425.115.76.45.875.877.087.327.157.815.207 1.41.039.455.063.947.078 1.438.005.172.007.332.009.475l.002.13v.09zm-8.587 2.43 4.285-2.492-4.285-2.457v4.95z" fill="#E6E6E6"/></svg></svg><svg fill="none" viewBox="0 0 47 47" id="kstar"><path d="M10.097.142C17.485 12.938 13.1 29.299.305 36.687c12.795-7.388 29.157-3.005 36.545 9.792-7.388-12.797-3.004-29.158 9.792-36.545C33.846 17.32 17.485 12.938 10.097.142z" fill="url(#kla)"/><defs><linearGradient id="kla" x1="39.005" y1="-25.793" x2="77.962" y2="52.883" gradientUnits="userSpaceOnUse"><stop stop-color="#194BFD"/><stop offset="1" stop-color="#AD13FB"/></linearGradient></defs></svg><svg fill="none" viewBox="0 0 8 12" id="ktelegram"><path d="M7.657 11.333V9.426c-.618.413-1.219.618-1.802.618-.275 0-.583-.087-.927-.256-.206-.14-.327-.292-.363-.464-.101-.207-.164-.654-.164-1.342V4.944h2.77V3.098H4.4V0H2.765c-.137.722-.275 1.235-.413 1.544-.17.379-.445.722-.823 1.03-.35.295-.752.522-1.186.67v1.7h1.289v4.173c0 .48.067.89.206 1.234.102.275.308.55.62.825.238.242.582.447 1.028.618.55.139 1.029.206 1.442.206.48 0 .927-.052 1.339-.154a5.304 5.304 0 0 0 1.39-.513z" fill="#E6E6E6"/></svg><svg fill="none" viewBox="0 0 18 12" id="kyoutube"><path d="M17.273 5.948c0-.04 0-.087-.002-.14-.001-.15-.005-.318-.009-.497a27.76 27.76 0 0 0-.081-1.512c-.055-.667-.137-1.223-.248-1.64a2.576 2.576 0 0 0-1.815-1.82C14.596.2 13.572.114 12.132.06A86.846 86.846 0 0 0 9.981.007L9.27 0h-.54l-.71.007a89.93 89.93 0 0 0-2.151.052c-1.44.055-2.465.142-2.986.28a2.573 2.573 0 0 0-1.816 1.82c-.112.417-.192.973-.247 1.64-.04.484-.066.997-.081 1.512-.006.18-.008.347-.01.497l-.001.14v.104c0 .04 0 .087.002.14.001.15.005.318.009.497.015.515.04 1.028.081 1.512.055.667.137 1.223.247 1.64a2.576 2.576 0 0 0 1.816 1.82c.52.14 1.546.226 2.986.28a89.93 89.93 0 0 0 2.151.052l.71.007h.542l.71-.007a86.46 86.46 0 0 0 2.151-.052c1.44-.056 2.465-.142 2.986-.28a2.57 2.57 0 0 0 1.815-1.82c.113-.417.193-.973.248-1.64.04-.484.066-.997.081-1.512.006-.18.008-.347.01-.497l.001-.14v-.104zm-1.33.096-.001.131c-.002.144-.006.303-.01.475-.012.491-.038.982-.077 1.439-.05.594-.12 1.082-.207 1.409-.114.426-.45.764-.875.877-.388.103-1.365.186-2.693.236a84.465 84.465 0 0 1-2.816.057h-.528l-.698-.005a84.684 84.684 0 0 1-2.118-.052c-1.328-.051-2.307-.133-2.693-.236a1.246 1.246 0 0 1-.875-.877c-.087-.327-.157-.815-.207-1.41a26.757 26.757 0 0 1-.078-1.438c-.005-.172-.007-.332-.009-.475l-.002-.13v-.09c0-.038 0-.08.002-.13.002-.144.006-.303.01-.475.012-.491.038-.982.077-1.439.05-.594.12-1.082.207-1.409.114-.426.45-.764.875-.877.388-.103 1.365-.186 2.693-.236a83.898 83.898 0 0 1 2.816-.058h.528l.698.006c.722.01 1.444.026 2.118.052 1.328.051 2.307.133 2.693.236.425.115.76.45.875.877.087.327.157.815.207 1.41.039.455.063.947.078 1.438.005.172.007.332.009.475l.002.13v.09zm-8.587 2.43 4.285-2.492-4.285-2.457v4.95z" fill="#E6E6E6"/></svg></svg><svg fill="none" viewBox="0 0 47 47" id="star" xmlns="http://www.w3.org/2000/svg"><path d="M10.097.142C17.485 12.938 13.1 29.299.305 36.687c12.795-7.388 29.157-3.005 36.545 9.792-7.388-12.797-3.004-29.158 9.792-36.545C33.846 17.32 17.485 12.938 10.097.142z" fill="url(#la)"/><defs><linearGradient id="la" x1="39.005" y1="-25.793" x2="77.962" y2="52.883" gradientUnits="userSpaceOnUse"><stop stop-color="#194BFD"/><stop offset="1" stop-color="#AD13FB"/></linearGradient></defs></svg><svg fill="none" viewBox="0 0 8 12" id="telegram" xmlns="http://www.w3.org/2000/svg"><path d="M7.657 11.333V9.426c-.618.413-1.219.618-1.802.618-.275 0-.583-.087-.927-.256-.206-.14-.327-.292-.363-.464-.101-.207-.164-.654-.164-1.342V4.944h2.77V3.098H4.4V0H2.765c-.137.722-.275 1.235-.413 1.544-.17.379-.445.722-.823 1.03-.35.295-.752.522-1.186.67v1.7h1.289v4.173c0 .48.067.89.206 1.234.102.275.308.55.62.825.238.242.582.447 1.028.618.55.139 1.029.206 1.442.206.48 0 .927-.052 1.339-.154a5.304 5.304 0 0 0 1.39-.513z" fill="#E6E6E6"/></svg><svg fill="none" viewBox="0 0 18 12" id="youtube" xmlns="http://www.w3.org/2000/svg"><path d="M17.273 5.948c0-.04 0-.087-.002-.14-.001-.15-.005-.318-.009-.497a27.76 27.76 0 0 0-.081-1.512c-.055-.667-.137-1.223-.248-1.64a2.576 2.576 0 0 0-1.815-1.82C14.596.2 13.572.114 12.132.06A86.846 86.846 0 0 0 9.981.007L9.27 0h-.54l-.71.007a89.93 89.93 0 0 0-2.151.052c-1.44.055-2.465.142-2.986.28a2.573 2.573 0 0 0-1.816 1.82c-.112.417-.192.973-.247 1.64-.04.484-.066.997-.081 1.512-.006.18-.008.347-.01.497l-.001.14v.104c0 .04 0 .087.002.14.001.15.005.318.009.497.015.515.04 1.028.081 1.512.055.667.137 1.223.247 1.64a2.576 2.576 0 0 0 1.816 1.82c.52.14 1.546.226 2.986.28a89.93 89.93 0 0 0 2.151.052l.71.007h.542l.71-.007a86.46 86.46 0 0 0 2.151-.052c1.44-.056 2.465-.142 2.986-.28a2.57 2.57 0 0 0 1.815-1.82c.113-.417.193-.973.248-1.64.04-.484.066-.997.081-1.512.006-.18.008-.347.01-.497l.001-.14v-.104zm-1.33.096-.001.131c-.002.144-.006.303-.01.475-.012.491-.038.982-.077 1.439-.05.594-.12 1.082-.207 1.409-.114.426-.45.764-.875.877-.388.103-1.365.186-2.693.236a84.465 84.465 0 0 1-2.816.057h-.528l-.698-.005a84.684 84.684 0 0 1-2.118-.052c-1.328-.051-2.307-.133-2.693-.236a1.246 1.246 0 0 1-.875-.877c-.087-.327-.157-.815-.207-1.41a26.757 26.757 0 0 1-.078-1.438c-.005-.172-.007-.332-.009-.475l-.002-.13v-.09c0-.038 0-.08.002-.13.002-.144.006-.303.01-.475.012-.491.038-.982.077-1.439.05-.594.12-1.082.207-1.409.114-.426.45-.764.875-.877.388-.103 1.365-.186 2.693-.236a83.898 83.898 0 0 1 2.816-.058h.528l.698.006c.722.01 1.444.026 2.118.052 1.328.051 2.307.133 2.693.236.425.115.76.45.875.877.087.327.157.815.207 1.41.039.455.063.947.078 1.438.005.172.007.332.009.475l.002.13v.09zm-8.587 2.43 4.285-2.492-4.285-2.457v4.95z" fill="#E6E6E6"/></svg></svg>