<svg width="48" height="49" fill="none" xmlns="http://www.w3.org/2000/svg"><mask id="a" style="mask-type:alpha" maskUnits="userSpaceOnUse" x="0" y="0" width="48" height="49"><path fill="#D9D9D9" d="M0 .159h48v48H0z"/></mask><g mask="url(#a)"><path d="M40.69 21.86v16c0 .866-.284 1.582-.85 2.15-.567.566-1.284.85-2.15.85h-27.4c-.867 0-1.584-.284-2.15-.85-.567-.568-.85-1.284-.85-2.15v-16.1a5.058 5.058 0 01-1.874-2.375c-.384-.984-.393-2.026-.026-3.126l1.9-6.3c.266-.8.683-1.417 1.25-1.85.566-.433 1.283-.65 2.15-.65h26.5c.866 0 1.583.2 2.15.6.566.4.983 1 1.25 1.8l2 6.4c.366 1.1.358 2.158-.024 3.174a5.045 5.045 0 01-1.876 2.426zm-12.3-.4c1.4 0 2.442-.376 3.126-1.127.682-.75.974-1.507.874-2.274l-1.4-9.2h-6.3v8.7a3.84 3.84 0 001.1 2.75c.733.767 1.6 1.15 2.6 1.15zm-9 0c1.166 0 2.108-.384 2.826-1.15.716-.768 1.074-1.684 1.074-2.75v-8.7h-6.3l-1.4 9.4c-.067.566.233 1.24.9 2.023.666.784 1.633 1.176 2.9 1.176zm-8.9 0c.966 0 1.783-.326 2.45-.977.666-.65 1.083-1.457 1.25-2.424l1.3-9.2h-4.8c-.567 0-1.017.125-1.35.374-.334.25-.584.626-.75 1.126l-1.8 6.2c-.367 1.167-.217 2.275.45 3.324.666 1.05 1.75 1.576 3.25 1.576zm27 0c1.266 0 2.3-.493 3.1-1.477.8-.983 1-2.124.6-3.424l-1.9-6.3c-.167-.5-.417-.859-.75-1.076-.334-.216-.784-.324-1.35-.324h-4.7l1.3 9.2c.166.967.583 1.775 1.25 2.424.666.65 1.483.976 2.45.976zm-27.2 18h27.4c.466 0 .85-.15 1.15-.45.3-.3.45-.684.45-1.15v-15.3a5.837 5.837 0 01-1.8.3c-.9 0-1.692-.184-2.376-.55-.683-.368-1.324-.95-1.924-1.75a6.077 6.077 0 01-1.9 1.65c-.767.432-1.734.65-2.9.65-.767 0-1.5-.193-2.2-.577-.7-.383-1.434-.957-2.2-1.724-.7.767-1.467 1.341-2.3 1.724-.834.384-1.6.576-2.3.576-.8 0-1.6-.158-2.4-.474-.8-.317-1.5-.926-2.1-1.826-1.067 1.067-1.975 1.717-2.724 1.95-.75.233-1.31.35-1.676.35a5.837 5.837 0 01-1.8-.3v15.3c0 .467.15.85.45 1.15.3.3.683.45 1.15.45z" fill="#19D4FD"/></g></svg>