<svg width="148" height="148" fill="none" xmlns="http://www.w3.org/2000/svg"><path fill-rule="evenodd" clip-rule="evenodd" d="M72.923 147.434a73.83 73.83 0 01-11.277-.975L1.112 85.926a73.88 73.88 0 01-.975-11.278l72.786 72.786zm-51.262-21.523c-7.93-7.929-13.668-17.219-17.216-27.118l44.334 44.334c-9.9-3.548-19.19-9.287-27.118-17.216zm60.326 21.053a73.882 73.882 0 008.774-1.54L2.148 56.81a73.691 73.691 0 00-1.54 8.774l81.38 81.38zm23.422-6.73a73.012 73.012 0 01-7.284 3.02L4.318 49.446c.87-2.469 1.877-4.9 3.02-7.283l98.071 98.071zm6.191-3.344a72.827 72.827 0 006.141-4.15L14.831 29.83a73.18 73.18 0 00-4.15 6.142L111.6 136.89zm14-10.979a74.183 74.183 0 01-2.64 2.514L19.146 24.611a74.535 74.535 0 015.145-5.146L128.108 123.28c-.81.892-1.645 1.77-2.507 2.631zm6.822-7.85a72.906 72.906 0 004.164-6.161L35.671 10.986a73.16 73.16 0 00-6.16 4.163l102.911 102.912zm10.517-19.612a73.32 73.32 0 01-3.01 7.26L41.863 7.642a73.029 73.029 0 017.26-3.009l93.816 93.816zm2.171-7.363a73.622 73.622 0 001.543-8.782L65.268.919a73.69 73.69 0 00-8.782 1.543l88.624 88.624zm1.042-29.109a73.91 73.91 0 01.972 11.263L74.331.448c3.769.036 7.535.36 11.263.971l60.558 60.558zm-3.326-12.86c-3.547-9.91-9.289-19.21-17.226-27.146-7.936-7.936-17.236-13.678-27.145-17.225l44.371 44.37z" fill="url(#paint0_linear_6_69)"/><defs><linearGradient id="paint0_linear_6_69" x1="-20.29" y1="160.139" x2="128.27" y2="16.295" gradientUnits="userSpaceOnUse"><stop stop-color="#353535"/><stop offset="1" stop-color="#353535" stop-opacity="0"/></linearGradient></defs></svg>