<svg width="51" height="51" fill="none" xmlns="http://www.w3.org/2000/svg"><path fill-rule="evenodd" clip-rule="evenodd" d="M24.833 50.776a25.199 25.199 0 01-3.843-.332L.34 29.794a25.197 25.197 0 01-.332-3.843l24.825 24.825zM7.35 43.436a24.969 24.969 0 01-5.874-9.255L16.603 49.31a24.97 24.97 0 01-9.254-5.874zm20.575 7.179a25.118 25.118 0 002.994-.526L.695 19.866a25.134 25.134 0 00-.526 2.993l27.756 27.756zm7.988-2.296c-.812.39-1.64.733-2.482 1.03L1.435 17.354c.297-.841.64-1.67 1.03-2.482l33.447 33.447zm2.111-1.14a24.938 24.938 0 002.096-1.416L5.021 10.665a25.25 25.25 0 00-1.416 2.096l34.418 34.418zm4.774-3.744c-.294.294-.594.58-.898.856L6.493 8.885A25.483 25.483 0 018.25 7.129l35.406 35.406a25.63 25.63 0 01-.858.9zm2.33-2.68a24.96 24.96 0 001.418-2.101L12.13 4.239a24.47 24.47 0 00-2.1 1.419l35.096 35.096zm3.583-6.685a24.914 24.914 0 01-1.025 2.472L14.242 3.099a24.902 24.902 0 012.472-1.025L48.71 34.07zm.74-2.511c.237-.99.412-1.993.527-3L22.226.806c-1.008.114-2.01.29-3.001.527L49.45 31.559zm.356-9.928a25.21 25.21 0 01.331 3.836L25.317.647c1.284.012 2.566.123 3.836.33l20.653 20.654zm-1.134-4.386a24.968 24.968 0 00-5.875-9.258 24.97 24.97 0 00-9.258-5.875l15.133 15.133z" fill="url(#paint0_linear_6_193)"/><defs><linearGradient id="paint0_linear_6_193" x1="-6.958" y1="55.109" x2="43.707" y2="6.051" gradientUnits="userSpaceOnUse"><stop stop-color="#353535"/><stop offset="1" stop-color="#353535" stop-opacity="0"/></linearGradient></defs></svg>