<svg width="53" height="53" fill="none" xmlns="http://www.w3.org/2000/svg"><path fill-rule="evenodd" clip-rule="evenodd" d="M52.846 26.824a26.077 26.077 0 01-.343 3.98L31.124 52.182c-1.318.216-2.648.33-3.98.343l25.7-25.701zm-7.6 18.102a25.847 25.847 0 01-9.58 6.08l15.661-15.66a25.849 25.849 0 01-6.08 9.58zm7.433-21.302a26.018 26.018 0 00-.543-3.093L20.852 51.816c1.021.243 2.054.424 3.093.542L52.68 23.624zm-2.375-8.266c.404.842.759 1.7 1.066 2.573L18.252 51.049a25.79 25.79 0 01-2.573-1.066l34.625-34.625zm-1.18-2.186a25.838 25.838 0 00-1.467-2.17L11.324 47.337c.703.53 1.427 1.018 2.17 1.467l35.63-35.63zM45.246 8.23c.305.305.6.615.886.931L9.481 45.813a26.405 26.405 0 01-1.817-1.817L44.317 7.343c.315.286.625.582.93.886zm-2.773-2.41a25.682 25.682 0 00-2.172-1.467l-35.63 35.63c.45.742.939 1.467 1.468 2.171L42.474 5.82zm-6.927-3.713c.871.308 1.729.662 2.57 1.065L3.491 37.795a25.797 25.797 0 01-1.065-2.568l33.12-33.12zm-2.6-.766a26.017 26.017 0 00-3.094-.543L1.118 29.532c.118 1.04.3 2.073.543 3.095L32.947 1.34zM22.673.973a26.085 26.085 0 013.98-.343L.952 26.333c.013-1.332.127-2.663.343-3.981L22.673.973zm-4.541 1.175A25.848 25.848 0 008.55 8.23a25.849 25.849 0 00-6.08 9.582L18.131 2.148z" fill="#AD13FB"/></svg>