<svg width="146.986" height="146.986" fill="none" xmlns="http://www.w3.org/2000/svg"><defs><linearGradient id="a" x1="378.292" y1="152.45" x2="171.532" y2="149.115" gradientUnits="userSpaceOnUse"><stop stop-color="#353535"/><stop offset="1" stop-color="#353535" stop-opacity="0"/></linearGradient></defs><path d="M0 74.2l72.786 72.786a73.954 73.954 0 01-11.278-.974L.975 85.478A73.874 73.874 0 010 74.2zm81.85 72.316L.47 65.136a73.683 73.683 0 011.54-8.773l88.614 88.613a73.68 73.68 0 01-8.774 1.54zM48.985 4.186L142.801 98a72.982 72.982 0 01-3.009 7.26L41.725 7.195a73.035 73.035 0 017.26-3.01zm95.988 86.452L56.348 2.014A73.708 73.708 0 0165.13.47l81.385 81.385a73.817 73.817 0 01-1.542 8.782zM4.307 98.345l44.334 44.334c-9.899-3.548-19.189-9.287-27.118-17.216-7.929-7.929-13.667-17.219-17.216-27.118zM7.2 41.715l98.072 98.071a72.98 72.98 0 01-7.284 3.02L4.18 48.998a73.2 73.2 0 013.02-7.283zm104.262 94.728L10.544 35.524a73.14 73.14 0 014.15-6.141l102.91 102.91a73.49 73.49 0 01-6.142 4.15zm11.361-8.466L19.009 24.163a74.712 74.712 0 015.145-5.146L127.97 122.832a73.696 73.696 0 01-5.146 5.145zm9.462-10.363L29.373 14.701a73.139 73.139 0 016.161-4.163l100.914 100.914a73.07 73.07 0 01-4.163 6.162zm14.701-44.822L74.194 0a73.87 73.87 0 0111.263.971l60.558 60.558c.612 3.729.936 7.495.971 11.263zm-4.297-24.123L98.318 4.297c9.909 3.547 19.209 9.289 27.145 17.225 7.936 7.937 13.678 17.236 17.226 27.146z" clip-rule="evenodd" fill="url(#a)" fill-rule="evenodd"/></svg>