<svg width="59" height="60" fill="none" xmlns="http://www.w3.org/2000/svg"><path fill-rule="evenodd" clip-rule="evenodd" d="M29.423 59.322a29.398 29.398 0 01-4.48-.387L.85 34.843a29.398 29.398 0 01-.386-4.48l28.96 28.96zM9.027 50.758a29.13 29.13 0 01-6.852-10.797l17.65 17.65a29.13 29.13 0 01-10.798-6.853zm24.003 8.377a29.325 29.325 0 003.495-.613L1.264 23.262a29.318 29.318 0 00-.613 3.494l32.379 32.38zm9.318-2.677a29.03 29.03 0 01-2.894 1.2L2.128 20.331c.346-.98.746-1.947 1.2-2.894l39.02 39.021zm2.464-1.33a29.109 29.109 0 002.45-1.657L6.315 12.523a29.119 29.119 0 00-1.656 2.451l40.154 40.154zm5.572-4.37c-.342.342-.69.674-1.045.996L8.032 10.447a29.738 29.738 0 012.045-2.045l41.307 41.306c-.323.357-.656.707-1 1.05zm2.717-3.126a29.106 29.106 0 001.652-2.445L14.599 5.033a29.13 29.13 0 00-2.445 1.652l40.947 40.947zm4.182-7.8c-.346.98-.746 1.946-1.2 2.892L17.063 3.702a29.057 29.057 0 012.892-1.199l37.329 37.33zm.864-2.93c.275-1.153.48-2.32.614-3.493L26.377 1.025c-1.173.134-2.34.339-3.494.614l35.264 35.264zm.412-11.596c.245 1.488.375 2.992.39 4.497L29.982.838c1.505.014 3.009.143 4.497.388l24.08 24.08zm-1.327-5.122a29.13 29.13 0 00-6.848-10.782 29.13 29.13 0 00-10.783-6.848l17.63 17.63z" fill="#212122"/></svg>