<svg width="107" height="107" fill="none" xmlns="http://www.w3.org/2000/svg"><rect x="53.499" y=".852" width="74.085" height="74.085" rx="15.5" transform="rotate(45 53.5 .852)" fill="#0A0A0C" stroke="#1C1C1C"/><mask id="a" style="mask-type:alpha" maskUnits="userSpaceOnUse" x="28" y="28" width="49" height="49"><path fill="#D9D9D9" d="M28.953 28.844h48v48h-48z"/></mask><g mask="url(#a)"><path d="M42.95 69.544c-2.4 0-4.45-.85-6.15-2.55-1.7-1.7-2.55-3.75-2.55-6.15 0-1.833.5-3.475 1.5-4.926 1-1.45 2.3-2.49 3.9-3.124v1.55c-1.167.6-2.125 1.483-2.874 2.65a6.971 6.971 0 00-1.126 3.85c0 2 .717 3.717 2.15 5.15 1.433 1.433 3.15 2.15 5.15 2.15 2 0 3.717-.717 5.15-2.15 1.433-1.433 2.15-3.15 2.15-5.15v-.7h10.5c.167-.467.45-.85.85-1.15.4-.3.85-.45 1.35-.45a2.21 2.21 0 011.624.676c.45.45.676.99.676 1.624a2.21 2.21 0 01-.676 1.624c-.45.45-.99.676-1.624.676-.533 0-.992-.141-1.376-.424-.383-.284-.657-.676-.824-1.176h-9.1c-.267 2.5-1.258 4.459-2.974 5.876-1.717 1.416-3.626 2.124-5.726 2.124zm20 0a8.394 8.394 0 01-3.574-.776c-1.117-.516-2.126-1.257-3.026-2.224h2.05c.567.467 1.25.85 2.05 1.15.8.3 1.633.45 2.5.45 2 0 3.717-.717 5.15-2.15 1.433-1.433 2.15-3.15 2.15-5.15 0-2-.717-3.717-2.15-5.15-1.433-1.433-3.15-2.15-5.15-2.15-.567 0-1.092.059-1.576.176a8.874 8.874 0 00-1.424.474l-5.45-9.1c-.7.167-1.35.025-1.95-.426-.6-.45-.9-1.057-.9-1.824 0-.633.225-1.175.676-1.626.45-.45.99-.674 1.624-.674.633 0 1.175.225 1.624.674.45.45.676.993.676 1.626 0 .267-.05.533-.15.8a1.79 1.79 0 01-.4.65l4.85 8.15c.367-.067.742-.133 1.126-.2.383-.067.807-.1 1.274-.1 2.4 0 4.45.85 6.15 2.55 1.7 1.7 2.55 3.75 2.55 6.15 0 2.4-.85 4.45-2.55 6.15-1.7 1.7-3.75 2.55-6.15 2.55zm-20-6.4a2.21 2.21 0 01-1.624-.676 2.21 2.21 0 01-.676-1.624c0-.667.259-1.25.776-1.75.516-.5 1.207-.667 2.074-.5l5.25-8.75c-1.167-.867-2.041-1.908-2.624-3.124a8.848 8.848 0 01-.876-3.876c0-2.4.85-4.45 2.55-6.15 1.7-1.7 3.75-2.55 6.15-2.55 2.4 0 4.45.85 6.15 2.55 1.7 1.7 2.55 3.75 2.55 6.15h-1.4c0-2-.717-3.717-2.15-5.15-1.433-1.433-3.15-2.15-5.15-2.15-2 0-3.717.717-5.15 2.15-1.433 1.433-2.15 3.15-2.15 5.15 0 1.4.35 2.658 1.05 3.774.7 1.117 1.683 2.043 2.95 2.776l-5.95 9.95c.167.2.3.433.4.7.1.267.15.533.15.8a2.21 2.21 0 01-.676 1.624c-.45.45-.99.676-1.624.676z" fill="#E6E6E6"/></g></svg>