<svg width="20" height="20" fill="none" xmlns="http://www.w3.org/2000/svg"><mask id="a" style="mask-type:alpha" maskUnits="userSpaceOnUse" x="0" y="0" width="20" height="20"><path fill="#D9D9D9" d="M0 0h20v20H0z"/></mask><g mask="url(#a)"><path d="M16.625 17.5c-1.792 0-3.538-.4-5.24-1.198a15.872 15.872 0 01-4.52-3.167 15.87 15.87 0 01-3.167-4.52C2.9 6.912 2.5 5.166 2.5 3.374c0-.25.083-.458.25-.625a.848.848 0 01.625-.25H6.75a.8.8 0 01.52.188.733.733 0 01.272.479l.541 2.916c.028.195.025.372-.01.531a.856.856 0 01-.24.428l-2 2.041a13.84 13.84 0 002.188 2.813c.875.875 1.84 1.632 2.896 2.27l1.958-1.958a1.17 1.17 0 01.49-.281c.201-.063.399-.08.593-.052l2.875.583a.848.848 0 01.48.281.762.762 0 01.187.511v3.375c0 .25-.083.458-.25.625a.848.848 0 01-.625.25z" fill="#E6E6E6" fill-opacity=".51"/></g></svg>