<svg width="25" height="25" fill="none" xmlns="http://www.w3.org/2000/svg"><mask id="a" style="mask-type:alpha" maskUnits="userSpaceOnUse" x="0" y="0" width="25" height="25"><path fill="#D9D9D9" d="M.125.267h24v24h-24z"/></mask><g mask="url(#a)"><path d="M11.1 22.217a9.685 9.685 0 01-3.537-1.063 10.093 10.093 0 01-2.838-2.199 10.195 10.195 0 01-1.887-3.063 9.761 9.761 0 01-.688-3.65c0-2.583.854-4.82 2.563-6.713 1.708-1.891 3.845-2.979 6.412-3.262v2c-2.017.283-3.683 1.18-5 2.687-1.317 1.509-1.975 3.271-1.975 5.288 0 2.017.658 3.78 1.975 5.287 1.317 1.509 2.975 2.405 4.975 2.688v2zm1-4.95l-5.025-5.05L8.5 10.792l2.6 2.6V7.267h2v6.125l2.575-2.575 1.425 1.45-5 5zm1 4.95v-2a7.993 7.993 0 002.063-.575A8.634 8.634 0 0017 18.567l1.45 1.45a10.765 10.765 0 01-2.525 1.488 9.92 9.92 0 01-2.825.712zm3.95-16.3a9.232 9.232 0 00-1.863-1.075 7.977 7.977 0 00-2.062-.575v-2c.983.1 1.925.337 2.825.712.9.375 1.733.871 2.5 1.488l-1.4 1.45zm2.8 12.65l-1.4-1.425a7.884 7.884 0 001.05-1.838c.267-.658.45-1.345.55-2.062h2.05a11.767 11.767 0 01-.75 2.837 9.126 9.126 0 01-1.5 2.488zm.2-7.325a8.665 8.665 0 00-.55-2.063 7.892 7.892 0 00-1.05-1.837l1.4-1.425a9.649 9.649 0 011.525 2.487c.383.909.625 1.855.725 2.838h-2.05z" fill="#194BFD"/></g></svg>