<svg width="12" height="12" fill="none" xmlns="http://www.w3.org/2000/svg"><path fill-rule="evenodd" clip-rule="evenodd" d="M4.457 4.181h2.229v1.11c.32-.638 1.144-1.212 2.38-1.212C11.438 4.08 12 5.35 12 7.682V12H9.6V8.213c0-1.328-.321-2.077-1.138-2.077-1.134 0-1.605.807-1.605 2.076V12h-2.4V4.181zM.342 11.898h2.4V4.079h-2.4v7.819zM3.086 1.53a1.518 1.518 0 01-.452 1.081 1.554 1.554 0 01-2.183 0A1.529 1.529 0 010 1.53C0 1.124.162.735.452.448a1.55 1.55 0 012.182 0c.29.287.452.676.452 1.082z" fill="#E6E6E6"/></svg>