<svg width="18" height="12" fill="none" xmlns="http://www.w3.org/2000/svg"><path d="M17.273 5.948c0-.04 0-.087-.002-.14-.001-.15-.005-.318-.009-.497a27.76 27.76 0 00-.081-1.512c-.055-.667-.137-1.223-.248-1.64a2.576 2.576 0 00-1.815-1.82C14.596.2 13.572.114 12.132.06A86.846 86.846 0 009.981.007L9.27 0h-.54l-.71.007a89.93 89.93 0 00-2.151.052c-1.44.055-2.465.142-2.986.28a2.573 2.573 0 00-1.816 1.82c-.112.417-.192.973-.247 1.64-.04.484-.066.997-.081 1.512-.006.18-.008.347-.01.497l-.001.14v.104c0 .04 0 .087.002.14.001.15.005.318.009.497.015.515.04 1.028.081 1.512.055.667.137 1.223.247 1.64a2.576 2.576 0 001.816 1.82c.52.14 1.546.226 2.986.28a89.93 89.93 0 002.151.052l.71.007h.542l.71-.007a86.46 86.46 0 002.151-.052c1.44-.056 2.465-.142 2.986-.28a2.57 2.57 0 001.815-1.82c.113-.417.193-.973.248-1.64.04-.484.066-.997.081-1.512.006-.18.008-.347.01-.497l.001-.14v-.104zm-1.33.096l-.001.131c-.002.144-.006.303-.01.475-.012.491-.038.982-.077 1.439-.05.594-.12 1.082-.207 1.409-.114.426-.45.764-.875.877-.388.103-1.365.186-2.693.236a84.465 84.465 0 01-2.816.057h-.528l-.698-.005a84.684 84.684 0 01-2.118-.052c-1.328-.051-2.307-.133-2.693-.236a1.246 1.246 0 01-.875-.877c-.087-.327-.157-.815-.207-1.41a26.757 26.757 0 01-.078-1.438c-.005-.172-.007-.332-.009-.475l-.002-.13v-.09c0-.038 0-.08.002-.13.002-.144.006-.303.01-.475.012-.491.038-.982.077-1.439.05-.594.12-1.082.207-1.409.114-.426.45-.764.875-.877.388-.103 1.365-.186 2.693-.236a83.898 83.898 0 012.816-.058h.528l.698.006c.722.01 1.444.026 2.118.052 1.328.051 2.307.133 2.693.236.425.115.76.45.875.877.087.327.157.815.207 1.41.039.455.063.947.078 1.438.005.172.007.332.009.475l.002.13v.09zm-8.587 2.43l4.285-2.492-4.285-2.457v4.95z" fill="#E6E6E6"/></svg>