<svg width="105" height="75" viewBox="0 0 105 75" fill="none" xmlns="http://www.w3.org/2000/svg">
<path d="M16.2295 9.71386C16.2295 8.04986 16.5895 6.56986 17.3095 5.27387C18.0295 3.96186 19.0295 2.94586 20.3095 2.22586C21.6055 1.48986 23.0695 1.12186 24.7015 1.12186C26.7015 1.12186 28.4135 1.64986 29.8375 2.70586C31.2615 3.76186 32.2135 5.20186 32.6935 7.02586H28.1815C27.8455 6.32186 27.3655 5.78586 26.7415 5.41786C26.1335 5.04986 25.4375 4.86586 24.6535 4.86586C23.3895 4.86586 22.3655 5.30586 21.5815 6.18586C20.7975 7.06586 20.4055 8.24186 20.4055 9.71386C20.4055 11.1859 20.7975 12.3619 21.5815 13.2419C22.3655 14.1219 23.3895 14.5619 24.6535 14.5619C25.4375 14.5619 26.1335 14.3779 26.7415 14.0099C27.3655 13.6419 27.8455 13.1059 28.1815 12.4019H32.6935C32.2135 14.2259 31.2615 15.6659 29.8375 16.7219C28.4135 17.7619 26.7015 18.2819 24.7015 18.2819C23.0695 18.2819 21.6055 17.9219 20.3095 17.2019C19.0295 16.4659 18.0295 15.4499 17.3095 14.1539C16.5895 12.8579 16.2295 11.3779 16.2295 9.71386ZM48.8868 4.76986L40.4868 24.5219H36.0708L39.1428 17.7059L33.6947 4.76986H38.2788L41.3748 13.1459L44.4468 4.76986H48.8868ZM54.4748 6.66586C54.8588 6.04186 55.4108 5.53786 56.1308 5.15386C56.8508 4.76986 57.6748 4.57786 58.6028 4.57786C59.7068 4.57786 60.7068 4.85786 61.6028 5.41786C62.4988 5.97786 63.2028 6.77786 63.7148 7.81786C64.2428 8.85786 64.5068 10.0659 64.5068 11.4419C64.5068 12.8179 64.2428 14.0339 63.7148 15.0899C63.2028 16.1299 62.4988 16.9379 61.6028 17.5139C60.7068 18.0739 59.7068 18.3539 58.6028 18.3539C57.6588 18.3539 56.8348 18.1699 56.1308 17.8019C55.4268 17.4179 54.8748 16.9139 54.4748 16.2899V18.1619H50.3708V0.401865H54.4748V6.66586ZM60.3308 11.4419C60.3308 10.4179 60.0428 9.61786 59.4668 9.04186C58.9068 8.44986 58.2108 8.15386 57.3788 8.15386C56.5628 8.15386 55.8668 8.44986 55.2908 9.04186C54.7308 9.63386 54.4508 10.4419 54.4508 11.4659C54.4508 12.4899 54.7308 13.2979 55.2908 13.8899C55.8668 14.4819 56.5628 14.7779 57.3788 14.7779C58.1948 14.7779 58.8908 14.4819 59.4668 13.8899C60.0428 13.2819 60.3308 12.4659 60.3308 11.4419ZM79.2839 11.2499C79.2839 11.6339 79.2599 12.0339 79.2119 12.4499H69.9239C69.9879 13.2819 70.2519 13.9219 70.7159 14.3699C71.1959 14.8019 71.7799 15.0179 72.4679 15.0179C73.4919 15.0179 74.2039 14.5859 74.6039 13.7219H78.9719C78.7479 14.6019 78.3399 15.3939 77.7479 16.0979C77.1719 16.8019 76.4439 17.3539 75.5639 17.7539C74.6839 18.1539 73.6999 18.3539 72.6119 18.3539C71.2999 18.3539 70.1319 18.0739 69.1079 17.5139C68.0839 16.9539 67.2839 16.1539 66.7079 15.1139C66.1319 14.0739 65.8439 12.8579 65.8439 11.4659C65.8439 10.0739 66.1239 8.85786 66.6839 7.81786C67.2599 6.77786 68.0599 5.97786 69.0839 5.41786C70.1079 4.85786 71.2839 4.57786 72.6119 4.57786C73.9079 4.57786 75.0599 4.84986 76.0679 5.39387C77.0759 5.93786 77.8599 6.71386 78.4199 7.72186C78.9959 8.72986 79.2839 9.90586 79.2839 11.2499ZM75.0839 10.1699C75.0839 9.46587 74.8439 8.90586 74.3639 8.48986C73.8839 8.07386 73.2839 7.86586 72.5639 7.86586C71.8759 7.86586 71.2919 8.06586 70.8119 8.46586C70.3479 8.86586 70.0599 9.43387 69.9479 10.1699H75.0839ZM85.5529 7.00186C86.0329 6.26586 86.6329 5.68986 87.3529 5.27387C88.0729 4.84187 88.8729 4.62586 89.7529 4.62586V8.96986H88.6249C87.6009 8.96986 86.8329 9.19386 86.3209 9.64186C85.8089 10.0739 85.5529 10.8419 85.5529 11.9459V18.1619H81.4489V4.76986H85.5529V7.00186ZM7.28322 46.3299C6.05122 46.3299 4.94722 46.1299 3.97122 45.7299C2.99522 45.3299 2.21122 44.7379 1.61922 43.9539C1.04322 43.1699 0.739219 42.2259 0.707219 41.1219H5.07522C5.13922 41.7459 5.35522 42.2259 5.72322 42.5619C6.09122 42.8819 6.57122 43.0419 7.16322 43.0419C7.77122 43.0419 8.25122 42.9059 8.60322 42.6339C8.95522 42.3459 9.13122 41.9539 9.13122 41.4579C9.13122 41.0419 8.98722 40.6979 8.69922 40.4259C8.42722 40.1539 8.08322 39.9299 7.66722 39.7539C7.26722 39.5779 6.69122 39.3779 5.93922 39.1539C4.85122 38.8179 3.96322 38.4819 3.27522 38.1459C2.58722 37.8099 1.99522 37.3139 1.49922 36.6579C1.00322 36.0019 0.755219 35.1459 0.755219 34.0899C0.755219 32.5219 1.32322 31.2979 2.45922 30.4179C3.59522 29.5219 5.07522 29.0739 6.89922 29.0739C8.75522 29.0739 10.2512 29.5219 11.3872 30.4179C12.5232 31.2979 13.1312 32.5299 13.2112 34.1139H8.77122C8.73922 33.5699 8.53922 33.1459 8.17122 32.8419C7.80322 32.5219 7.33122 32.3619 6.75522 32.3619C6.25922 32.3619 5.85922 32.4979 5.55522 32.7699C5.25122 33.0259 5.09922 33.4019 5.09922 33.8979C5.09922 34.4419 5.35522 34.8659 5.86722 35.1699C6.37922 35.4739 7.17922 35.8019 8.26722 36.1539C9.35522 36.5219 10.2352 36.8739 10.9072 37.2099C11.5952 37.5459 12.1872 38.0339 12.6832 38.6739C13.1792 39.3139 13.4272 40.1379 13.4272 41.1459C13.4272 42.1059 13.1792 42.9779 12.6832 43.7619C12.2032 44.5459 11.4992 45.1699 10.5712 45.6339C9.64322 46.0979 8.54722 46.3299 7.28322 46.3299ZM15.1368 39.4419C15.1368 38.0659 15.3928 36.8579 15.9048 35.8179C16.4328 34.7779 17.1448 33.9779 18.0408 33.4179C18.9368 32.8579 19.9368 32.5779 21.0408 32.5779C21.9848 32.5779 22.8088 32.7699 23.5128 33.1539C24.2328 33.5379 24.7848 34.0419 25.1688 34.6659V32.7699H29.2728V46.1619H25.1688V44.2659C24.7688 44.8899 24.2088 45.3939 23.4888 45.7779C22.7848 46.1619 21.9608 46.3539 21.0168 46.3539C19.9288 46.3539 18.9368 46.0739 18.0408 45.5139C17.1448 44.9379 16.4328 44.1299 15.9048 43.0899C15.3928 42.0339 15.1368 40.8179 15.1368 39.4419ZM25.1688 39.4659C25.1688 38.4419 24.8808 37.6339 24.3048 37.0419C23.7448 36.4499 23.0568 36.1539 22.2408 36.1539C21.4248 36.1539 20.7288 36.4499 20.1528 37.0419C19.5928 37.6179 19.3128 38.4179 19.3128 39.4419C19.3128 40.4659 19.5928 41.2819 20.1528 41.8899C20.7288 42.4819 21.4248 42.7779 22.2408 42.7779C23.0568 42.7779 23.7448 42.4819 24.3048 41.8899C24.8808 41.2979 25.1688 40.4899 25.1688 39.4659ZM49.3299 32.6259C50.9939 32.6259 52.3139 33.1299 53.2899 34.1379C54.2819 35.1459 54.7779 36.5459 54.7779 38.3379V46.1619H50.6979V38.8899C50.6979 38.0259 50.4659 37.3619 50.0019 36.8979C49.5539 36.4179 48.9299 36.1779 48.1299 36.1779C47.3299 36.1779 46.6979 36.4179 46.2339 36.8979C45.7859 37.3619 45.5619 38.0259 45.5619 38.8899V46.1619H41.4819V38.8899C41.4819 38.0259 41.2499 37.3619 40.7859 36.8979C40.3379 36.4179 39.7139 36.1779 38.9139 36.1779C38.1139 36.1779 37.4819 36.4179 37.0179 36.8979C36.5699 37.3619 36.3459 38.0259 36.3459 38.8899V46.1619H32.2419V32.7699H36.3459V34.4499C36.7619 33.8899 37.3059 33.4499 37.9779 33.1299C38.6499 32.7939 39.4099 32.6259 40.2579 32.6259C41.2659 32.6259 42.1619 32.8419 42.9459 33.2739C43.7459 33.7059 44.3699 34.3219 44.8179 35.1219C45.2819 34.3859 45.9139 33.7859 46.7139 33.3219C47.5139 32.8579 48.3859 32.6259 49.3299 32.6259ZM70.8722 32.7699V46.1619H66.7682V44.3379C66.3522 44.9299 65.7842 45.4099 65.0642 45.7779C64.3602 46.1299 63.5762 46.3059 62.7122 46.3059C61.6882 46.3059 60.7842 46.0819 60.0002 45.6339C59.2162 45.1699 58.6082 44.5059 58.1762 43.6419C57.7442 42.7779 57.5282 41.7619 57.5282 40.5939V32.7699H61.6082V40.0419C61.6082 40.9379 61.8402 41.6339 62.3042 42.1299C62.7682 42.6259 63.3922 42.8739 64.1762 42.8739C64.9762 42.8739 65.6082 42.6259 66.0722 42.1299C66.5362 41.6339 66.7682 40.9379 66.7682 40.0419V32.7699H70.8722ZM77.924 35.0019C78.404 34.2659 79.004 33.6899 79.724 33.2739C80.444 32.8419 81.244 32.6259 82.124 32.6259V36.9699H80.996C79.972 36.9699 79.204 37.1939 78.692 37.6419C78.18 38.0739 77.924 38.8419 77.924 39.9459V46.1619H73.82V32.7699H77.924V35.0019ZM83.2697 39.4419C83.2697 38.0659 83.5257 36.8579 84.0377 35.8179C84.5657 34.7779 85.2777 33.9779 86.1737 33.4179C87.0697 32.8579 88.0697 32.5779 89.1737 32.5779C90.1177 32.5779 90.9417 32.7699 91.6457 33.1539C92.3657 33.5379 92.9177 34.0419 93.3017 34.6659V32.7699H97.4057V46.1619H93.3017V44.2659C92.9017 44.8899 92.3417 45.3939 91.6217 45.7779C90.9177 46.1619 90.0937 46.3539 89.1497 46.3539C88.0617 46.3539 87.0697 46.0739 86.1737 45.5139C85.2777 44.9379 84.5657 44.1299 84.0377 43.0899C83.5257 42.0339 83.2697 40.8179 83.2697 39.4419ZM93.3017 39.4659C93.3017 38.4419 93.0137 37.6339 92.4377 37.0419C91.8777 36.4499 91.1897 36.1539 90.3737 36.1539C89.5577 36.1539 88.8617 36.4499 88.2857 37.0419C87.7257 37.6179 87.4457 38.4179 87.4457 39.4419C87.4457 40.4659 87.7257 41.2819 88.2857 41.8899C88.8617 42.4819 89.5577 42.7779 90.3737 42.7779C91.1897 42.7779 91.8777 42.4819 92.4377 41.8899C93.0137 41.2979 93.3017 40.4899 93.3017 39.4659ZM102.439 31.3779C101.719 31.3779 101.127 31.1699 100.663 30.7539C100.215 30.3219 99.9907 29.7939 99.9907 29.1699C99.9907 28.5299 100.215 28.0019 100.663 27.5859C101.127 27.1539 101.719 26.9379 102.439 26.9379C103.143 26.9379 103.719 27.1539 104.167 27.5859C104.631 28.0019 104.863 28.5299 104.863 29.1699C104.863 29.7939 104.631 30.3219 104.167 30.7539C103.719 31.1699 103.143 31.3779 102.439 31.3779ZM104.479 32.7699V46.1619H100.375V32.7699H104.479ZM41.785 63.6499L41.113 66.7939H43.993V70.4899H40.321L39.529 74.1619H35.689L36.481 70.4899H32.497L31.705 74.1619H27.865L28.657 70.4899H25.105V66.7939H29.449L30.121 63.6499H26.641V59.9539H30.889L31.657 56.4019H35.497L34.729 59.9539H38.713L39.481 56.4019H43.321L42.553 59.9539H45.529V63.6499H41.785ZM37.945 63.6499H33.961L33.289 66.7939H37.273L37.945 63.6499ZM46.9761 60.4579V56.6419H53.6241V74.1619H49.3521V60.4579H46.9761ZM67.6156 59.7139L61.5916 74.1619H57.3916L63.4876 60.1699H56.0236V56.6659H67.6156V59.7139ZM80.4593 59.7139L74.4353 74.1619H70.2353L76.3313 60.1699H68.8673V56.6659H80.4593V59.7139Z" fill="white"/>
</svg>
