<svg width="107" height="108" viewBox="0 0 107 108" fill="none" xmlns="http://www.w3.org/2000/svg">
<rect x="53.4995" y="1.68074" width="74.0851" height="74.0851" rx="15.5" transform="rotate(45 53.4995 1.68074)" fill="#0A0A0C" stroke="#1C1C1C"/>
<mask id="mask0_6_384" style="mask-type:alpha" maskUnits="userSpaceOnUse" x="28" y="29" width="49" height="49">
<rect x="28.9219" y="29.6182" width="48" height="48" fill="#D9D9D9"/>
</mask>
<g mask="url(#mask0_6_384)">
<path d="M54.6781 36.3184C58.8448 36.7184 62.3868 38.3597 65.3041 41.2424C68.2201 44.1264 69.8781 47.6517 70.2781 51.8184H57.8781C57.5781 51.085 57.1535 50.4517 56.6041 49.9184C56.0535 49.385 55.4115 48.985 54.6781 48.7184V36.3184ZM56.0781 37.9184V47.7184C56.6448 48.0517 57.1615 48.443 57.6281 48.8924C58.0948 49.343 58.4781 49.8517 58.7781 50.4184H68.6781C68.0115 47.2517 66.5368 44.5264 64.2541 42.2424C61.9701 39.9597 59.2448 38.5184 56.0781 37.9184ZM51.2781 36.3184V48.7184C50.2115 49.085 49.3615 49.7184 48.7281 50.6184C48.0948 51.5184 47.7781 52.5184 47.7781 53.6184C47.7781 54.7184 48.1035 55.7017 48.7541 56.5684C49.4035 57.435 50.2448 58.0517 51.2781 58.4184V70.9184C46.8115 70.4517 43.0781 68.5764 40.0781 65.2924C37.0781 62.0097 35.5781 58.1184 35.5781 53.6184C35.5781 49.1184 37.0781 45.2097 40.0781 41.8924C43.0781 38.5764 46.8115 36.7184 51.2781 36.3184ZM49.8781 37.9184C46.1115 38.6184 43.0201 40.4517 40.6041 43.4184C38.1868 46.385 36.9781 49.785 36.9781 53.6184C36.9781 57.4517 38.1868 60.8517 40.6041 63.8184C43.0201 66.785 46.1115 68.6184 49.8781 69.3184V59.3184C48.8781 58.6517 48.0448 57.827 47.3781 56.8444C46.7115 55.8604 46.3781 54.7684 46.3781 53.5684C46.3781 52.4017 46.7035 51.3184 47.3541 50.3184C48.0035 49.3184 48.8448 48.485 49.8781 47.8184V37.9184ZM57.8781 55.3184H70.2781C69.8781 59.485 68.2201 63.027 65.3041 65.9444C62.3868 68.8604 58.8448 70.5184 54.6781 70.9184V58.4184C55.4448 58.1517 56.0948 57.7517 56.6281 57.2184C57.1615 56.685 57.5781 56.0517 57.8781 55.3184ZM58.7781 56.7184C58.4115 57.2517 58.0115 57.743 57.5781 58.1924C57.1448 58.643 56.6448 59.0184 56.0781 59.3184V69.3184C59.2781 68.685 62.0115 67.227 64.2781 64.9444C66.5448 62.6604 68.0115 59.9184 68.6781 56.7184H58.7781Z" fill="#E6E6E6"/>
</g>
</svg>
