<svg width="107" height="108" viewBox="0 0 107 108" fill="none" xmlns="http://www.w3.org/2000/svg">
<rect x="53.1661" y="1.68074" width="74.0851" height="74.0851" rx="15.5" transform="rotate(45 53.1661 1.68074)" fill="#0A0A0C" stroke="#1C1C1C"/>
<mask id="mask0_6_444" style="mask-type:alpha" maskUnits="userSpaceOnUse" x="29" y="29" width="49" height="49">
<rect x="29.9557" y="29.6182" width="48" height="48" fill="#D9D9D9"/>
</mask>
<g mask="url(#mask0_6_444)">
<path d="M52.4495 48.2178H69.0495C68.1828 45.8511 66.7828 43.7424 64.8495 41.8918C62.9162 40.0424 60.7162 38.8178 58.2495 38.2178L52.4495 48.2178ZM48.4495 52.2178L56.8495 37.8178C56.4828 37.7511 55.9995 37.7011 55.3995 37.6678C54.7995 37.6344 54.3162 37.6178 53.9495 37.6178C51.7495 37.6178 49.6995 38.0344 47.7995 38.8678C45.8995 39.7011 44.2162 40.8178 42.7495 42.2178L48.4495 52.2178ZM38.4495 57.6178H49.9495L41.7495 43.3178C40.5495 44.7844 39.6162 46.3758 38.9495 48.0918C38.2828 49.8091 37.9495 51.6511 37.9495 53.6178C37.9495 54.3178 37.9908 54.9924 38.0735 55.6418C38.1575 56.2924 38.2828 56.9511 38.4495 57.6178ZM49.7495 69.0178L55.5495 59.0178H38.8495C39.7162 61.3844 41.1328 63.4931 43.0995 65.3438C45.0662 67.1931 47.2828 68.4178 49.7495 69.0178ZM53.9495 69.6178C56.1495 69.6178 58.1995 69.2011 60.0995 68.3678C61.9995 67.5344 63.6828 66.4178 65.1495 65.0178L59.4495 55.0178L51.1495 69.3178C51.5162 69.4178 51.9748 69.4924 52.5255 69.5418C53.0748 69.5924 53.5495 69.6178 53.9495 69.6178ZM66.1495 63.9178C67.2162 62.5511 68.1162 60.9591 68.8495 59.1418C69.5828 57.3258 69.9495 55.4844 69.9495 53.6178C69.9495 52.9178 69.9082 52.2431 69.8255 51.5938C69.7415 50.9431 69.6162 50.2844 69.4495 49.6178H57.9495L66.1495 63.9178ZM53.9495 71.0178C51.5495 71.0178 49.2915 70.5591 47.1755 69.6418C45.0582 68.7258 43.2162 67.4844 41.6495 65.9178C40.0828 64.3511 38.8408 62.5091 37.9235 60.3918C37.0075 58.2758 36.5495 56.0178 36.5495 53.6178C36.5495 51.2178 37.0075 48.9591 37.9235 46.8418C38.8408 44.7258 40.0828 42.8844 41.6495 41.3178C43.2162 39.7511 45.0582 38.5091 47.1755 37.5918C49.2915 36.6758 51.5495 36.2178 53.9495 36.2178C56.3495 36.2178 58.6082 36.6758 60.7255 37.5918C62.8415 38.5091 64.6828 39.7511 66.2495 41.3178C67.8162 42.8844 69.0582 44.7258 69.9755 46.8418C70.8915 48.9591 71.3495 51.2178 71.3495 53.6178C71.3495 56.0178 70.8915 58.2758 69.9755 60.3918C69.0582 62.5091 67.8162 64.3511 66.2495 65.9178C64.6828 67.4844 62.8415 68.7258 60.7255 69.6418C58.6082 70.5591 56.3495 71.0178 53.9495 71.0178Z" fill="#E6E6E6"/>
</g>
</svg>
