<svg width="25" height="25" viewBox="0 0 25 25" fill="none" xmlns="http://www.w3.org/2000/svg">
<mask id="mask0_6_613" style="mask-type:alpha" maskUnits="userSpaceOnUse" x="0" y="0" width="25" height="25">
<rect x="0.125" y="0.26709" width="24" height="24" fill="#D9D9D9"/>
</mask>
<g mask="url(#mask0_6_613)">
<path d="M11.1 22.2171C9.83334 22.0838 8.65434 21.7294 7.563 21.1541C6.471 20.5794 5.525 19.8464 4.725 18.9551C3.925 18.0631 3.296 17.0421 2.838 15.8921C2.37933 14.7421 2.15 13.5254 2.15 12.2421C2.15 9.65876 3.00433 7.42109 4.713 5.52909C6.421 3.63776 8.55834 2.55042 11.125 2.26709V4.26709C9.10834 4.55042 7.44167 5.44609 6.125 6.95409C4.80833 8.46276 4.15 10.2254 4.15 12.2421C4.15 14.2588 4.80833 16.0211 6.125 17.5291C7.44167 19.0378 9.1 19.9338 11.1 20.2171V22.2171ZM12.1 17.2671L7.075 12.2171L8.5 10.7921L11.1 13.3921V7.26709H13.1V13.3921L15.675 10.8171L17.1 12.2671L12.1 17.2671ZM13.1 22.2171V20.2171C13.8167 20.1171 14.5043 19.9254 15.163 19.6421C15.821 19.3588 16.4333 19.0004 17 18.5671L18.45 20.0171C17.6667 20.6338 16.825 21.1298 15.925 21.5051C15.025 21.8798 14.0833 22.1171 13.1 22.2171ZM17.05 5.91709C16.4667 5.48376 15.8457 5.12542 15.187 4.84209C14.529 4.55876 13.8417 4.36709 13.125 4.26709V2.26709C14.1083 2.36709 15.05 2.60442 15.95 2.97909C16.85 3.35442 17.6833 3.85042 18.45 4.46709L17.05 5.91709ZM19.85 18.5671L18.45 17.1421C18.8833 16.5754 19.2333 15.9628 19.5 15.3041C19.7667 14.6461 19.95 13.9588 20.05 13.2421H22.1C21.9667 14.2254 21.7167 15.1711 21.35 16.0791C20.9833 16.9878 20.4833 17.8171 19.85 18.5671ZM20.05 11.2421C19.95 10.5254 19.7667 9.83776 19.5 9.17909C19.2333 8.52109 18.8833 7.90876 18.45 7.34209L19.85 5.91709C20.4833 6.66709 20.9917 7.49609 21.375 8.40409C21.7583 9.31276 22 10.2588 22.1 11.2421H20.05Z" fill="#194BFD"/>
</g>
</svg>
