<svg width="107" height="107" viewBox="0 0 107 107" fill="none" xmlns="http://www.w3.org/2000/svg">
<rect x="53.4995" y="0.851638" width="74.0851" height="74.0851" rx="15.5" transform="rotate(45 53.4995 0.851638)" fill="#0A0A0C" stroke="#1C1C1C"/>
<mask id="mask0_6_353" style="mask-type:alpha" maskUnits="userSpaceOnUse" x="29" y="28" width="49" height="49">
<rect x="29.9219" y="28.8442" width="48" height="48" fill="#D9D9D9"/>
</mask>
<g mask="url(#mask0_6_353)">
<path d="M64.7687 47.594L59.1188 41.994L61.7687 39.394C62.3687 38.794 63.0854 38.494 63.9188 38.494C64.7521 38.494 65.4521 38.794 66.0187 39.394L67.3688 40.794C67.9354 41.3607 68.2188 42.0607 68.2188 42.894C68.2188 43.7274 67.9354 44.4274 67.3688 44.994L64.7687 47.594ZM38.1687 68.544V62.894L47.2688 53.794L36.7188 43.194L43.2688 36.644L53.9188 47.244L59.1188 41.994L64.7687 47.594L59.5687 52.844L70.1188 63.494L63.5688 70.044L52.9188 59.444L43.8187 68.544H38.1687ZM48.2688 52.844L52.9188 48.194L48.6687 43.944L46.3187 46.294L45.3187 45.294L47.6687 42.944L43.2688 38.544L38.6187 43.194L48.2688 52.844ZM63.5187 68.094L68.1688 63.444L63.7687 59.044L61.4188 61.394L60.4188 60.394L62.7687 58.044L58.5187 53.794L53.8688 58.444L63.5187 68.094ZM39.5687 67.144H43.2188L62.7687 47.594L59.1188 43.944L39.5687 63.494V67.144Z" fill="#E6E6E6"/>
</g>
</svg>
