<svg width="148" height="148" viewBox="0 0 148 148" fill="none" xmlns="http://www.w3.org/2000/svg">
<path fill-rule="evenodd" clip-rule="evenodd" d="M72.9232 147.434C69.1498 147.398 65.3788 147.073 61.6459 146.46L1.11212 85.9258C0.498449 82.193 0.173553 78.4219 0.137462 74.6486L72.9232 147.434ZM21.6607 125.911C13.7317 117.982 7.9931 108.692 4.44489 98.7932L48.7786 143.127C38.8796 139.579 29.5897 133.84 21.6607 125.911ZM81.9873 146.964C84.9341 146.629 87.8645 146.115 90.7611 145.424L2.14765 56.8106C1.45641 59.7072 0.943148 62.6376 0.60785 65.5844L81.9873 146.964ZM105.409 140.235C103.026 141.377 100.594 142.383 98.1254 143.254L4.31791 49.4463C5.18848 46.9774 6.19492 44.5456 7.33722 42.1627L105.409 140.235ZM111.6 136.891C113.7 135.622 115.75 134.238 117.741 132.741L14.8312 29.8307C13.3334 31.8221 11.9501 33.8722 10.6812 35.9721L111.6 136.891ZM125.6 125.911C124.736 126.775 123.856 127.613 122.96 128.425L19.1463 24.6113C19.9584 23.7158 20.7965 22.8355 21.6607 21.9713C22.5219 21.1101 23.3992 20.2747 24.2915 19.4652L128.107 123.28C127.297 124.173 126.462 125.05 125.6 125.911ZM132.422 118.062C133.926 116.064 135.313 114.007 136.586 111.9L35.6715 10.9858C33.5646 12.2584 31.5078 13.6462 29.5102 15.1493L132.422 118.062ZM142.939 98.4492C142.07 100.91 141.067 103.334 139.929 105.709L41.8629 7.64261C44.2381 6.50449 46.6618 5.50133 49.1225 4.63314L142.939 98.4492ZM145.11 91.0861C145.803 88.1868 146.317 85.2535 146.653 82.3038L65.2679 0.919106C62.3182 1.25498 59.385 1.76916 56.4856 2.46167L145.11 91.0861ZM146.152 61.9774C146.764 65.7056 147.088 69.4719 147.124 73.2404L74.3313 0.447983C78.0998 0.483692 81.8661 0.807459 85.5943 1.41927L146.152 61.9774ZM142.826 49.1164C139.279 39.2073 133.537 29.9076 125.6 21.9713C117.664 14.035 108.364 8.29316 98.4553 4.74572L142.826 49.1164Z" fill="url(#paint0_linear_6_69)"/>
<defs>
<linearGradient id="paint0_linear_6_69" x1="-20.2898" y1="160.139" x2="128.27" y2="16.2954" gradientUnits="userSpaceOnUse">
<stop stop-color="#353535"/>
<stop offset="1" stop-color="#353535" stop-opacity="0"/>
</linearGradient>
</defs>
</svg>
