<svg width="51" height="51" viewBox="0 0 51 51" fill="none" xmlns="http://www.w3.org/2000/svg">
<path fill-rule="evenodd" clip-rule="evenodd" d="M24.8334 50.7757C23.5473 50.7635 22.262 50.6529 20.9898 50.444L0.339907 29.7941C0.130972 28.5218 0.0204052 27.2365 0.00820216 25.9505L24.8334 50.7757ZM7.34862 43.4353C4.64296 40.7296 2.68515 37.5593 1.47521 34.1811L16.6027 49.3087C13.2246 48.0987 10.0543 46.1409 7.34862 43.4353ZM27.9245 50.615C28.93 50.5006 29.9299 50.3253 30.9183 50.0893L0.694574 19.8656C0.458571 20.854 0.283329 21.8539 0.168846 22.8594L27.9245 50.615ZM35.9123 48.3194C35.1 48.7089 34.2711 49.052 33.4296 49.3489L1.435 17.3543C1.73187 16.5127 2.07503 15.6838 2.46448 14.8716L35.9123 48.3194ZM38.0234 47.1788C38.74 46.7458 39.4395 46.2737 40.119 45.7625L5.02143 10.6649C4.51022 11.3444 4.0381 12.0439 3.60507 12.7605L38.0234 47.1788ZM42.7968 43.4353C42.5029 43.7292 42.2034 44.0143 41.8989 44.2906L6.4933 8.88502C6.76958 8.58045 7.05469 8.28103 7.34862 7.9871C7.64348 7.69224 7.94385 7.40627 8.24941 7.12918L43.6547 42.5345C43.3776 42.84 43.0916 43.1404 42.7968 43.4353ZM45.1263 40.7544C45.6386 40.0733 46.1115 39.3721 46.5453 38.6538L12.1301 4.23864C11.4118 4.67235 10.7106 5.14533 10.0295 5.65757L45.1263 40.7544ZM48.7097 34.07C48.4141 34.9078 48.0726 35.7331 47.6852 36.542L14.2419 3.09873C15.0507 2.71132 15.876 2.3698 16.7139 2.07416L48.7097 34.07ZM49.4503 31.5589C49.687 30.5683 49.8625 29.5661 49.9771 28.5583L22.2256 0.806787C21.2178 0.92134 20.2156 1.09693 19.225 1.33355L49.4503 31.5589ZM49.806 21.6311C50.0143 22.9007 50.1247 24.1833 50.1372 25.4666L25.3173 0.646726C26.6006 0.659168 27.8832 0.769567 29.1528 0.977919L49.806 21.6311ZM48.6715 17.2449C47.4617 13.8654 45.5034 10.6937 42.7968 7.9871C40.0901 5.28045 36.9185 3.32221 33.539 2.11237L48.6715 17.2449Z" fill="url(#paint0_linear_6_193)"/>
<defs>
<linearGradient id="paint0_linear_6_193" x1="-6.95839" y1="55.1086" x2="43.7072" y2="6.05137" gradientUnits="userSpaceOnUse">
<stop stop-color="#353535"/>
<stop offset="1" stop-color="#353535" stop-opacity="0"/>
</linearGradient>
</defs>
</svg>
