<svg width="8" height="12" viewBox="0 0 8 12" fill="none" xmlns="http://www.w3.org/2000/svg">
<path d="M7.65677 11.3326V9.42554C7.03923 9.83908 6.43831 10.044 5.85492 10.044C5.57985 10.044 5.27246 9.95723 4.92815 9.78831C4.72231 9.64892 4.60139 9.49569 4.56539 9.324C4.46385 9.11723 4.40108 8.67046 4.40108 7.98185V4.944H7.17031V3.09785H4.40108V0H2.76538C2.62785 0.721846 2.49031 1.23508 2.35185 1.54431C2.182 1.92277 1.90692 2.26615 1.52939 2.57446C1.17892 2.86916 0.776693 3.0961 0.343231 3.24369V4.944H1.63185V9.11723C1.63185 9.59723 1.69923 10.0071 1.83769 10.3514C1.94015 10.6265 2.146 10.9006 2.45708 11.1757C2.69615 11.4175 3.03954 11.6225 3.48631 11.7942C4.03554 11.9326 4.51462 12 4.92815 12C5.40815 12 5.85492 11.9483 6.26662 11.8458C6.75172 11.7406 7.21967 11.5679 7.65677 11.3326Z" fill="#E6E6E6"/>
</svg>
