<svg width="107" height="107" viewBox="0 0 107 107" fill="none" xmlns="http://www.w3.org/2000/svg">
<rect x="53.4995" y="0.851638" width="74.0851" height="74.0851" rx="15.5" transform="rotate(45 53.4995 0.851638)" fill="#0A0A0C" stroke="#1C1C1C"/>
<mask id="mask0_6_293" style="mask-type:alpha" maskUnits="userSpaceOnUse" x="28" y="28" width="49" height="49">
<rect x="28.9531" y="28.8442" width="48" height="48" fill="#D9D9D9"/>
</mask>
<g mask="url(#mask0_6_293)">
<path d="M42.95 69.544C40.55 69.544 38.5 68.694 36.8 66.994C35.1 65.294 34.25 63.244 34.25 60.844C34.25 59.0107 34.75 57.3687 35.75 55.918C36.75 54.4687 38.05 53.4274 39.65 52.794V54.344C38.4833 54.944 37.5253 55.8274 36.776 56.994C36.0253 58.1607 35.65 59.444 35.65 60.844C35.65 62.844 36.3667 64.5607 37.8 65.994C39.2333 67.4274 40.95 68.144 42.95 68.144C44.95 68.144 46.6667 67.4274 48.1 65.994C49.5333 64.5607 50.25 62.844 50.25 60.844V60.144H60.75C60.9167 59.6774 61.2 59.294 61.6 58.994C62 58.694 62.45 58.544 62.95 58.544C63.5833 58.544 64.1247 58.7694 64.574 59.22C65.0247 59.6694 65.25 60.2107 65.25 60.844C65.25 61.4774 65.0247 62.0187 64.574 62.468C64.1247 62.9187 63.5833 63.144 62.95 63.144C62.4167 63.144 61.958 63.0027 61.574 62.72C61.1913 62.436 60.9167 62.044 60.75 61.544H51.65C51.3833 64.044 50.392 66.0027 48.676 67.42C46.9587 68.836 45.05 69.544 42.95 69.544ZM62.95 69.544C61.6833 69.544 60.492 69.2854 59.376 68.768C58.2587 68.252 57.25 67.5107 56.35 66.544H58.4C58.9667 67.0107 59.65 67.394 60.45 67.694C61.25 67.994 62.0833 68.144 62.95 68.144C64.95 68.144 66.6667 67.4274 68.1 65.994C69.5333 64.5607 70.25 62.844 70.25 60.844C70.25 58.844 69.5333 57.1274 68.1 55.694C66.6667 54.2607 64.95 53.544 62.95 53.544C62.3833 53.544 61.858 53.6027 61.374 53.72C60.8913 53.836 60.4167 53.994 59.95 54.194L54.5 45.094C53.8 45.2607 53.15 45.1187 52.55 44.668C51.95 44.2187 51.65 43.6107 51.65 42.844C51.65 42.2107 51.8753 41.6687 52.326 41.218C52.7753 40.7687 53.3167 40.544 53.95 40.544C54.5833 40.544 55.1247 40.7687 55.574 41.218C56.0247 41.6687 56.25 42.2107 56.25 42.844C56.25 43.1107 56.2 43.3774 56.1 43.644C56 43.9107 55.8667 44.1274 55.7 44.294L60.55 52.444C60.9167 52.3774 61.292 52.3107 61.676 52.244C62.0587 52.1774 62.4833 52.144 62.95 52.144C65.35 52.144 67.4 52.994 69.1 54.694C70.8 56.394 71.65 58.444 71.65 60.844C71.65 63.244 70.8 65.294 69.1 66.994C67.4 68.694 65.35 69.544 62.95 69.544ZM42.95 63.144C42.3167 63.144 41.7753 62.9187 41.326 62.468C40.8753 62.0187 40.65 61.4774 40.65 60.844C40.65 60.1774 40.9087 59.594 41.426 59.094C41.942 58.594 42.6333 58.4274 43.5 58.594L48.75 49.844C47.5833 48.9774 46.7087 47.936 46.126 46.72C45.542 45.5027 45.25 44.2107 45.25 42.844C45.25 40.444 46.1 38.394 47.8 36.694C49.5 34.994 51.55 34.144 53.95 34.144C56.35 34.144 58.4 34.994 60.1 36.694C61.8 38.394 62.65 40.444 62.65 42.844H61.25C61.25 40.844 60.5333 39.1274 59.1 37.694C57.6667 36.2607 55.95 35.544 53.95 35.544C51.95 35.544 50.2333 36.2607 48.8 37.694C47.3667 39.1274 46.65 40.844 46.65 42.844C46.65 44.244 47 45.502 47.7 46.618C48.4 47.7354 49.3833 48.6607 50.65 49.394L44.7 59.344C44.8667 59.544 45 59.7774 45.1 60.044C45.2 60.3107 45.25 60.5774 45.25 60.844C45.25 61.4774 45.0247 62.0187 44.574 62.468C44.1247 62.9187 43.5833 63.144 42.95 63.144Z" fill="#E6E6E6"/>
</g>
</svg>
