<svg width="18" height="12" viewBox="0 0 18 12" fill="none" xmlns="http://www.w3.org/2000/svg">
<path d="M17.2733 5.94829C17.2733 5.90766 17.2733 5.8615 17.2715 5.80794C17.2696 5.65836 17.2659 5.4903 17.2622 5.31117C17.2475 4.79594 17.2216 4.28255 17.181 3.79871C17.1256 3.13204 17.0443 2.57618 16.9335 2.15882C16.8166 1.72327 16.5874 1.32604 16.2688 1.00683C15.9503 0.687617 15.5535 0.45761 15.1182 0.339797C14.5956 0.199446 13.5725 0.11265 12.132 0.059095C11.4469 0.0332409 10.7138 0.0166204 9.98061 0.00738678C9.72391 0.00369333 9.48569 0.00184672 9.27147 0H8.72853C8.51431 0.00184672 8.27608 0.00369333 8.01939 0.00738678C7.28624 0.0166204 6.55309 0.0332409 5.86796 0.059095C4.42752 0.114497 3.40258 0.201293 2.88181 0.339797C2.44635 0.457321 2.04943 0.68723 1.73083 1.00648C1.41222 1.32574 1.18312 1.72312 1.06648 2.15882C0.953831 2.57618 0.874422 3.13204 0.819021 3.79871C0.778393 4.28255 0.752539 4.79594 0.737765 5.31117C0.732225 5.4903 0.730378 5.65836 0.728531 5.80794C0.728531 5.8615 0.726685 5.90766 0.726685 5.94829V6.05171C0.726685 6.09234 0.726685 6.1385 0.728531 6.19206C0.730378 6.34164 0.734071 6.50969 0.737765 6.68883C0.752539 7.20406 0.778393 7.71745 0.819021 8.20129C0.874422 8.86796 0.955678 9.42382 1.06648 9.84118C1.30286 10.7258 1.99723 11.4238 2.88181 11.6602C3.40258 11.8006 4.42752 11.8873 5.86796 11.9409C6.55309 11.9668 7.28624 11.9834 8.01939 11.9926C8.27608 11.9963 8.51431 11.9982 8.72853 12H9.27147C9.48569 11.9982 9.72391 11.9963 9.98061 11.9926C10.7138 11.9834 11.4469 11.9668 12.132 11.9409C13.5725 11.8855 14.5974 11.7987 15.1182 11.6602C16.0028 11.4238 16.6971 10.7276 16.9335 9.84118C17.0462 9.42382 17.1256 8.86796 17.181 8.20129C17.2216 7.71745 17.2475 7.20406 17.2622 6.68883C17.2678 6.50969 17.2696 6.34164 17.2715 6.19206C17.2715 6.1385 17.2733 6.09234 17.2733 6.05171V5.94829ZM15.9437 6.04432C15.9437 6.0831 15.9437 6.12558 15.9418 6.17544C15.94 6.31948 15.9363 6.4783 15.9326 6.65005C15.9197 7.14127 15.8938 7.6325 15.855 8.08864C15.8052 8.68329 15.735 9.17082 15.6482 9.49769C15.5337 9.92428 15.1976 10.2622 14.7729 10.3749C14.385 10.4783 13.4081 10.5614 12.0803 10.6113C11.4081 10.6371 10.6842 10.6537 9.96214 10.663C9.70914 10.6667 9.47461 10.6685 9.26408 10.6685H8.73592L8.03786 10.663C7.31579 10.6537 6.59372 10.6371 5.91967 10.6113C4.59187 10.5596 3.61311 10.4783 3.22715 10.3749C2.8024 10.2604 2.4663 9.92428 2.3518 9.49769C2.265 9.17082 2.19483 8.68329 2.14497 8.08864C2.10619 7.6325 2.08218 7.14127 2.0674 6.65005C2.06186 6.4783 2.06002 6.31764 2.05817 6.17544C2.05817 6.12558 2.05632 6.08126 2.05632 6.04432V5.95568C2.05632 5.9169 2.05632 5.87442 2.05817 5.82456C2.06002 5.68052 2.06371 5.5217 2.0674 5.34995C2.08033 4.85873 2.10619 4.3675 2.14497 3.91136C2.19483 3.31671 2.265 2.82918 2.3518 2.50231C2.4663 2.07572 2.8024 1.73777 3.22715 1.62512C3.61496 1.5217 4.59187 1.4386 5.91967 1.38873C6.59187 1.36288 7.31579 1.34626 8.03786 1.33703C8.29086 1.33333 8.52539 1.33149 8.73592 1.33149H9.26408L9.96214 1.33703C10.6842 1.34626 11.4063 1.36288 12.0803 1.38873C13.4081 1.44044 14.3869 1.5217 14.7729 1.62512C15.1976 1.73961 15.5337 2.07572 15.6482 2.50231C15.735 2.82918 15.8052 3.31671 15.855 3.91136C15.8938 4.3675 15.9178 4.85873 15.9326 5.34995C15.9381 5.5217 15.94 5.68236 15.9418 5.82456C15.9418 5.87442 15.9437 5.91874 15.9437 5.95568V6.04432ZM7.35642 8.47461L11.6408 5.98153L7.35642 3.52539V8.47461Z" fill="#E6E6E6"/>
</svg>
